<?xml version="1.0" standalone="no"?><!-- Generator: Gravit.io --><svg xmlns="http://www.w3.org/2000/svg" xmlns:xlink="http://www.w3.org/1999/xlink" style="isolation:isolate" viewBox="70.306 -190 234.484 46.145" width="234.484" height="46.145"><g><g><path d=" M 86.111 -158.906 L 86.111 -158.971 L 76.419 -164.63 L 86.111 -170.984 L 86.111 -177.652 L 70.306 -166.291 L 70.306 -162.429 L 84.3 -153.503 L 83.894 -152.294 L 89.304 -152.294 L 97.824 -177.706 L 92.415 -177.706 L 86.111 -158.906 Z " fill="rgb(255,255,255)"/><path d=" M 106.846 -176.347 L 107.302 -177.706 L 101.893 -177.706 L 93.373 -152.294 L 98.782 -152.294 L 105.045 -170.974 L 114.723 -164.63 L 105.031 -158.971 L 105.031 -152.348 L 120.836 -162.429 L 120.836 -166.291 L 106.846 -176.347 Z " fill="rgb(255,255,255)"/></g><path d=" M 225.678 -159.954 L 225.678 -159.954 L 225.678 -171.527 L 225.678 -171.527 Q 225.678 -175.47 227.741 -177.332 L 227.741 -177.332 L 227.741 -177.332 Q 229.803 -179.194 233.126 -179.194 L 233.126 -179.194 L 233.126 -179.194 Q 236.484 -179.194 238.437 -177.46 L 238.437 -177.46 L 238.437 -177.46 Q 240.391 -175.726 240.391 -173.28 L 240.391 -173.28 L 240.391 -173.28 Q 240.391 -172.586 240.172 -172.33 L 240.172 -172.33 L 240.172 -172.33 Q 239.952 -172.075 239.478 -172.075 L 239.478 -172.075 L 239.478 -172.075 Q 238.565 -172.075 238.565 -172.842 L 238.565 -172.842 L 238.565 -172.842 Q 238.529 -173.608 238.291 -174.284 L 238.291 -174.284 L 238.291 -174.284 Q 238.054 -174.959 237.525 -175.744 L 237.525 -175.744 L 237.525 -175.744 Q 236.995 -176.529 235.864 -176.985 L 235.864 -176.985 L 235.864 -176.985 Q 234.732 -177.441 233.126 -177.441 L 233.126 -177.441 L 233.126 -177.441 Q 227.503 -177.441 227.503 -171.527 L 227.503 -171.527 L 227.503 -159.954 L 227.503 -159.954 Q 227.503 -154.04 233.235 -154.04 L 233.235 -154.04 L 233.235 -154.04 Q 234.549 -154.04 235.517 -154.369 L 235.517 -154.369 L 235.517 -154.369 Q 236.484 -154.697 237.014 -155.117 L 237.014 -155.117 L 237.014 -155.117 Q 237.543 -155.537 237.89 -156.285 L 237.89 -156.285 L 237.89 -156.285 Q 238.237 -157.034 238.346 -157.472 L 238.346 -157.472 L 238.346 -157.472 Q 238.456 -157.91 238.565 -158.677 L 238.565 -158.677 L 238.565 -158.677 Q 238.638 -159.443 239.441 -159.443 L 239.441 -159.443 L 239.441 -159.443 Q 239.952 -159.443 240.172 -159.188 L 240.172 -159.188 L 240.172 -159.188 Q 240.391 -158.932 240.391 -158.202 L 240.391 -158.202 L 240.391 -158.202 Q 240.391 -155.793 238.401 -154.04 L 238.401 -154.04 L 238.401 -154.04 Q 236.411 -152.288 233.016 -152.288 L 233.016 -152.288 L 233.016 -152.288 Q 229.73 -152.288 227.704 -154.15 L 227.704 -154.15 L 227.704 -154.15 Q 225.678 -156.012 225.678 -159.954 Z  M 244.552 -159.954 L 244.552 -159.954 L 244.552 -171.527 L 244.552 -171.527 Q 244.552 -175.507 246.542 -177.35 L 246.542 -177.35 L 246.542 -177.35 Q 248.532 -179.194 251.89 -179.194 L 251.89 -179.194 L 251.89 -179.194 Q 255.213 -179.194 257.239 -177.35 L 257.239 -177.35 L 257.239 -177.35 Q 259.265 -175.507 259.265 -171.527 L 259.265 -171.527 L 259.265 -159.954 L 259.265 -159.954 Q 259.265 -155.975 257.239 -154.132 L 257.239 -154.132 L 257.239 -154.132 Q 255.213 -152.288 251.89 -152.288 L 251.89 -152.288 L 251.89 -152.288 Q 248.532 -152.288 246.542 -154.132 L 246.542 -154.132 L 246.542 -154.132 Q 244.552 -155.975 244.552 -159.954 Z  M 246.378 -171.527 L 246.378 -159.954 L 246.378 -159.954 Q 246.378 -154.04 251.89 -154.04 L 251.89 -154.04 L 251.89 -154.04 Q 254.555 -154.04 255.997 -155.519 L 255.997 -155.519 L 255.997 -155.519 Q 257.439 -156.997 257.439 -159.954 L 257.439 -159.954 L 257.439 -171.527 L 257.439 -171.527 Q 257.439 -174.484 255.997 -175.963 L 255.997 -175.963 L 255.997 -175.963 Q 254.555 -177.441 251.89 -177.441 L 251.89 -177.441 L 251.89 -177.441 Q 246.378 -177.441 246.378 -171.527 L 246.378 -171.527 L 246.378 -171.527 Z  M 264.777 -153.274 L 264.777 -153.274 L 264.777 -178.427 L 264.777 -178.427 Q 264.777 -178.719 265.033 -178.957 L 265.033 -178.957 L 265.033 -178.957 Q 265.289 -179.194 265.654 -179.194 L 265.654 -179.194 L 272.115 -179.194 L 272.115 -179.194 Q 275.438 -179.194 277.464 -177.35 L 277.464 -177.35 L 277.464 -177.35 Q 279.49 -175.507 279.49 -171.527 L 279.49 -171.527 L 279.49 -160.173 L 279.49 -160.173 Q 279.49 -156.194 277.464 -154.351 L 277.464 -154.351 L 277.464 -154.351 Q 275.438 -152.507 272.115 -152.507 L 272.115 -152.507 L 265.654 -152.507 L 265.654 -152.507 Q 265.289 -152.507 265.033 -152.744 L 265.033 -152.744 L 265.033 -152.744 Q 264.777 -152.982 264.777 -153.274 Z  M 266.603 -177.441 L 266.603 -154.259 L 272.115 -154.259 L 272.115 -154.259 Q 274.78 -154.259 276.223 -155.738 L 276.223 -155.738 L 276.223 -155.738 Q 277.665 -157.216 277.665 -160.173 L 277.665 -160.173 L 277.665 -171.527 L 277.665 -171.527 Q 277.665 -174.484 276.223 -175.963 L 276.223 -175.963 L 276.223 -175.963 Q 274.78 -177.441 272.115 -177.441 L 272.115 -177.441 L 266.603 -177.441 L 266.603 -177.441 Z  M 285.003 -153.31 L 285.003 -153.31 L 285.003 -178.391 L 285.003 -178.391 Q 285.003 -179.194 285.879 -179.194 L 285.879 -179.194 L 298.875 -179.194 L 298.875 -179.194 Q 299.642 -179.194 299.642 -178.354 L 299.642 -178.354 L 299.642 -178.354 Q 299.642 -177.989 299.423 -177.715 L 299.423 -177.715 L 299.423 -177.715 Q 299.204 -177.441 298.875 -177.441 L 298.875 -177.441 L 286.828 -177.441 L 286.828 -166.708 L 292.633 -166.708 L 292.633 -166.708 Q 292.961 -166.708 293.18 -166.453 L 293.18 -166.453 L 293.18 -166.453 Q 293.399 -166.197 293.399 -165.832 L 293.399 -165.832 L 293.399 -165.832 Q 293.399 -165.029 292.633 -165.029 L 292.633 -165.029 L 286.828 -165.029 L 286.828 -154.259 L 298.875 -154.259 L 298.875 -154.259 Q 299.204 -154.259 299.423 -153.985 L 299.423 -153.985 L 299.423 -153.985 Q 299.642 -153.712 299.642 -153.347 L 299.642 -153.347 L 299.642 -153.347 Q 299.642 -152.507 298.875 -152.507 L 298.875 -152.507 L 285.879 -152.507 L 285.879 -152.507 Q 285.003 -152.507 285.003 -153.31 Z  M 123.385 -177.588 L 123.385 -177.588 L 123.385 -177.588 Q 123.385 -178.245 124.151 -178.719 L 124.151 -178.719 L 124.151 -178.719 Q 124.918 -179.194 125.794 -179.194 L 125.794 -179.194 L 125.794 -179.194 Q 126.889 -179.194 127.145 -178.391 L 127.145 -178.391 L 133.168 -157.581 L 139.156 -178.391 L 139.156 -178.391 Q 139.411 -179.194 140.47 -179.194 L 140.47 -179.194 L 140.47 -179.194 Q 141.346 -179.194 142.131 -178.719 L 142.131 -178.719 L 142.131 -178.719 Q 142.916 -178.245 142.916 -177.588 L 142.916 -177.588 L 142.916 -177.588 Q 142.916 -177.478 142.843 -177.259 L 142.843 -177.259 L 135.614 -153.602 L 135.614 -153.602 Q 135.432 -152.982 134.738 -152.635 L 134.738 -152.635 L 134.738 -152.635 Q 134.045 -152.288 133.168 -152.288 L 133.168 -152.288 L 133.168 -152.288 Q 131.161 -152.288 130.722 -153.602 L 130.722 -153.602 L 123.421 -177.259 L 123.421 -177.259 Q 123.385 -177.368 123.385 -177.588 Z  M 145.69 -160.429 L 145.69 -160.429 L 145.69 -177.953 L 145.69 -177.953 Q 145.69 -178.573 146.256 -178.884 L 146.256 -178.884 L 146.256 -178.884 Q 146.822 -179.194 147.625 -179.194 L 147.625 -179.194 L 147.625 -179.194 Q 148.429 -179.194 148.994 -178.884 L 148.994 -178.884 L 148.994 -178.884 Q 149.56 -178.573 149.56 -177.953 L 149.56 -177.953 L 149.56 -160.429 L 149.56 -160.429 Q 149.56 -158.056 150.729 -156.888 L 150.729 -156.888 L 150.729 -156.888 Q 151.897 -155.72 154.014 -155.72 L 154.014 -155.72 L 154.014 -155.72 Q 158.505 -155.72 158.505 -160.429 L 158.505 -160.429 L 158.505 -177.953 L 158.505 -177.953 Q 158.505 -178.573 159.07 -178.884 L 159.07 -178.884 L 159.07 -178.884 Q 159.636 -179.194 160.439 -179.194 L 160.439 -179.194 L 160.439 -179.194 Q 161.243 -179.194 161.808 -178.884 L 161.808 -178.884 L 161.808 -178.884 Q 162.374 -178.573 162.374 -177.953 L 162.374 -177.953 L 162.374 -160.429 L 162.374 -160.429 Q 162.374 -156.231 160.093 -154.259 L 160.093 -154.259 L 160.093 -154.259 Q 157.811 -152.288 154.014 -152.288 L 154.014 -152.288 L 154.014 -152.288 Q 150.254 -152.288 147.972 -154.259 L 147.972 -154.259 L 147.972 -154.259 Q 145.69 -156.231 145.69 -160.429 Z  M 167.084 -153.785 L 167.084 -153.785 L 167.084 -177.953 L 167.084 -177.953 Q 167.084 -178.573 167.65 -178.884 L 167.65 -178.884 L 167.65 -178.884 Q 168.216 -179.194 169.019 -179.194 L 169.019 -179.194 L 169.019 -179.194 Q 169.822 -179.194 170.388 -178.884 L 170.388 -178.884 L 170.388 -178.884 Q 170.954 -178.573 170.954 -177.953 L 170.954 -177.953 L 170.954 -155.939 L 180.445 -155.939 L 180.445 -155.939 Q 180.993 -155.939 181.303 -155.428 L 181.303 -155.428 L 181.303 -155.428 Q 181.614 -154.916 181.614 -154.223 L 181.614 -154.223 L 181.614 -154.223 Q 181.614 -153.529 181.303 -153.018 L 181.303 -153.018 L 181.303 -153.018 Q 180.993 -152.507 180.445 -152.507 L 180.445 -152.507 L 168.8 -152.507 L 168.8 -152.507 Q 168.106 -152.507 167.595 -152.854 L 167.595 -152.854 L 167.595 -152.854 Q 167.084 -153.201 167.084 -153.785 Z  M 184.242 -160.429 L 184.242 -160.429 L 184.242 -171.053 L 184.242 -171.053 Q 184.242 -175.251 186.469 -177.222 L 186.469 -177.222 L 186.469 -177.222 Q 188.696 -179.194 192.31 -179.194 L 192.31 -179.194 L 192.31 -179.194 Q 195.998 -179.194 198.316 -177.35 L 198.316 -177.35 L 198.316 -177.35 Q 200.634 -175.507 200.634 -172.44 L 200.634 -172.44 L 200.634 -172.44 Q 200.634 -171.381 200.178 -170.98 L 200.178 -170.98 L 200.178 -170.98 Q 199.721 -170.578 198.699 -170.578 L 198.699 -170.578 L 198.699 -170.578 Q 196.801 -170.578 196.764 -171.856 L 196.764 -171.856 L 196.764 -171.856 Q 196.363 -175.762 192.42 -175.762 L 192.42 -175.762 L 192.42 -175.762 Q 188.112 -175.762 188.112 -171.053 L 188.112 -171.053 L 188.112 -160.429 L 188.112 -160.429 Q 188.112 -155.72 192.42 -155.72 L 192.42 -155.72 L 192.42 -155.72 Q 194.501 -155.72 195.633 -156.888 L 195.633 -156.888 L 195.633 -156.888 Q 196.764 -158.056 196.764 -160.429 L 196.764 -160.429 L 196.764 -163.423 L 193.077 -163.423 L 193.077 -163.423 Q 192.493 -163.423 192.164 -163.879 L 192.164 -163.879 L 192.164 -163.879 Q 191.836 -164.335 191.836 -164.992 L 191.836 -164.992 L 191.836 -164.992 Q 191.836 -165.577 192.164 -166.051 L 192.164 -166.051 L 192.164 -166.051 Q 192.493 -166.526 193.077 -166.526 L 193.077 -166.526 L 199.356 -166.526 L 199.356 -166.526 Q 199.94 -166.526 200.287 -166.142 L 200.287 -166.142 L 200.287 -166.142 Q 200.634 -165.759 200.634 -165.212 L 200.634 -165.212 L 200.634 -160.429 L 200.634 -160.429 Q 200.634 -156.231 198.389 -154.259 L 198.389 -154.259 L 198.389 -154.259 Q 196.144 -152.288 192.42 -152.288 L 192.42 -152.288 L 192.42 -152.288 Q 188.696 -152.288 186.469 -154.259 L 186.469 -154.259 L 186.469 -154.259 Q 184.242 -156.231 184.242 -160.429 Z  M 204.54 -160.429 L 204.54 -160.429 L 204.54 -171.053 L 204.54 -171.053 Q 204.54 -175.251 206.767 -177.222 L 206.767 -177.222 L 206.767 -177.222 Q 208.994 -179.194 212.718 -179.194 L 212.718 -179.194 L 212.718 -179.194 Q 216.442 -179.194 218.687 -177.222 L 218.687 -177.222 L 218.687 -177.222 Q 220.932 -175.251 220.932 -171.053 L 220.932 -171.053 L 220.932 -160.429 L 220.932 -160.429 Q 220.932 -156.231 218.687 -154.259 L 218.687 -154.259 L 218.687 -154.259 Q 216.442 -152.288 212.718 -152.288 L 212.718 -152.288 L 212.718 -152.288 Q 208.994 -152.288 206.767 -154.259 L 206.767 -154.259 L 206.767 -154.259 Q 204.54 -156.231 204.54 -160.429 Z  M 208.41 -171.053 L 208.41 -160.429 L 208.41 -160.429 Q 208.41 -155.72 212.718 -155.72 L 212.718 -155.72 L 212.718 -155.72 Q 214.799 -155.72 215.931 -156.888 L 215.931 -156.888 L 215.931 -156.888 Q 217.062 -158.056 217.062 -160.429 L 217.062 -160.429 L 217.062 -171.053 L 217.062 -171.053 Q 217.062 -173.426 215.931 -174.594 L 215.931 -174.594 L 215.931 -174.594 Q 214.799 -175.762 212.718 -175.762 L 212.718 -175.762 L 212.718 -175.762 Q 208.41 -175.762 208.41 -171.053 L 208.41 -171.053 L 208.41 -171.053 Z " fill-rule="evenodd" fill="rgb(255,255,255)"/></g></svg>