<svg width="444" height="339" viewBox="0 0 444 339" fill="none" xmlns="http://www.w3.org/2000/svg">
<path d="M444 268.524C444 302.289 291.107 338.976 168.5 338.976C45.8928 338.976 0 302.289 0 268.524C1.5 216.476 173.893 205.476 296.5 205.476C381 205.476 444 234.759 444 268.524Z" fill="#663399"/>
<path opacity="0.199997" d="M408 259.146L141.977 239.724L28 280.965L86.2692 287.095C81.3402 290.568 78.5591 294.489 78.6048 298.621C78.7549 312.202 109.254 322.878 146.726 322.465C181.044 322.086 209.292 312.536 213.691 300.497L290.411 308.567L408 259.146Z" fill="#311E56"/>
<path d="M143.674 0.476203V68.3897L259.289 73.1529V3.1461L143.674 0.476203Z" fill="#FF56A9"/>
<path d="M75.1372 279.859L94.9704 172.184L99.493 172.247L80.3138 282.279L80.281 282.294L75.1372 279.859Z" fill="#FFC59B"/>
<path d="M107.938 170.545L90.0489 278.057L80.3135 282.279L99.4926 172.247L107.938 170.545Z" fill="#DA8B5F"/>
<path d="M128.798 284.237L110.336 168.76L98.9111 168.601L116.616 289.145L116.647 289.161L128.798 284.237Z" fill="#DA8B5F"/>
<path d="M95.668 168.557L111.29 286.532L116.616 289.145L98.9108 168.602L95.668 168.557Z" fill="#FFC59B"/>
<path d="M146.318 249.936L166.152 142.261L170.675 142.324L151.494 252.358L151.462 252.372L146.318 249.936Z" fill="#FFC59B"/>
<path d="M179.119 140.623L161.23 248.134L151.494 252.358L170.674 142.324L179.119 140.623Z" fill="#DA8B5F"/>
<path d="M199.979 254.316L181.517 138.838L170.092 138.679L187.797 259.224L187.829 259.239L199.979 254.316Z" fill="#DA8B5F"/>
<path d="M166.85 138.634L182.472 256.61L187.797 259.224L170.092 138.679L166.85 138.634Z" fill="#FFC59B"/>
<path d="M240.068 297.192L258.405 189.184H262.927L245.277 299.543L245.245 299.557L240.068 297.192Z" fill="#FFC59B"/>
<path d="M271.349 187.364L254.953 295.182L245.277 299.542L262.927 189.184L271.349 187.364Z" fill="#DA8B5F"/>
<path d="M293.784 300.83L273.721 185.545H262.295L281.671 305.909L281.703 305.924L293.784 300.83Z" fill="#DA8B5F"/>
<path d="M259.052 185.546L276.31 303.368L281.671 305.909L262.295 185.546H259.052Z" fill="#FFC59B"/>
<path d="M310.827 266.267L329.164 158.26H333.686L316.036 268.618L316.004 268.633L310.827 266.267Z" fill="#FFC59B"/>
<path d="M342.107 156.44L325.712 264.258L316.036 268.618L333.686 158.26L342.107 156.44Z" fill="#DA8B5F"/>
<path d="M364.543 269.906L344.481 154.621H333.055L352.431 274.985L352.463 275L364.543 269.906Z" fill="#DA8B5F"/>
<path d="M329.811 154.621L347.069 272.444L352.431 274.985L333.055 154.621H329.811Z" fill="#FFC59B"/>
<path d="M86.0376 170.062L269.623 189.956L351.815 152.825V146.793L165.713 139.036L86.0376 164.03V170.062Z" fill="#BD6557"/>
<path d="M86.0376 164.03L269.623 183.923L351.815 146.793L165.713 133.004L86.0376 164.03Z" fill="#C99179"/>
<path d="M181.887 157.213L225.904 161.982L245.611 153.08L200.99 149.773L181.887 157.213Z" fill="#CDCDCD"/>
<path d="M181.887 155.489L225.904 160.258L245.611 151.357L200.99 148.05L181.887 155.489Z" fill="#FFF6EB"/>
<path d="M295.113 153.048C295.1 153.048 295.089 153.048 295.076 153.048C294.468 153.035 294.157 152.748 294.002 152.509L294.729 152.043C294.752 152.081 294.816 152.18 295.093 152.186C295.101 152.186 295.11 152.186 295.12 152.186C297.468 152.186 304.574 146.345 305.44 145.11C308.329 141.5 310.513 141.838 311.318 142.153C312.149 142.475 312.741 143.223 312.696 143.891L311.835 143.833C311.847 143.651 311.609 143.19 311.005 142.956C310.378 142.71 308.646 142.485 306.131 145.626C305.255 146.876 297.955 153.048 295.113 153.048Z" fill="black"/>
<path d="M262.072 161.875V161.013L283.192 150.815L308.957 152.108V152.97L287.24 165.358L262.072 161.875Z" fill="black"/>
<path d="M262.072 161.013L283.192 149.953L308.957 152.108L287.24 164.496L262.072 161.013Z" fill="#212627"/>
<path d="M281.671 152.889L284.754 151.372L288.077 151.702L285.339 153.181L281.671 152.889Z" fill="#555D5E"/>
<path d="M296.047 154.168L299.13 152.651L302.453 152.981L299.715 154.461L296.047 154.168Z" fill="#555D5E"/>
<path d="M294.366 152.89C294.366 153.439 293.046 153.886 291.417 153.886C289.789 153.886 288.469 153.439 288.469 152.89C288.469 152.339 289.789 151.893 291.417 151.893C293.046 151.893 294.366 152.339 294.366 152.89Z" fill="#555D5E"/>
<path d="M267.64 160.043L279.52 154.155L299.25 155.804L286.895 162.708L267.64 160.043Z" fill="#555D5E"/>
<path d="M263.366 169.631C262.792 169.631 261.353 169.488 260.777 169.775C257.901 172.361 264.229 172.073 265.236 172.073C268.4 171.93 271.421 172.217 274.584 171.93C277.748 171.642 279.043 169.201 275.016 169.344L263.366 169.631Z" fill="#212627"/>
<path d="M230.432 172.082L241.862 166.184L253.587 167.715L243.72 174.515L230.432 172.082Z" fill="#FFF4C4"/>
<path d="M287.658 141.8C286.738 139.729 284.231 140.058 282.438 140.632C278.876 141.77 277.669 145.287 275.305 147.788C273.733 149.448 271.337 149.785 269.264 150.482C267.124 151.203 265.11 152.204 263.171 153.351C261.443 154.374 259.894 155.396 257.996 156.09C256.974 156.463 255.234 156.728 254.481 157.586C254.317 157.773 255.115 158.022 255.281 157.833C255.893 157.135 257.365 156.875 258.205 156.576C259.347 156.17 260.527 155.783 261.559 155.136C264.688 153.175 267.707 151.501 271.242 150.376C272.7 149.911 274.063 149.57 275.34 148.695C276.561 147.857 277.366 146.497 278.163 145.287C278.976 144.054 279.873 142.966 281.024 142.033C282.404 140.915 285.867 139.581 286.823 141.732C286.928 141.967 287.752 142.013 287.658 141.8Z" fill="#FFF6EB"/>
<path d="M239.06 155.842C238.198 156.129 237.335 157.566 237.479 158.571C237.766 161.013 241.506 161.875 243.519 162.162C247.115 162.593 261.065 161.3 254.45 154.98C250.278 150.958 244.238 152.97 239.78 154.836L239.06 155.842Z" fill="#FFF6EB"/>
<path d="M216.913 145.142V142.628L238.026 142.051L251.573 124.386H254.305L257.76 139.824C257.76 139.824 259.699 149.235 251.932 148.696L216.913 145.142Z" fill="#9A9A9A"/>
<path d="M235.177 123.524L238.342 136.308C238.342 136.308 240.165 141.269 230.409 141.733L216.912 142.628L252.714 146.004C252.714 146.004 256.75 145.213 254.593 137.6L251.573 124.386L235.177 123.524Z" fill="#CDCDCD"/>
<path d="M216.913 145.142V142.628L238.026 142.051L251.573 124.386H254.305L257.76 139.824C257.76 139.824 259.699 149.235 251.932 148.696L216.913 145.142Z" fill="#9A9A9A"/>
<path d="M235.177 123.524L238.342 136.308C238.342 136.308 240.165 141.269 230.409 141.733L216.912 142.628L252.714 146.004C252.714 146.004 256.75 145.213 254.593 137.6L251.573 124.386L235.177 123.524Z" fill="#CDCDCD"/>
<path d="M216.913 145.142V142.628L238.026 142.051L251.573 124.386H254.305L257.76 139.824C257.76 139.824 259.699 149.235 251.932 148.696L216.913 145.142Z" fill="#9A9A9A"/>
<path d="M235.177 123.524L238.342 136.308C238.342 136.308 240.165 141.269 230.409 141.733L216.912 142.628L252.714 146.004C252.714 146.004 256.75 145.213 254.593 137.6L251.573 124.386L235.177 123.524Z" fill="#CDCDCD"/>
<path d="M216.913 145.142V142.628L238.026 142.051L251.573 124.386H254.305L257.76 139.824C257.76 139.824 259.699 149.235 251.932 148.696L216.913 145.142Z" fill="#9A9A9A"/>
<path d="M235.177 123.524L238.342 136.308C238.342 136.308 240.165 141.269 230.409 141.733L216.912 142.628L252.714 146.004C252.714 146.004 256.75 145.213 254.593 137.6L251.573 124.386L235.177 123.524Z" fill="#CDCDCD"/>
<path d="M216.913 145.142V142.628L238.026 142.051L251.573 124.386H254.305L257.76 139.824C257.76 139.824 259.699 149.235 251.932 148.696L216.913 145.142Z" fill="#9A9A9A"/>
<path d="M235.177 123.524L238.342 136.308C238.342 136.308 240.165 141.269 230.409 141.733L216.912 142.628L252.714 146.004C252.714 146.004 256.75 145.213 254.593 137.6L251.573 124.386L235.177 123.524Z" fill="#CDCDCD"/>
<path d="M216.913 145.142V142.628L238.026 142.051L251.573 124.386H254.305L257.76 139.824C257.76 139.824 259.699 149.235 251.932 148.696L216.913 145.142Z" fill="#9A9A9A"/>
<path d="M235.177 123.524L238.342 136.308C238.342 136.308 240.165 141.269 230.409 141.733L216.912 142.628L252.714 146.004C252.714 146.004 256.75 145.213 254.593 137.6L251.573 124.386L235.177 123.524Z" fill="#CDCDCD"/>
<path d="M216.913 145.142V142.628L238.026 142.051L251.573 124.386H254.305L257.76 139.824C257.76 139.824 259.699 149.235 251.932 148.696L216.913 145.142Z" fill="#9A9A9A"/>
<path d="M235.177 123.524L238.342 136.308C238.342 136.308 240.165 141.269 230.409 141.733L216.912 142.628L252.714 146.004C252.714 146.004 256.75 145.213 254.593 137.6L251.573 124.386L235.177 123.524Z" fill="#CDCDCD"/>
<path d="M216.913 145.142V142.628L238.026 142.051L251.573 124.386H254.305L257.76 139.824C257.76 139.824 259.699 149.235 251.932 148.696L216.913 145.142Z" fill="#9A9A9A"/>
<path d="M235.177 123.524L238.342 136.308C238.342 136.308 240.165 141.269 230.409 141.733L216.912 142.628L252.714 146.004C252.714 146.004 256.75 145.213 254.593 137.6L251.573 124.386L235.177 123.524Z" fill="#CDCDCD"/>
<path d="M216.913 145.142V142.628L238.026 142.051L251.573 124.386H254.305L257.76 139.824C257.76 139.824 259.699 149.235 251.932 148.696L216.913 145.142Z" fill="#9A9A9A"/>
<path d="M235.177 123.524L238.342 136.308C238.342 136.308 240.165 141.269 230.409 141.733L216.912 142.628L252.714 146.004C252.714 146.004 256.75 145.213 254.593 137.6L251.573 124.386L235.177 123.524Z" fill="#CDCDCD"/>
<path d="M216.913 145.142V142.628L238.026 142.051L251.573 124.386H254.305L257.76 139.824C257.76 139.824 259.699 149.235 251.932 148.696L216.913 145.142Z" fill="#9A9A9A"/>
<path d="M235.177 123.524L238.342 136.308C238.342 136.308 240.165 141.269 230.409 141.733L216.912 142.628L252.714 146.004C252.714 146.004 256.75 145.213 254.593 137.6L251.573 124.386L235.177 123.524Z" fill="#CDCDCD"/>
<path d="M216.913 145.142V142.628L238.026 142.051L251.573 124.386H254.305L257.76 139.824C257.76 139.824 259.699 149.235 251.932 148.696L216.913 145.142Z" fill="#9A9A9A"/>
<path d="M235.177 123.524L238.342 136.308C238.342 136.308 240.165 141.269 230.409 141.733L216.912 142.628L252.714 146.004C252.714 146.004 256.75 145.213 254.593 137.6L251.573 124.386L235.177 123.524Z" fill="#CDCDCD"/>
<path d="M216.913 145.142V142.628L238.026 142.051L251.573 124.386H254.305L257.76 139.824C257.76 139.824 259.699 149.235 251.932 148.696L216.913 145.142Z" fill="#9A9A9A"/>
<path d="M235.177 123.524L238.342 136.308C238.342 136.308 240.165 141.269 230.409 141.733L216.912 142.628L252.714 146.004C252.714 146.004 256.75 145.213 254.593 137.6L251.573 124.386L235.177 123.524Z" fill="#CDCDCD"/>
<path d="M216.913 145.142V142.628L238.026 142.051L251.573 124.386H254.305L257.76 139.824C257.76 139.824 259.699 149.235 251.932 148.696L216.913 145.142Z" fill="#9A9A9A"/>
<path d="M235.177 123.524L238.342 136.308C238.342 136.308 240.165 141.269 230.409 141.733L216.912 142.628L252.714 146.004C252.714 146.004 256.75 145.213 254.593 137.6L251.573 124.386L235.177 123.524Z" fill="#CDCDCD"/>
<path d="M216.913 145.142V142.628L238.026 142.051L251.573 124.386H254.305L257.76 139.824C257.76 139.824 259.699 149.235 251.932 148.696L216.913 145.142Z" fill="#9A9A9A"/>
<path d="M235.177 123.524L238.342 136.308C238.342 136.308 240.165 141.269 230.409 141.733L216.912 142.628L252.714 146.004C252.714 146.004 256.75 145.213 254.593 137.6L251.573 124.386L235.177 123.524Z" fill="#CDCDCD"/>
<path d="M216.913 145.142V142.628L238.026 142.051L251.573 124.386H254.305L257.76 139.824C257.76 139.824 259.699 149.235 251.932 148.696L216.913 145.142Z" fill="#9A9A9A"/>
<path d="M235.177 123.524L238.342 136.308C238.342 136.308 240.165 141.269 230.409 141.733L216.912 142.628L252.714 146.004C252.714 146.004 256.75 145.213 254.593 137.6L251.573 124.386L235.177 123.524Z" fill="#CDCDCD"/>
<path d="M216.913 145.142V142.628L238.026 142.051L251.573 124.386H254.305L257.76 139.824C257.76 139.824 259.699 149.235 251.932 148.696L216.913 145.142Z" fill="#9A9A9A"/>
<path d="M235.177 123.524L238.342 136.308C238.342 136.308 240.165 141.269 230.409 141.733L216.912 142.628L252.714 146.004C252.714 146.004 256.75 145.213 254.593 137.6L251.573 124.386L235.177 123.524Z" fill="#CDCDCD"/>
<path d="M216.913 145.142V142.628L238.026 142.051L251.573 124.386H254.305L257.76 139.824C257.76 139.824 259.699 149.235 251.932 148.696L216.913 145.142Z" fill="#9A9A9A"/>
<path d="M235.177 123.524L238.342 136.308C238.342 136.308 240.165 141.269 230.409 141.733L216.912 142.628L252.714 146.004C252.714 146.004 256.75 145.213 254.593 137.6L251.573 124.386L235.177 123.524Z" fill="#CDCDCD"/>
<path d="M216.913 145.142V142.628L238.026 142.051L251.573 124.386H254.305L257.76 139.824C257.76 139.824 259.699 149.235 251.932 148.696L216.913 145.142Z" fill="#9A9A9A"/>
<path d="M235.177 123.524L238.342 136.308C238.342 136.308 240.165 141.269 230.409 141.733L216.912 142.628L252.714 146.004C252.714 146.004 256.75 145.213 254.593 137.6L251.573 124.386L235.177 123.524Z" fill="#CDCDCD"/>
<path d="M216.913 145.142V142.628L238.026 142.051L251.573 124.386H254.305L257.76 139.824C257.76 139.824 259.699 149.235 251.932 148.696L216.913 145.142Z" fill="#9A9A9A"/>
<path d="M235.177 123.524L238.342 136.308C238.342 136.308 240.165 141.269 230.409 141.733L216.912 142.628L252.714 146.004C252.714 146.004 256.75 145.213 254.593 137.6L251.573 124.386L235.177 123.524Z" fill="#CDCDCD"/>
<path d="M216.913 145.142V142.628L238.026 142.051L251.573 124.386H254.305L257.76 139.824C257.76 139.824 259.699 149.235 251.932 148.696L216.913 145.142Z" fill="#9A9A9A"/>
<path d="M235.177 123.524L238.342 136.308C238.342 136.308 240.165 141.269 230.409 141.733L216.912 142.628L252.714 146.004C252.714 146.004 256.75 145.213 254.593 137.6L251.573 124.386L235.177 123.524Z" fill="#CDCDCD"/>
<path d="M233.596 128.225L257.47 129.736L256.413 124.996L233.596 123.524V128.225Z" fill="#D4EFF6"/>
<path d="M282.181 124.118C282.043 126.523 280.021 128.359 277.669 128.217L209.989 124.162C207.789 124.03 206.11 122.042 206.236 119.723L209.496 59.4275C209.622 57.0937 211.513 55.2495 213.724 55.3081L281.739 57.1075C284.105 57.1696 285.911 59.181 285.773 61.6002L282.181 124.118Z" fill="#9A9A9A"/>
<path d="M283.184 61.6006C283.322 59.1815 281.515 57.1692 279.15 57.1071L211.135 55.3085C208.924 55.2499 207.034 57.0942 206.907 59.4271L204.25 108.567L280.247 112.735L283.184 61.6006Z" fill="black"/>
<path d="M204.25 108.566L203.647 119.723C203.522 122.042 205.2 124.03 207.4 124.162L275.08 128.217C277.433 128.359 279.454 126.523 279.593 124.118L280.246 112.735L204.25 108.566Z" fill="#CDCDCD"/>
<path d="M202.777 292.511C202.238 293.265 201.806 294.989 202.13 296.066C202.993 298.436 206.121 298.113 207.955 297.682C213.456 296.174 218.957 293.912 224.134 291.65C227.694 290.034 231.253 288.849 234.813 287.233C236.215 286.694 238.696 285.725 238.696 283.786C238.696 282.17 236.862 281.631 235.676 281.739L202.777 292.511Z" fill="#858585"/>
<path d="M219.28 279.584C219.28 276.568 221.653 272.797 217.77 271.72C214.426 270.858 206.121 269.458 204.718 273.444C203.101 277.861 201.159 293.05 202.022 294.558C202.993 296.282 207.092 295.312 208.709 295.097C213.887 294.45 236.323 285.509 237.186 283.893C238.049 282.17 235.891 275.598 228.988 277.537C226.168 278.329 221.977 280.338 219.388 279.584H219.28Z" fill="#483D3D"/>
<path d="M208.817 265.903C208.925 268.812 208.602 272.474 207.739 275.167C209.896 276.568 213.348 276.352 215.613 275.491C215.074 272.366 215.936 268.704 216.152 265.795L208.817 265.903Z" fill="#DD9A63"/>
<path d="M181.528 49.6955C184.404 47.254 187.281 45.027 190.876 43.4473C193.968 42.1546 198.786 40.2871 202.094 41.7237C206.408 43.5912 204.467 48.1158 202.454 50.8443C199.649 54.507 187.281 64.3463 184.476 65.5675L181.528 49.6955Z" fill="#61C274"/>
<path d="M186.993 73.8263C187.424 74.7596 187.569 75.7653 188.359 76.6272C189.51 77.9914 190.66 78.3508 192.099 79.0687C194.04 80.0029 192.746 81.5826 191.02 81.8696C189.438 82.085 187.784 81.3671 186.633 80.2899C186.058 79.7874 185.339 78.9256 185.123 78.1353L186.993 73.8263Z" fill="#BB7A49"/>
<path d="M179.083 58.96C179.371 61.7609 179.443 64.2748 179.228 67.0757C179.012 69.8766 179.083 73.036 178.436 75.6938C177.07 75.5499 175.632 75.6214 174.266 75.5499C173.619 75.4783 172.324 75.119 171.82 75.4783C171.389 75.7653 171.389 76.4832 171.246 76.9865C170.383 79.7874 169.16 83.2347 167.506 85.6762C162.321 84.3817 156.715 84.243 151.5 82.9606C150.378 87.2611 148.288 91.0513 144.567 93.648L164.127 100.399C165.133 98.5319 166.284 95.6586 167.434 93.361C168.01 92.2113 168.441 90.3446 169.736 90.2007C170.454 90.2007 172.468 91.7804 173.043 92.0683C174.482 92.9301 175.776 94.0789 177.07 94.6537C178.939 95.5155 178.939 95.3716 180.665 93.9349C182.371 92.2311 185.661 88.5029 185.661 88.5029C185.661 88.5029 186.321 88.902 186.982 88.9313C186.55 87.2076 186.706 85.0298 186.706 83.1623C186.706 77.2735 188.431 71.5278 188.144 65.4951C188.067 62.3478 187.697 59.0384 186.804 55.9135C186.134 56.2151 185.5 56.5262 184.98 56.7339C183.038 57.5233 181.025 58.0982 179.083 58.96Z" fill="#DD9A63"/>
<path d="M186.676 71.4176C186.577 72.6465 186.241 73.6221 185.926 73.5971C185.611 73.5721 185.435 72.5543 185.534 71.3253C185.633 70.0964 185.97 69.1208 186.286 69.1467C186.6 69.1717 186.776 70.1886 186.676 71.4176Z" fill="black"/>
<path d="M179.586 84.24C179.586 84.24 179.695 84.3296 179.876 84.4951C179.964 84.5795 180.07 84.6812 180.192 84.7984C180.304 84.9277 180.462 85.0311 180.618 85.1526C180.776 85.2724 180.944 85.4 181.11 85.5422C181.298 85.6697 181.496 85.805 181.701 85.9446C182.096 86.2402 182.569 86.4953 183.009 86.7857C183.474 87.0434 183.922 87.3347 184.368 87.5657C184.59 87.682 184.798 87.8087 184.999 87.9259C185.206 88.0276 185.397 88.1345 185.575 88.2336C185.93 88.4396 186.234 88.5904 186.446 88.711C186.657 88.8308 186.777 88.9084 186.777 88.9084C186.777 88.9084 186.638 88.9015 186.395 88.8748C186.152 88.8455 185.798 88.811 185.396 88.6955C184.987 88.6033 184.52 88.4542 184.038 88.25C183.541 88.075 183.061 87.7803 182.564 87.5235C182.331 87.3657 182.099 87.2072 181.87 87.052C181.635 86.9064 181.434 86.7168 181.235 86.541C181.035 86.3652 180.848 86.1945 180.679 86.017C180.514 85.8257 180.369 85.6387 180.239 85.468C179.952 85.1397 179.848 84.8122 179.737 84.5942C179.637 84.3718 179.586 84.24 179.586 84.24Z" fill="#A25E29"/>
<path d="M164.557 44.9555C157.367 46.1043 150.319 51.4363 150.751 59.3366C151.215 66.4758 153.544 75.1284 151.501 82.9606C156.714 84.243 162.321 84.3817 167.506 85.6762C169.159 83.2347 170.382 79.7874 171.245 76.9865C171.389 76.4832 171.389 75.7653 171.821 75.4783C172.324 75.119 173.618 75.4783 174.265 75.5499C175.631 75.6214 177.07 75.5499 178.436 75.6938C179.083 73.036 179.011 69.8766 179.227 67.0757C179.443 64.2748 179.371 61.7609 179.083 58.96C181.024 58.0982 183.038 57.5233 184.98 56.7339C185.5 56.5262 186.133 56.2151 186.803 55.9135C186.025 53.1918 184.851 50.6099 183.11 48.4028C178.364 42.0831 171.461 43.9498 164.557 44.9555Z" fill="#6B2C3A"/>
<path d="M175.631 77.6329C175.631 75.5499 175.415 72.0311 172.395 72.6059C168.152 73.3953 167.649 80.4338 172.035 81.224C172.971 81.4395 173.689 81.1516 174.552 80.9362L175.631 77.6329Z" fill="#DD9A63"/>
<path d="M185.95 49.9109C183.254 45.171 179.37 42.2623 173.869 41.616C169.339 41.0774 164.269 42.0469 159.955 43.4473C154.562 45.2787 151.218 48.8337 150.786 54.6509C150.578 57.6371 150.353 60.7 150.732 63.6569C153.093 62.1556 157.597 61.2386 159.416 62.6227C162.143 64.5213 162.902 69.8292 162.286 73.7608C166.368 73.2264 170.348 71.6562 174.085 70.1636C178.508 68.5477 182.714 66.2854 186.597 63.5922C188 62.7304 188.323 62.4072 188.323 60.6836C188.323 59.4986 187.352 52.2809 185.95 49.9109Z" fill="#B7FFC0"/>
<path d="M162.448 70.9118C161.168 71.1246 159.816 71.3737 158.5 71.3737C156.757 71.3737 155.014 71.4797 153.272 71.2315C152.813 71.1608 152.364 71.0634 151.918 70.9497C151.913 71.7994 151.855 72.5389 151.65 72.6414V72.9646C153.915 74.2573 157.798 74.0419 160.387 73.9341C161.022 73.9057 161.655 73.8428 162.286 73.7609C162.427 72.862 162.492 71.8916 162.482 70.9066C162.471 70.9083 162.458 70.91 162.448 70.9118Z" fill="#61C274"/>
<path d="M211.298 214.59C210.58 220.191 209.141 225.793 207.991 231.251C206.408 238.577 206.408 246.046 205.545 253.371C205.114 257.536 204.971 262.133 203.532 266.011C215.109 271.612 224.098 265.868 224.098 265.868C224.098 265.868 225.968 258.541 223.85 257.315C220.111 255.735 226.255 248.917 226.831 246.476C227.838 242.885 224.745 241.09 225.465 237.355C227.334 228.45 230.858 223.495 232.584 214.446C233.303 210.855 234.885 204.535 231.577 201.949C228.701 199.652 223.667 199.077 220.215 198.502" fill="#1E4F8A"/>
<path d="M220.504 215.451C220.504 215.451 220.426 215.588 220.283 215.819C220.111 216.038 219.823 216.341 219.434 216.614C219.041 216.887 218.555 217.172 218.004 217.39C217.457 217.625 216.848 217.801 216.232 217.939C215.922 217.999 215.612 218.054 215.302 218.09C214.996 218.141 214.686 218.137 214.392 218.157C213.797 218.17 213.24 218.126 212.772 218.027C212.537 217.977 212.324 217.937 212.14 217.863C211.957 217.796 211.798 217.748 211.675 217.676C211.428 217.543 211.299 217.462 211.299 217.462C211.299 217.462 211.452 217.479 211.723 217.512C211.851 217.537 212.019 217.522 212.2 217.538C212.38 217.554 212.591 217.532 212.812 217.535C213.261 217.519 213.78 217.47 214.333 217.4C214.884 217.316 215.474 217.232 216.053 217.096C216.347 217.047 216.634 216.967 216.92 216.903C217.198 216.814 217.487 216.768 217.749 216.676C218.289 216.527 218.773 216.345 219.191 216.185C219.395 216.093 219.582 216.008 219.748 215.934C219.906 215.845 220.042 215.769 220.157 215.705C220.374 215.54 220.504 215.451 220.504 215.451Z" fill="#193252"/>
<path d="M159.631 283.893C159.092 284.647 158.66 286.371 158.984 287.448C159.847 289.818 162.975 289.495 164.809 289.064C170.31 287.556 175.811 285.294 180.988 283.031C184.548 281.416 188.107 280.231 191.667 278.615C193.069 278.076 195.55 277.106 195.55 275.167C195.55 273.551 193.716 273.013 192.53 273.121L159.631 283.893Z" fill="#767676"/>
<path d="M176.135 270.966C176.135 267.95 178.508 264.179 174.625 263.102C171.281 262.24 162.975 260.84 161.573 264.826C159.955 269.242 158.013 284.432 158.876 285.94C159.847 287.664 163.946 286.694 165.564 286.479C170.741 285.832 193.177 276.891 194.04 275.275C194.903 273.551 192.746 266.98 185.842 268.919C183.022 269.711 178.831 271.72 176.243 270.966H176.135Z" fill="#363232"/>
<path d="M165.672 257.285C165.78 260.193 165.456 263.856 164.593 266.549C166.751 267.95 170.202 267.734 172.467 266.872C171.928 263.748 172.791 260.086 173.007 257.177L165.672 257.285Z" fill="#CC9467"/>
<path d="M168.152 205.972C167.434 211.573 165.995 217.175 164.845 222.633C163.262 229.958 163.262 237.428 162.399 244.753C161.968 248.918 161.825 253.515 160.386 257.393C171.964 262.994 180.952 257.249 180.952 257.249C180.952 257.249 182.822 249.923 180.704 248.697C176.965 247.117 183.11 240.299 183.685 237.858C184.692 234.267 181.6 232.471 182.319 228.737C184.189 219.832 187.712 214.877 189.438 205.828C190.157 202.237 191.739 195.917 188.431 193.331C185.555 191.034 180.521 190.459 177.069 189.884" fill="#193252"/>
<path d="M178.323 232.836C178.323 232.836 178.213 232.951 178.022 233.15C177.821 233.34 177.559 233.631 177.179 233.915C176.801 234.201 176.349 234.546 175.83 234.828C175.569 234.968 175.312 235.143 175.025 235.262C174.743 235.392 174.455 235.523 174.168 235.655C173.577 235.873 172.989 236.104 172.421 236.254C171.857 236.422 171.324 236.543 170.862 236.633C169.943 236.82 169.307 236.867 169.307 236.867C169.307 236.867 169.857 236.543 170.71 236.162C171.564 235.776 172.707 235.316 173.839 234.859C174.4 234.621 174.966 234.393 175.484 234.154C175.741 234.031 176.007 233.939 176.235 233.818C176.468 233.7 176.694 233.599 176.904 233.505C177.326 233.317 177.672 233.119 177.924 233.011C178.178 232.899 178.323 232.836 178.323 232.836Z" fill="#091827"/>
<path d="M178.237 237.466C178.237 237.466 178.129 237.581 177.929 237.796C177.736 238.015 177.409 238.313 176.948 238.626C176.494 238.952 175.882 239.249 175.163 239.539C174.437 239.818 173.593 240.054 172.67 240.261C171.749 240.477 170.75 240.68 169.737 240.989C168.724 241.309 167.699 241.708 166.873 242.441C166.677 242.613 166.501 242.823 166.449 242.976C166.436 243.046 166.444 243.062 166.458 243.097C166.486 243.132 166.549 243.197 166.654 243.247C166.751 243.3 166.872 243.349 167.002 243.384C167.055 243.397 167.162 243.431 167.169 243.429L167.396 243.463L168.31 243.596C169.529 243.757 170.721 243.74 172.002 243.772C172.633 243.797 173.278 243.864 173.912 243.908C174.487 243.956 175.152 243.971 175.796 244.092C176.122 244.158 176.454 244.242 176.785 244.412C177.106 244.569 177.464 244.887 177.566 245.324C177.582 245.428 177.615 245.539 177.606 245.636L177.598 245.785L177.593 245.86L177.589 245.897L177.587 245.916C177.58 245.948 177.602 245.867 177.571 245.995L177.496 246.207C177.448 246.3 177.39 246.401 177.331 246.493C177.1 246.802 176.831 247.001 176.561 247.18C175.461 247.843 174.332 248.097 173.262 248.357C172.732 248.465 172.224 248.584 171.719 248.674C171.21 248.754 170.719 248.832 170.247 248.905C169.296 248.997 168.427 249.072 167.649 249.021C167.456 249.016 167.269 249.012 167.088 249.009C166.874 249.006 166.734 248.945 166.563 248.919C166.237 248.868 165.941 248.754 165.678 248.654C165.154 248.461 164.775 248.258 164.494 248.172C164.217 248.069 164.07 248.014 164.07 248.014C164.07 248.014 164.222 248.054 164.507 248.127C164.797 248.187 165.208 248.342 165.727 248.494C165.986 248.569 166.265 248.658 166.602 248.685C166.759 248.696 166.954 248.749 167.098 248.73C167.275 248.721 167.458 248.71 167.648 248.7C168.406 248.688 169.252 248.548 170.175 248.426C170.631 248.332 171.104 248.235 171.595 248.134C172.086 248.023 172.595 247.877 173.117 247.745C174.125 247.454 175.234 247.118 176.155 246.551C176.373 246.404 176.58 246.233 176.705 246.06C176.722 246.023 176.744 245.997 176.77 245.96L176.842 245.747C176.812 245.864 176.834 245.774 176.827 245.798V245.787V245.768L176.829 245.73L176.834 245.653C176.842 245.6 176.816 245.564 176.814 245.518C176.756 245.197 176.208 244.974 175.653 244.883C175.078 244.785 174.491 244.781 173.819 244.736C173.204 244.702 172.597 244.651 171.972 244.633C170.745 244.584 169.411 244.573 168.183 244.388L167.271 244.241L167.044 244.204C166.902 244.177 166.865 244.156 166.77 244.129C166.609 244.083 166.444 244.018 166.276 243.923C166.113 243.835 165.933 243.705 165.797 243.487C165.66 243.26 165.652 242.958 165.725 242.742C165.885 242.329 166.138 242.1 166.377 241.882C166.615 241.675 166.886 241.484 167.127 241.334C167.41 241.164 167.67 241.051 167.942 240.921C168.489 240.701 169.032 240.519 169.567 240.387C170.634 240.115 171.648 239.96 172.572 239.788C173.494 239.615 174.334 239.453 175.059 239.238C175.778 239.01 176.396 238.767 176.86 238.485C177.326 238.21 177.681 237.967 177.896 237.764C178.119 237.57 178.237 237.466 178.237 237.466Z" fill="#091827"/>
<path d="M163.21 252.216C163.21 252.216 163.471 252.262 163.921 252.363C164.146 252.409 164.421 252.436 164.73 252.48C165.041 252.521 165.403 252.527 165.785 252.571C166.561 252.605 167.463 252.635 168.428 252.592C168.912 252.586 169.409 252.542 169.913 252.503C170.419 252.48 170.926 252.389 171.436 252.336C171.939 252.243 172.453 252.198 172.941 252.071C173.187 252.018 173.431 251.966 173.672 251.914C173.908 251.848 174.142 251.783 174.372 251.718C174.84 251.604 175.258 251.417 175.677 251.282C176.066 251.095 176.458 250.946 176.785 250.756C177.097 250.546 177.434 250.404 177.659 250.192C177.89 249.99 178.141 249.847 178.271 249.663C178.565 249.325 178.752 249.129 178.752 249.129C178.752 249.129 178.635 249.36 178.401 249.768C178.299 249.986 178.081 250.171 177.876 250.43C177.676 250.702 177.367 250.906 177.055 251.17C176.735 251.421 176.35 251.632 175.946 251.867C175.525 252.05 175.093 252.298 174.609 252.44C174.135 252.613 173.639 252.772 173.123 252.883C172.613 253.023 172.081 253.085 171.556 253.189C171.024 253.235 170.495 253.318 169.97 253.332C169.447 253.369 168.93 253.365 168.43 253.349C167.931 253.354 167.45 253.289 166.995 253.253C166.54 253.204 166.112 253.128 165.721 253.059C164.939 252.903 164.299 252.679 163.867 252.521C163.447 252.334 163.21 252.216 163.21 252.216Z" fill="#091827"/>
<path d="M219.209 213.584C213.745 216.887 205.402 217.605 199.218 218.467C193.034 219.329 183.542 220.765 177.789 217.318C170.167 212.434 168.441 200.944 173.474 193.762C179.083 185.862 190.732 190.17 198.499 192.182C204.683 193.761 225.378 199.219 229.692 200.799" fill="#1E4F8A"/>
<path d="M189.726 146.506C193.896 148.086 198.211 148.947 202.669 148.23C205.258 147.799 209.717 145.069 211.874 145.5C213.024 145.788 220.072 151.964 219.928 152.826L220.072 152.97C217.052 154.406 213.599 155.124 210.436 156.417C208.134 157.279 204.251 159.002 201.662 158.284C200.225 157.853 199.937 156.273 198.786 155.411C197.492 154.549 195.91 154.693 194.472 154.406C191.883 153.975 189.438 153.257 186.85 152.97L189.726 146.506Z" fill="#BB7A49"/>
<path d="M188.575 157.853C189.006 153.544 191.019 148.517 192.171 144.351C187.856 144.351 183.541 144.208 179.658 142.053C178.364 145.07 178.364 148.373 177.644 151.389C177.501 152.538 176.207 157.135 176.062 157.135L188.575 157.853Z" fill="#FAB43D"/>
<path d="M210.867 153.759C216.045 152.682 221.006 150.635 226.184 149.127C231.793 147.619 238.265 145.357 244.089 146.757C246.462 147.296 249.159 148.804 250.993 150.312C251.856 151.066 255.631 156.56 252.071 155.375C253.15 156.56 250.13 156.991 249.267 156.776C248.404 159.146 243.658 155.699 242.471 155.052C239.559 153.652 238.48 155.052 235.892 156.453C233.519 157.745 231.361 159.146 228.773 159.9C225.752 160.869 224.566 159.469 221.869 158.823C218.31 157.961 214.535 160.546 211.622 160.438L210.867 153.759Z" fill="#DD9A63"/>
<path d="M113.573 148.373C113.573 141.479 113.358 134.8 113.573 127.905C113.789 120.149 112.711 106.791 118.104 100.542C123.713 94.5098 137.304 91.9243 145.286 92.3552C154.346 92.7861 164.27 96.0179 172.252 100.112C176.35 102.482 180.449 105.282 181.097 110.238C181.744 115.409 179.586 121.441 179.155 126.397C178.508 131.783 177.861 136.954 178.939 142.125C179.802 146.865 179.802 152.036 179.371 156.991C178.939 162.378 178.508 167.548 178.508 173.15C178.508 175.52 178.076 178.537 178.723 180.691C179.802 183.492 181.959 184.354 184.117 186.077C186.705 188.232 186.49 188.447 184.548 191.679C182.822 194.265 180.881 196.85 178.292 198.574C174.84 201.59 169.447 202.667 164.917 202.021C160.818 201.375 153.483 198.789 150.679 195.557L113.573 148.373Z" fill="#FFCB49"/>
<path d="M120.261 115.337C120.261 115.337 120.277 115.88 120.306 116.829C120.315 117.305 120.325 117.882 120.337 118.544C120.357 119.205 120.367 119.951 120.321 120.766C120.255 122.396 120.211 124.306 120.059 126.333C119.916 128.36 119.762 130.523 119.61 132.686C119.547 133.765 119.485 134.844 119.424 135.907C119.345 136.97 119.346 138.014 119.32 139.025C119.324 140.036 119.224 141.018 119.286 141.944C119.315 142.871 119.345 143.748 119.37 144.557C119.377 145.37 119.454 146.108 119.525 146.763C119.591 147.42 119.649 147.993 119.697 148.463C119.781 149.412 119.83 149.953 119.83 149.953C119.83 149.953 119.721 149.421 119.531 148.491C119.441 148.023 119.332 147.455 119.207 146.803C119.144 146.477 119.077 146.129 119.007 145.762C118.937 145.395 118.93 145.003 118.886 144.597C118.815 143.783 118.738 142.899 118.657 141.966C118.543 141.032 118.582 140.043 118.561 139.021C118.565 138 118.514 136.941 118.591 135.872C118.643 134.802 118.697 133.714 118.749 132.626C118.925 130.462 119.098 128.293 119.303 126.272C119.405 125.261 119.504 124.284 119.597 123.358C119.683 122.431 119.763 121.556 119.837 120.748C120 119.132 120.061 117.771 120.138 116.826C120.216 115.878 120.261 115.337 120.261 115.337Z" fill="#DD9A22"/>
<path d="M179.515 106.719C175.632 106.863 169.591 112.752 167.147 115.337C162.401 120.364 160.962 126.972 160.675 133.866C160.386 142.484 160.818 151.533 162.401 159.865C163.695 167.477 165.133 176.813 174.337 177.963C181.241 178.824 211.155 165.609 212.305 164.604C215.47 162.306 214.607 154.981 211.874 152.251C207.704 153.38 199.033 156.273 193.034 157.853C192.603 153.544 190.877 155.986 188.144 157.566C189.438 152.682 186.705 154.263 183.398 155.268C182.391 152.539 182.391 122.519 182.248 115.624C182.248 112.896 182.103 108.587 179.659 106.719H179.515Z" fill="#FFDF7B"/>
<path d="M167.057 42.9398C167.111 43.4552 165.787 44.0171 164.099 44.1963C162.411 44.3747 160.997 44.1033 160.943 43.5879C160.889 43.0725 162.213 42.5106 163.901 42.3314C165.589 42.153 167.002 42.4253 167.057 42.9398Z" fill="#61C274"/>
<path d="M185.053 66.2226C185.053 66.2226 185.053 66.1709 185.063 66.0916C185.081 66.0115 185.079 65.9046 185.15 65.79C185.216 65.6694 185.321 65.528 185.45 65.4341C185.574 65.3169 185.738 65.2574 185.898 65.1893L186.15 65.1437C186.232 65.1213 186.317 65.1428 186.395 65.1419C186.554 65.1471 186.697 65.1962 186.816 65.2488C187.052 65.3548 187.179 65.5151 187.179 65.5151C187.179 65.5142 187.015 65.6435 186.814 65.7435C186.609 65.8503 186.374 65.9494 186.146 66.0141C185.923 66.0839 185.685 66.1296 185.482 66.1546C185.375 66.164 185.262 66.2071 185.184 66.2114C185.105 66.2226 185.053 66.2226 185.053 66.2226Z" fill="#451C0C"/>
<path d="M221.469 241.454C221.469 241.454 221.36 241.569 221.167 241.768C220.967 241.958 220.706 242.249 220.325 242.533C219.947 242.819 219.496 243.164 218.976 243.446C218.715 243.586 218.458 243.761 218.17 243.88C217.888 244.01 217.601 244.141 217.313 244.273C216.723 244.491 216.136 244.722 215.567 244.872C215.003 245.04 214.469 245.161 214.008 245.251C213.089 245.438 212.453 245.485 212.453 245.485C212.453 245.485 213.002 245.162 213.857 244.78C214.71 244.395 215.853 243.934 216.985 243.477C217.546 243.239 218.112 243.012 218.629 242.772C218.887 242.649 219.153 242.557 219.381 242.436C219.614 242.318 219.839 242.218 220.05 242.123C220.472 241.935 220.817 241.737 221.07 241.629C221.324 241.517 221.469 241.454 221.469 241.454Z" fill="#193252"/>
<path d="M221.384 246.085C221.384 246.085 221.276 246.2 221.075 246.415C220.883 246.634 220.554 246.931 220.094 247.245C219.64 247.57 219.029 247.867 218.308 248.157C217.583 248.436 216.738 248.672 215.816 248.879C214.895 249.095 213.896 249.298 212.883 249.608C211.87 249.927 210.846 250.326 210.018 251.059C209.823 251.231 209.647 251.442 209.595 251.594C209.582 251.664 209.589 251.68 209.604 251.715C209.631 251.75 209.694 251.816 209.8 251.866C209.896 251.918 210.017 251.967 210.148 252.002C210.2 252.016 210.307 252.049 210.315 252.047L210.542 252.081L211.456 252.214C212.676 252.375 213.868 252.358 215.148 252.39C215.779 252.415 216.423 252.482 217.058 252.526C217.633 252.574 218.298 252.59 218.942 252.71C219.269 252.776 219.601 252.86 219.93 253.03C220.252 253.188 220.61 253.505 220.711 253.943C220.728 254.046 220.761 254.157 220.754 254.255L220.743 254.404L220.738 254.478L220.735 254.515L220.733 254.534C220.726 254.567 220.748 254.485 220.716 254.613L220.642 254.825C220.595 254.918 220.536 255.019 220.477 255.111C220.246 255.421 219.976 255.619 219.707 255.798C218.608 256.461 217.477 256.715 216.408 256.975C215.878 257.083 215.369 257.202 214.865 257.292C214.356 257.373 213.864 257.45 213.392 257.523C212.442 257.616 211.572 257.69 210.795 257.639C210.601 257.635 210.415 257.63 210.235 257.627C210.02 257.624 209.879 257.563 209.708 257.537C209.383 257.486 209.087 257.372 208.824 257.272C208.3 257.08 207.921 256.876 207.639 256.79C207.363 256.687 207.215 256.632 207.215 256.632C207.215 256.632 207.367 256.672 207.653 256.745C207.943 256.805 208.354 256.96 208.874 257.112C209.132 257.187 209.411 257.276 209.748 257.303C209.905 257.314 210.1 257.367 210.244 257.348C210.421 257.339 210.604 257.329 210.794 257.318C211.551 257.306 212.397 257.166 213.32 257.044C213.776 256.95 214.251 256.853 214.741 256.752C215.233 256.641 215.741 256.495 216.263 256.363C217.271 256.072 218.38 255.736 219.3 255.169C219.52 255.022 219.725 254.851 219.85 254.678C219.868 254.641 219.891 254.615 219.916 254.578L219.988 254.365C219.958 254.482 219.98 254.392 219.973 254.416V254.405V254.386L219.974 254.348L219.98 254.271C219.988 254.218 219.961 254.182 219.96 254.136C219.902 253.815 219.354 253.592 218.798 253.501C218.224 253.403 217.638 253.4 216.965 253.354C216.35 253.32 215.743 253.269 215.119 253.251C213.892 253.202 212.558 253.191 211.329 253.007L210.418 252.859L210.191 252.822C210.047 252.795 210.01 252.774 209.915 252.747C209.754 252.701 209.589 252.636 209.422 252.541C209.259 252.453 209.079 252.323 208.943 252.105C208.806 251.878 208.798 251.576 208.871 251.36C209.03 250.947 209.285 250.718 209.523 250.5C209.76 250.294 210.033 250.102 210.274 249.952C210.557 249.782 210.815 249.669 211.088 249.54C211.635 249.319 212.179 249.137 212.713 249.005C213.78 248.733 214.794 248.578 215.718 248.406C216.639 248.233 217.48 248.071 218.205 247.856C218.923 247.628 219.541 247.385 220.006 247.103C220.471 246.828 220.827 246.585 221.043 246.382C221.264 246.188 221.384 246.085 221.384 246.085Z" fill="#193252"/>
<path d="M206.356 260.834C206.356 260.834 206.617 260.88 207.067 260.981C207.292 261.027 207.567 261.054 207.876 261.098C208.187 261.139 208.549 261.145 208.931 261.189C209.707 261.223 210.609 261.253 211.574 261.21C212.058 261.204 212.554 261.16 213.059 261.121C213.565 261.098 214.072 261.007 214.583 260.955C215.085 260.861 215.599 260.816 216.087 260.689C216.333 260.637 216.577 260.584 216.818 260.532C217.055 260.466 217.288 260.401 217.518 260.337C217.985 260.222 218.404 260.035 218.823 259.901C219.212 259.713 219.604 259.564 219.932 259.374C220.244 259.164 220.579 259.022 220.805 258.81C221.036 258.608 221.287 258.466 221.417 258.281C221.712 257.943 221.898 257.747 221.898 257.747C221.898 257.747 221.781 257.978 221.548 258.386C221.445 258.604 221.226 258.789 221.023 259.048C220.822 259.32 220.513 259.524 220.202 259.788C219.882 260.039 219.496 260.25 219.092 260.485C218.671 260.668 218.238 260.917 217.755 261.058C217.281 261.231 216.785 261.391 216.27 261.501C215.759 261.641 215.227 261.703 214.702 261.807C214.17 261.853 213.641 261.936 213.116 261.95C212.593 261.987 212.075 261.984 211.576 261.967C211.077 261.972 210.596 261.907 210.141 261.871C209.686 261.822 209.258 261.747 208.867 261.678C208.085 261.521 207.445 261.298 207.013 261.139C206.593 260.952 206.356 260.834 206.356 260.834Z" fill="#193252"/>
<path d="M175.921 163.842C176.635 163.257 177.335 162.66 178.018 162.047C178.702 161.431 179.392 160.817 180.119 160.24L181.242 159.407L182.442 158.665L183.734 158.061L185.12 157.665L185.608 157.525L185.558 158.051L185.476 158.916C185.42 159.197 185.371 159.482 185.306 159.762C185.16 160.316 184.986 160.859 184.771 161.382C184.343 162.428 183.825 163.413 183.343 164.395C183.102 164.886 182.862 165.373 182.645 165.868C182.43 166.362 182.241 166.862 182.08 167.369C181.926 167.876 181.819 168.391 181.74 168.91L181.674 169.692L181.69 170.477L181.281 170.128C181.48 170.073 181.694 170.085 181.886 169.991C182.079 169.904 182.281 169.836 182.454 169.69L182.728 169.503L182.977 169.27C183.151 169.123 183.3 168.942 183.45 168.762C183.75 168.404 184.019 168.006 184.264 167.594C184.519 167.188 184.74 166.755 184.961 166.322C185.392 165.452 185.795 164.56 186.206 163.668C186.618 162.778 187.018 161.871 187.554 161.045C186.717 162.82 186.225 164.724 185.413 166.534C185.211 166.986 185.009 167.441 184.766 167.879C184.533 168.321 184.273 168.755 183.964 169.165C183.811 169.371 183.659 169.576 183.467 169.76L183.193 170.043L182.871 170.288C182.666 170.466 182.407 170.574 182.153 170.691C181.903 170.815 181.606 170.829 181.332 170.896L180.944 170.989L180.923 170.546L180.883 169.679C180.89 169.39 180.915 169.102 180.931 168.814C180.997 168.24 181.121 167.677 181.279 167.128C181.606 166.032 182.077 165.004 182.573 164.013C183.072 163.022 183.589 162.058 184.004 161.066C184.208 160.57 184.393 160.071 184.54 159.562L184.716 158.793L184.811 158.014L185.25 158.4L183.967 158.715L182.728 159.217L181.543 159.869L180.405 160.622C179.67 161.163 178.922 161.698 178.19 162.257L177.074 163.079C176.695 163.341 176.305 163.587 175.921 163.842Z" fill="#DD9A22"/>
<path d="M190.355 159.324C190.355 159.324 190.473 159.854 190.535 160.644C190.603 161.435 190.622 162.487 190.571 163.535C190.515 164.58 190.39 165.623 190.24 166.407C190.096 167.19 189.925 167.715 189.925 167.715C189.925 167.715 189.806 167.19 189.744 166.401C189.674 165.611 189.658 164.557 189.709 163.503C189.766 162.454 189.892 161.408 190.041 160.625C190.184 159.843 190.355 159.324 190.355 159.324Z" fill="#DD9A22"/>
<path d="M181.307 157.387C181.307 157.387 180.908 157.734 180.22 158.112C179.539 158.496 178.558 158.902 177.495 159.063C177.228 159.093 176.961 159.125 176.694 159.126C176.427 159.142 176.163 159.11 175.909 159.081C175.402 159.008 174.934 158.868 174.577 158.665C174.391 158.579 174.237 158.475 174.108 158.369C173.974 158.273 173.868 158.18 173.792 158.09C173.631 157.918 173.551 157.818 173.551 157.818C173.551 157.818 173.672 157.865 173.886 157.947C174.093 158.029 174.39 158.134 174.748 158.202C175.101 158.284 175.52 158.316 175.965 158.324C176.189 158.328 176.419 158.309 176.655 158.295C176.89 158.285 177.131 158.246 177.37 158.211C177.852 158.152 178.33 158.037 178.787 157.947C179.246 157.839 179.674 157.739 180.042 157.654C180.78 157.475 181.307 157.387 181.307 157.387Z" fill="#DD9A22"/>
<path d="M235.321 152.276C235.321 152.276 235.535 152.136 235.953 151.965C236.373 151.804 236.993 151.608 237.758 151.503C238.524 151.398 239.425 151.328 240.389 151.36C240.863 151.372 241.387 151.408 241.889 151.516C242.393 151.616 242.892 151.752 243.384 151.909C244.362 152.246 245.305 152.667 246.155 153.132C247.004 153.595 247.736 154.146 248.292 154.694C248.859 155.235 249.17 155.854 249.236 156.309C249.287 156.773 249.14 157.01 249.155 157.01C249.155 157.01 249.163 156.948 249.181 156.829C249.194 156.711 249.181 156.538 249.138 156.328C249.032 155.904 248.663 155.389 248.093 154.906C247.533 154.413 246.775 153.961 245.943 153.527C245.108 153.094 244.177 152.705 243.222 152.4C242.748 152.237 242.267 152.095 241.79 151.988C241.313 151.874 240.851 151.833 240.371 151.809C239.427 151.759 238.543 151.732 237.79 151.792C237.037 151.848 236.412 151.941 235.986 152.061C235.56 152.175 235.321 152.276 235.321 152.276Z" fill="#A25E29"/>
<path d="M235.229 150.031C235.229 150.031 235.527 149.978 236.049 149.887C236.576 149.806 237.32 149.665 238.227 149.562C238.68 149.509 239.172 149.458 239.697 149.424C240.22 149.394 240.777 149.357 241.352 149.393C241.928 149.406 242.521 149.47 243.122 149.558C243.73 149.668 244.323 149.815 244.911 149.999C246.077 150.384 247.205 150.873 248.215 151.427C249.224 151.978 250.092 152.63 250.759 153.268C251.425 153.91 251.847 154.577 252.048 155.072C252.156 155.318 252.206 155.525 252.236 155.663C252.261 155.803 252.276 155.878 252.276 155.878C252.276 155.878 252.207 155.577 251.96 155.115C251.721 154.647 251.236 154.067 250.563 153.482C249.888 152.894 248.993 152.341 248.002 151.821C247.009 151.3 245.895 150.843 244.754 150.491C244.188 150.305 243.607 150.147 243.04 150.034C242.466 149.939 241.891 149.864 241.331 149.842C240.772 149.803 240.227 149.802 239.711 149.801C239.194 149.805 238.705 149.826 238.252 149.851C236.438 149.959 235.229 150.031 235.229 150.031Z" fill="#A25E29"/>
<path d="M234.666 148.16C234.666 148.16 234.739 148.127 234.875 148.065C235.008 147.999 235.214 147.923 235.481 147.836C236.017 147.675 236.809 147.508 237.773 147.456C238.731 147.401 239.857 147.4 241.048 147.52C242.24 147.629 243.514 147.806 244.763 148.097C245.389 148.241 246.007 148.416 246.609 148.623C247.207 148.834 247.79 149.06 248.324 149.365C249.373 149.974 250.269 150.636 251.021 151.231C251.764 151.836 252.338 152.399 252.697 152.827C253.058 153.257 253.182 153.556 253.182 153.556C253.182 153.556 253.026 153.274 252.632 152.886C252.246 152.492 251.638 151.984 250.861 151.441C250.094 150.889 249.167 150.272 248.127 149.733C247.088 149.219 245.882 148.841 244.652 148.587C243.42 148.335 242.183 148.093 241.003 147.975C239.826 147.854 238.726 147.755 237.78 147.76C236.839 147.769 236.05 147.824 235.509 147.939C234.97 148.049 234.666 148.16 234.666 148.16Z" fill="#A25E29"/>
<path d="M207.528 296.21C207.936 298.422 206.47 300.546 204.254 300.952C202.038 301.36 199.912 299.895 199.504 297.684L186.162 224.214C185.756 222.001 187.22 219.878 189.436 219.469C191.652 219.062 193.778 220.528 194.185 222.74L207.528 296.21Z" fill="#C2934F"/>
<path d="M152.295 231.272L150.616 230.87L157.693 201.368L159.371 201.771L152.295 231.272Z" fill="#0E0C0C"/>
<path d="M134.233 285.369C133.709 287.557 135.058 289.755 137.25 290.278C139.441 290.804 141.642 289.454 142.167 287.267L156.265 228.505C156.79 226.316 155.439 224.118 153.249 223.591C151.058 223.069 148.856 224.418 148.332 226.605L134.233 285.369Z" fill="#C2934F"/>
<path d="M163.742 313.189C164.02 315.421 162.432 317.456 160.196 317.732C157.961 318.01 155.923 316.424 155.646 314.192L144.914 224.875C144.637 222.642 146.224 220.607 148.46 220.329C150.695 220.053 152.732 221.639 153.009 223.871L163.742 313.189Z" fill="#E7B05F"/>
<path d="M93.6761 301.744C93.1515 303.931 94.5011 306.13 96.6929 306.653C98.8838 307.178 101.085 305.829 101.61 303.642L122.413 218.833C122.938 216.644 121.587 214.446 119.397 213.92C117.206 213.397 115.004 214.746 114.479 216.934L93.6761 301.744Z" fill="#E7B05F"/>
<path d="M160.602 161.085C162.759 169.272 164.054 185.862 166.427 194.265C168.8 203.529 176.566 213.44 186.058 216.025C189.115 216.789 192.005 216.834 194.899 216.722C181.933 215.513 176.418 209.408 171.82 196.779C169.015 189.238 166.642 172.504 166.642 164.317C166.642 152.682 158.013 148.373 147.443 146.434C142.265 145.357 121.987 143.202 116.809 143.202C111.763 143.202 108.254 144.736 105.821 147.22C123.6 146.628 158.547 152.362 160.602 161.085Z" fill="#DCCACD"/>
<path d="M200.155 216.952C198.274 216.952 196.531 216.873 194.899 216.721C192.005 216.834 189.115 216.789 186.058 216.026C176.566 213.44 168.8 203.529 166.427 194.265C164.054 185.862 162.76 169.272 160.602 161.085C158.548 152.363 123.601 146.628 105.821 147.22C100.347 152.806 100.331 163.208 100.63 171.858C101.061 185 101.493 193.403 105.376 205.899C109.043 217.965 122.85 226.367 135.146 227.876C147.659 229.384 161.681 231.969 173.977 230.03C183.685 228.522 192.099 225.721 201.375 222.705C202.885 222.058 206.943 221.286 207.447 218.97C208.074 216.091 200.155 216.952 200.155 216.952Z" fill="#BCA8AA"/>
<path d="M292.49 59.3361V72.5426L304.139 73.5974V60.4677L292.49 59.3361Z" fill="#FFCB49"/>
<path d="M296.799 62.2436H298.863V57.0158H296.799V62.2436Z" fill="#FFEBBF"/>
<path d="M309.367 44.363V67.7328L330.741 69.6684V45.5782L309.367 44.363Z" fill="#FF9C52"/>
<path d="M317.065 42.7315V49.3976H320.054V42.2472L317.065 42.7315Z" fill="#FFEBBF"/>
<path d="M302.615 79.1133V100.343L320.054 102.102V80.2173L302.615 79.1133Z" fill="#FF5A5A"/>
<path d="M308.691 84.0207H311.846V77.3934H308.691V84.0207Z" fill="#FFEBBF"/>
<path d="M275.964 112.5L210.235 108.808C208.098 108.675 207 108.613 206.07 108.578L208.608 59.4888C208.634 58.389 209.336 56.9887 211.452 57.0381L278.935 58.7991C281.051 58.8486 281.486 60.3574 281.46 61.4573L278.257 112.613C277.101 112.559 275.912 112.497 275.964 112.5Z" fill="#544DB8"/>
<path d="M224.697 63.6236L219.846 63.5102C219.586 63.5042 219.382 63.2806 219.388 63.0114C219.395 62.7422 219.609 62.5285 219.869 62.5346L224.72 62.648C224.978 62.654 225.182 62.8775 225.176 63.1467C225.169 63.4159 224.955 63.6297 224.697 63.6236Z" fill="#00CCFF"/>
<path d="M254.734 64.3257L226.98 63.677C226.723 63.671 226.519 63.4474 226.525 63.1782C226.531 62.909 226.746 62.6953 227.003 62.7013L254.757 63.35C255.014 63.356 255.218 63.5796 255.212 63.8488C255.206 64.1179 254.991 64.3317 254.734 64.3257Z" fill="#00CCFF"/>
<path d="M235.787 65.9011L226.935 65.6942C226.677 65.6882 226.471 65.4646 226.477 65.1954C226.484 64.9263 226.7 64.7115 226.958 64.7175L235.809 64.9244C236.067 64.9304 236.273 65.1551 236.267 65.4243C236.261 65.6935 236.044 65.9072 235.787 65.9011Z" fill="#FF56A9"/>
<path d="M250.347 66.2415L237.589 65.9433C237.332 65.9373 237.126 65.7137 237.132 65.4445C237.138 65.1753 237.355 64.9605 237.612 64.9665L250.37 65.2647C250.627 65.2707 250.833 65.4954 250.827 65.7646C250.821 66.0338 250.604 66.2475 250.347 66.2415Z" fill="#E3EAFF"/>
<path d="M254.457 76.1633L226.704 75.5146C226.446 75.5086 226.242 75.2851 226.248 75.0159C226.255 74.7467 226.469 74.5329 226.726 74.5389L254.48 75.1876C254.737 75.1937 254.941 75.4172 254.935 75.6864C254.929 75.9556 254.715 76.1693 254.457 76.1633Z" fill="#E3EAFF"/>
<path d="M224.374 77.4784L219.522 77.365C219.262 77.3589 219.058 77.1354 219.065 76.8662C219.071 76.597 219.285 76.3833 219.545 76.3894L224.397 76.5028C224.654 76.5088 224.858 76.7323 224.852 77.0015C224.846 77.2707 224.631 77.4844 224.374 77.4784Z" fill="#00CCFF"/>
<path d="M235.51 77.7387L226.658 77.5318C226.401 77.5258 226.195 77.3022 226.201 77.033C226.207 76.7638 226.423 76.5501 226.681 76.5561L235.533 76.7631C235.791 76.7691 235.997 76.9927 235.99 77.2618C235.984 77.531 235.768 77.7447 235.51 77.7387Z" fill="#E3EAFF"/>
<path d="M250.07 78.079L237.313 77.7808C237.055 77.7748 236.849 77.5512 236.855 77.2821C236.861 77.0129 237.078 76.7992 237.335 76.8052L250.093 77.1034C250.35 77.1094 250.556 77.333 250.55 77.6022C250.544 77.8714 250.328 78.0851 250.07 78.079Z" fill="#FF56A9"/>
<path d="M261.522 68.5203L226.888 67.7108C226.628 67.7047 226.424 67.4812 226.43 67.212C226.437 66.9428 226.651 66.7291 226.911 66.7351L261.545 67.5447C261.803 67.5507 262.007 67.7742 262 68.0434C261.994 68.3126 261.78 68.5264 261.522 68.5203Z" fill="#FF56A9"/>
<path d="M254.215 70.3679L246.153 70.1795C245.879 70.173 245.659 70.0536 245.663 69.9108L245.674 69.4493C245.677 69.3065 245.903 69.1974 246.176 69.2038L254.238 69.3922C254.512 69.3986 254.729 69.518 254.726 69.6609L254.715 70.1223C254.712 70.2641 254.49 70.3743 254.215 70.3679Z" fill="#00CCFF"/>
<path d="M238.345 69.9969L226.84 69.728C226.582 69.722 226.376 69.4984 226.382 69.2292C226.389 68.9601 226.605 68.7463 226.863 68.7524L238.368 69.0213C238.625 69.0273 238.829 69.2508 238.823 69.52C238.817 69.7892 238.603 70.003 238.345 69.9969Z" fill="#E3EAFF"/>
<path d="M244.466 70.14L239.904 70.0334C239.646 70.0274 239.442 69.8038 239.448 69.5346C239.455 69.2655 239.669 69.0517 239.927 69.0577L244.489 69.1644C244.747 69.1704 244.953 69.394 244.946 69.6632C244.94 69.9323 244.724 70.146 244.466 70.14Z" fill="#00CCFF"/>
<path d="M224.51 71.6243L219.659 71.5109C219.399 71.5048 219.195 71.2813 219.201 71.0121C219.208 70.7429 219.422 70.5292 219.682 70.5353L224.533 70.6487C224.791 70.6547 224.995 70.8782 224.989 71.1474C224.982 71.4166 224.768 71.6303 224.51 71.6243Z" fill="#E3EAFF"/>
<path d="M261.429 72.4872L226.795 71.6777C226.535 71.6716 226.331 71.4481 226.338 71.1789C226.344 70.9097 226.558 70.696 226.818 70.702L261.452 71.5116C261.71 71.5176 261.914 71.7411 261.908 72.0103C261.901 72.2795 261.687 72.4933 261.429 72.4872Z" fill="#E3EAFF"/>
<path d="M224.33 79.3464L219.478 79.233C219.218 79.2269 219.014 79.0034 219.021 78.7342C219.027 78.465 219.241 78.2513 219.501 78.2573L224.353 78.3707C224.61 78.3768 224.814 78.6003 224.808 78.8695C224.802 79.1387 224.587 79.3524 224.33 79.3464Z" fill="#E3EAFF"/>
<path d="M257.374 80.1188L246.012 79.8532C245.691 79.8457 245.435 79.7045 245.439 79.5375L245.447 79.1661C245.451 78.9991 245.714 78.87 246.035 78.8775L257.396 79.1431C257.718 79.1506 257.974 79.2918 257.97 79.4588L257.962 79.8302C257.958 79.9972 257.695 80.1263 257.374 80.1188Z" fill="#E3EAFF"/>
<path d="M238.119 79.6687L226.614 79.3998C226.356 79.3938 226.15 79.1702 226.156 78.901C226.163 78.6318 226.379 78.4181 226.637 78.4241L238.142 78.693C238.399 78.699 238.603 78.9226 238.597 79.1918C238.591 79.461 238.377 79.6747 238.119 79.6687Z" fill="#E3EAFF"/>
<path d="M244.24 79.8118L239.678 79.7051C239.42 79.6991 239.216 79.4756 239.222 79.2064C239.229 78.9372 239.443 78.7234 239.701 78.7295L244.263 78.8361C244.52 78.8421 244.727 79.0657 244.72 79.3349C244.714 79.6041 244.498 79.8178 244.24 79.8118Z" fill="#E3EAFF"/>
<path d="M224.284 81.296L219.433 81.1826C219.173 81.1765 218.969 80.953 218.975 80.6838C218.982 80.4146 219.196 80.2009 219.456 80.2069L224.307 80.3203C224.565 80.3264 224.769 80.5499 224.763 80.8191C224.756 81.0883 224.542 81.302 224.284 81.296Z" fill="#FFC359"/>
<path d="M232.564 81.4895L226.568 81.3494C226.31 81.3434 226.104 81.1198 226.111 80.8506C226.117 80.5814 226.333 80.3677 226.591 80.3737L232.587 80.5139C232.845 80.5199 233.051 80.7435 233.044 81.0127C233.038 81.2819 232.822 81.4956 232.564 81.4895Z" fill="#00CCFF"/>
<path d="M219.612 73.5281C219.352 73.522 219.148 73.2985 219.154 73.0293C219.161 72.7601 219.375 72.5464 219.635 72.5524L224.486 72.6658C224.744 72.6719 224.948 72.8954 224.942 73.1646C224.935 73.4338 224.721 73.6475 224.463 73.6415" fill="#00CCFF"/>
<path d="M259.097 74.451L246.183 74.1492C245.841 74.1412 245.568 73.9908 245.572 73.8139L245.58 73.4799C245.584 73.303 245.864 73.1655 246.206 73.1735L259.12 73.4753C259.462 73.4833 259.735 73.6337 259.731 73.8106L259.723 74.1447C259.719 74.3215 259.439 74.459 259.097 74.451Z" fill="#E3EAFF"/>
<path d="M238.252 73.9638L226.747 73.6949C226.49 73.6889 226.283 73.4653 226.29 73.1961C226.296 72.9269 226.512 72.7132 226.77 72.7192L238.275 72.9881C238.533 72.9941 238.737 73.2177 238.73 73.4869C238.724 73.7561 238.51 73.9698 238.252 73.9638Z" fill="#FFC359"/>
<path d="M244.374 74.1069L239.812 74.0002C239.554 73.9942 239.35 73.7707 239.356 73.5015C239.362 73.2323 239.577 73.0185 239.834 73.0246L244.397 73.1312C244.654 73.1372 244.86 73.3608 244.854 73.63C244.848 73.8992 244.631 74.1129 244.374 74.1069Z" fill="#FFC359"/>
<path d="M254.272 84.0721L226.519 83.4234C226.261 83.4174 226.057 83.1939 226.063 82.9247C226.069 82.6555 226.284 82.4417 226.541 82.4478L254.295 83.0965C254.552 83.1025 254.756 83.326 254.75 83.5952C254.744 83.8644 254.529 84.0782 254.272 84.0721Z" fill="#E3EAFF"/>
<path d="M235.325 85.6471L226.473 85.4402C226.216 85.4342 226.01 85.2106 226.016 84.9414C226.022 84.6722 226.238 84.4585 226.496 84.4646L235.348 84.6715C235.606 84.6775 235.812 84.9011 235.805 85.1702C235.799 85.4394 235.583 85.6531 235.325 85.6471Z" fill="#E3EAFF"/>
<path d="M249.885 85.9874L237.128 85.6892C236.87 85.6832 236.664 85.4596 236.671 85.1905C236.677 84.9213 236.893 84.7076 237.151 84.7136L249.908 85.0118C250.166 85.0178 250.372 85.2414 250.366 85.5106C250.359 85.7797 250.143 85.9935 249.885 85.9874Z" fill="#E3EAFF"/>
<path d="M253.995 95.9097L226.242 95.261C225.984 95.2549 225.781 95.0314 225.787 94.7622C225.793 94.493 226.007 94.2793 226.265 94.2853L254.018 94.934C254.276 94.94 254.48 95.1636 254.474 95.4327C254.467 95.7019 254.253 95.9157 253.995 95.9097Z" fill="#E3EAFF"/>
<path d="M223.912 97.2249L219.061 97.1115C218.801 97.1054 218.597 96.8819 218.603 96.6127C218.609 96.3435 218.824 96.1297 219.083 96.1358L223.935 96.2492C224.193 96.2552 224.397 96.4788 224.39 96.748C224.384 97.0172 224.17 97.2309 223.912 97.2249Z" fill="#FF56A9"/>
<path d="M235.048 97.4852L226.196 97.2783C225.939 97.2722 225.733 97.0487 225.739 96.7795C225.745 96.5103 225.962 96.2966 226.219 96.3026L235.071 96.5095C235.329 96.5155 235.535 96.7391 235.529 97.0083C235.522 97.2775 235.306 97.4912 235.048 97.4852Z" fill="#00CCFF"/>
<path d="M249.608 97.8255L236.851 97.5273C236.594 97.5213 236.387 97.2977 236.394 97.0285C236.4 96.7593 236.616 96.5456 236.874 96.5517L249.631 96.8498C249.889 96.8559 250.095 97.0794 250.089 97.3486C250.082 97.6178 249.866 97.8315 249.608 97.8255Z" fill="#E3EAFF"/>
<path d="M224.142 87.404L219.29 87.2906C219.03 87.2845 218.826 87.061 218.833 86.7918C218.839 86.5226 219.053 86.3088 219.313 86.3149L224.165 86.4283C224.422 86.4343 224.626 86.6579 224.62 86.927C224.614 87.1962 224.399 87.41 224.142 87.404Z" fill="#FF56A9"/>
<path d="M251.199 88.0364L226.521 87.4596C226.21 87.4523 225.96 87.3146 225.964 87.1531L225.973 86.7641C225.977 86.6015 226.233 86.4767 226.544 86.4839L251.222 87.0607C251.532 87.068 251.785 87.2047 251.781 87.3673L251.772 87.7563C251.768 87.9178 251.509 88.0437 251.199 88.0364Z" fill="#FF56A9"/>
<path d="M224.094 89.4211L219.243 89.3077C218.983 89.3017 218.779 89.0781 218.785 88.8089C218.792 88.5397 219.006 88.326 219.266 88.3321L224.117 88.4455C224.375 88.4515 224.579 88.675 224.573 88.9442C224.566 89.2134 224.352 89.4272 224.094 89.4211Z" fill="#E3EAFF"/>
<path d="M237.884 89.7434L226.379 89.4745C226.121 89.4685 225.915 89.2449 225.921 88.9757C225.927 88.7065 226.144 88.4928 226.401 88.4988L237.906 88.7677C238.164 88.7738 238.368 88.9973 238.362 89.2665C238.355 89.5357 238.141 89.7494 237.884 89.7434Z" fill="#E3EAFF"/>
<path d="M244.005 89.8865L239.442 89.7799C239.185 89.7738 238.981 89.5503 238.987 89.2811C238.993 89.0119 239.207 88.7982 239.465 88.8042L244.027 88.9108C244.285 88.9168 244.491 89.1404 244.485 89.4096C244.479 89.6788 244.262 89.8925 244.005 89.8865Z" fill="#E3EAFF"/>
<path d="M224.049 91.3707L219.197 91.2573C218.938 91.2512 218.734 91.0277 218.74 90.7585C218.746 90.4893 218.96 90.2755 219.22 90.2816L224.072 90.395C224.329 90.401 224.533 90.6246 224.527 90.8938C224.521 91.163 224.307 91.3767 224.049 91.3707Z" fill="#E3EAFF"/>
<path d="M257.728 92.1579L226.498 91.4279C226.149 91.4198 225.868 91.2659 225.872 91.0846L225.879 90.7671C225.884 90.5847 226.172 90.4441 226.521 90.4523L257.751 91.1822C258.101 91.1904 258.381 91.3443 258.376 91.5266L258.369 91.8442C258.365 92.0255 258.078 92.1661 257.728 92.1579Z" fill="#E3EAFF"/>
<path d="M223.868 99.093L219.017 98.9796C218.757 98.9735 218.553 98.75 218.559 98.4808C218.566 98.2116 218.78 97.9978 219.04 98.0039L223.891 98.1173C224.149 98.1233 224.353 98.3468 224.347 98.616C224.34 98.8852 224.126 99.099 223.868 99.093Z" fill="#E3EAFF"/>
<path d="M260.75 99.955L245.438 99.5971C245.18 99.5911 244.974 99.3675 244.98 99.0983C244.986 98.8291 245.203 98.6154 245.46 98.6214L260.773 98.9794C261.031 98.9854 261.235 99.2089 261.229 99.4781C261.222 99.7473 261.008 99.9611 260.75 99.955Z" fill="#E3EAFF"/>
<path d="M237.657 99.4153L226.152 99.1464C225.895 99.1403 225.689 98.9167 225.695 98.6475C225.701 98.3784 225.918 98.1646 226.175 98.1707L237.68 98.4396C237.938 98.4456 238.142 98.6691 238.136 98.9383C238.129 99.2075 237.915 99.4213 237.657 99.4153Z" fill="#E3EAFF"/>
<path d="M243.779 99.5583L239.216 99.4517C238.959 99.4457 238.755 99.2221 238.761 98.953C238.767 98.6838 238.981 98.47 239.239 98.476L243.801 98.5827C244.059 98.5887 244.265 98.8123 244.259 99.0815C244.253 99.3507 244.036 99.5644 243.779 99.5583Z" fill="#E3EAFF"/>
<path d="M246.593 101.575L226.154 101.097C225.868 101.09 225.641 100.965 225.644 100.818L225.655 100.376C225.658 100.229 225.891 100.115 226.176 100.121L246.616 100.599C246.899 100.606 247.126 100.731 247.123 100.878L247.112 101.32C247.109 101.467 246.876 101.581 246.593 101.575Z" fill="#FFC359"/>
<path d="M259.45 94.2165L245.739 93.896C245.388 93.8878 245.106 93.7328 245.111 93.5504L245.118 93.2362C245.122 93.0538 245.411 92.9122 245.762 92.9204L259.473 93.2409C259.824 93.2491 260.106 93.404 260.101 93.5864L260.094 93.9007C260.09 94.0831 259.801 94.2247 259.45 94.2165Z" fill="#FF56A9"/>
<path d="M237.791 93.7103L226.286 93.4413C226.028 93.4353 225.822 93.2117 225.828 92.9426C225.835 92.6734 226.051 92.4597 226.309 92.4657L237.814 92.7346C238.071 92.7406 238.275 92.9642 238.269 93.2333C238.263 93.5025 238.048 93.7163 237.791 93.7103Z" fill="#FFC359"/>
<path d="M243.912 93.8533L239.35 93.7467C239.092 93.7407 238.888 93.5171 238.894 93.2479C238.901 92.9788 239.115 92.765 239.372 92.771L243.935 92.8777C244.192 92.8837 244.398 93.1073 244.392 93.3765C244.386 93.6456 244.17 93.8594 243.912 93.8533Z" fill="#FFC359"/>
</svg>
