<svg width="32" height="32" viewBox="0 0 32 32" fill="none" xmlns="http://www.w3.org/2000/svg">
<path fill-rule="evenodd" clip-rule="evenodd" d="M16 32C24.8366 32 32 24.8366 32 16C32 7.16344 24.8366 0 16 0C7.16344 0 0 7.16344 0 16C0 24.8366 7.16344 32 16 32ZM25.112 8.2H7.2245C5.537 8.2 4.6865 8.967 4.6865 10.527V21.473C4.6865 23.02 5.537 23.8 7.2245 23.8H25.112C26.7995 23.8 27.65 23.02 27.65 21.473V10.527C27.65 8.967 26.7995 8.2 25.112 8.2ZM25.2605 12.191L16.1615 19.38L7.076 12.191C6.752 11.931 6.4955 11.333 6.9005 10.8C7.292 10.267 8.0075 10.254 8.48 10.579L16.1615 15.597L23.8565 10.579C24.329 10.254 25.0445 10.267 25.436 10.8C25.841 11.333 25.5845 11.931 25.2605 12.191Z" fill="#E5E5E5"/>
</svg>
