<svg width="511" height="403" viewBox="0 0 511 403" fill="none" xmlns="http://www.w3.org/2000/svg">
<path class="rotate" fill-rule="evenodd" clip-rule="evenodd" d="M444.731 275.07C431.001 292.036 406.224 294.603 389.399 280.803C383.584 276.034 379.521 269.921 377.207 263.28L376.797 263.411L376.63 263.464C374.082 255.118 374.29 246.043 377.382 237.742C377.75 237.849 378.118 237.955 378.486 238.058C379.941 233.684 382.138 229.484 385.192 225.689C387.398 222.946 389.893 220.575 392.596 218.587C395.445 216.713 398.494 215.246 401.656 214.182C401.607 214.014 401.558 213.846 401.508 213.678C414.226 208.701 429.155 210.527 440.506 219.777C443.517 222.23 446.063 225.044 448.142 228.105C454.943 238.415 456.549 251.406 452.587 263.045C452.217 262.936 451.847 262.829 451.477 262.723C450.008 267.092 447.798 271.285 444.731 275.07ZM485.641 220.907C485.643 220.912 485.645 220.916 485.646 220.92L496.852 219.449C502.582 218.697 507.828 222.786 508.57 228.582L510.913 246.951C511.652 252.746 507.606 258.055 501.875 258.807L490.66 260.281C489.681 267.728 487.616 275.075 484.439 282.079L492.372 288.585C492.997 289.097 493.547 289.667 494.023 290.28C497.623 294.107 497.905 300.146 494.485 304.317L482.796 318.582C479.106 323.085 472.51 323.711 468.062 319.983L459.367 312.697C458.121 313.594 456.854 314.442 455.565 315.253C455.392 315.048 455.219 314.842 455.046 314.635C449.883 317.946 444.393 320.581 438.702 322.528L439.443 333.914C439.823 339.732 435.446 344.766 429.667 345.158L411.352 346.401C405.572 346.791 400.579 342.392 400.199 336.575L399.456 325.199C395.231 324.365 391.056 323.163 386.977 321.589C386.702 322.076 386.425 322.561 386.147 323.045C384.755 322.486 383.377 321.887 382.011 321.238L375.9 328.791C375.401 329.408 374.848 329.953 374.253 330.425C370.471 334.443 364.195 334.832 359.936 331.203L345.92 319.262C341.497 315.496 340.93 308.818 344.648 304.354L351.921 295.625C347.545 289.289 344.208 282.412 341.927 275.241L330.63 275.801C324.858 276.089 319.941 271.591 319.647 265.755L318.717 247.258C318.426 241.422 322.868 236.457 328.64 236.17L339.926 235.608C341.111 229.987 342.933 224.466 345.401 219.15L336.753 211.786C332.329 208.016 331.76 201.341 335.48 196.874L347.27 182.722C350.489 178.862 355.866 177.917 360.121 180.173C360.874 180.528 361.597 180.98 362.273 181.53L370.967 188.614C372.362 187.64 373.784 186.719 375.229 185.851C380.242 182.667 385.561 180.117 391.07 178.212L390.292 166.828C389.894 161.012 394.255 155.963 400.032 155.552L418.344 154.25C424.122 153.841 429.129 158.224 429.528 164.04L430.307 175.413C430.342 175.42 430.377 175.427 430.412 175.434C430.479 175.278 430.547 175.121 430.615 174.965C436.192 176.103 441.682 177.87 446.968 180.309L453.852 171.745C455.658 169.499 458.188 168.192 460.829 167.889C463.683 167.443 466.705 168.186 469.102 170.193L483.197 182.006C487.645 185.734 488.261 192.405 484.572 196.909L477.392 205.666C480.805 210.414 483.603 215.496 485.808 220.789C485.753 220.828 485.697 220.868 485.641 220.907Z" fill="#489AFF"/>
<g filter="url(#filter0_d)">
<path d="M388.082 340.18L51.2939 340.18C42.1553 340.18 34.7461 332.685 34.7461 323.441L34.7461 91.0769C34.7461 81.8329 42.1553 74.3383 51.2939 74.3383L388.082 74.3383C397.221 74.3383 404.63 81.8329 404.63 91.0769L404.63 323.441C404.63 332.685 397.221 340.18 388.082 340.18Z" fill="#E3EAFF"/>
</g>
<path d="M386.648 336.683L52.7283 336.683C45.4862 336.683 39.6128 330.742 39.6128 323.416L39.6128 91.1028C39.6128 83.7748 45.4862 77.8361 52.7283 77.8361L386.648 77.8361C393.89 77.8361 399.761 83.7748 399.761 91.1028L399.761 323.416C399.761 330.742 393.89 336.683 386.648 336.683Z" fill="#6DB8FF"/>
<path d="M376.108 313.841L63.2689 313.841C58.8047 313.841 55.1885 310.18 55.1885 305.667L55.1885 98.1913C55.1885 93.6757 58.8047 90.0177 63.2689 90.0177L376.108 90.0177C380.572 90.0177 384.19 93.6757 384.19 98.1913L384.19 305.667C384.19 310.18 380.572 313.841 376.108 313.841Z" fill="#2F6DFF"/>
<path d="M25.7655 326.396C24.7003 328.382 24.041 330.624 24.041 333.042C24.041 340.79 30.2488 347.072 37.9113 347.072L401.466 347.072C409.126 347.072 415.336 340.79 415.336 333.042C415.336 330.624 414.677 328.382 413.609 326.396L25.7655 326.396Z" fill="#E3EAFF"/>
<path d="M25.7651 339.689C28.1131 344.067 32.6417 347.072 37.9109 347.072L401.465 347.072C406.737 347.072 411.263 344.067 413.609 339.689L25.7651 339.689Z" fill="#C8D6F2"/>
<g opacity="0.199997">
<g opacity="0.199997">
<path opacity="0.199997" d="M388.083 74.3387L141.263 74.3387L141.263 241.183C141.263 244.873 144.22 247.864 147.87 247.864L404.631 247.864L404.631 91.0772C404.631 81.8333 397.221 74.3387 388.083 74.3387Z" fill="#424261"/>
</g>
</g>
<g opacity="0.210007">
<g opacity="0.210007">
<path opacity="0.210007" d="M432.672 240.349L156.949 240.349C153.302 240.349 150.345 237.36 150.345 233.668L150.345 61.6505C150.345 57.9611 153.302 54.97 156.949 54.97L432.672 54.97C436.319 54.97 439.279 57.9611 439.279 61.6505L439.279 233.668C439.279 237.36 436.319 240.349 432.672 240.349Z" fill="#E3EAFF"/>
</g>
</g>
<path d="M444.23 227.825L168.504 227.825C164.859 227.825 161.902 224.834 161.902 221.142L161.902 49.1267C161.902 45.4349 164.859 42.4438 168.504 42.4438L444.23 42.4438C447.877 42.4438 450.834 45.4349 450.834 49.1267L450.834 221.142C450.834 224.834 447.877 227.825 444.23 227.825Z" fill="#F9FBFC"/>
<g opacity="0.199997">
<g opacity="0.199997">
<path opacity="0.199997" d="M108.553 168.954L79.2455 168.954C76.9645 168.954 75.1182 167.084 75.1182 164.777L75.1182 133.464C75.1182 131.157 76.9645 129.29 79.2455 129.29L108.553 129.29C110.831 129.29 112.68 131.157 112.68 133.464L112.68 164.777C112.68 167.084 110.831 168.954 108.553 168.954Z" fill="#424261"/>
</g>
</g>
<path d="M106.387 226.572L77.0795 226.572C74.7985 226.572 72.9521 224.702 72.9521 222.395L72.9521 191.082C72.9521 188.775 74.7985 186.907 77.0795 186.907L106.387 186.907C108.666 186.907 110.514 188.775 110.514 191.082L110.514 222.395C110.514 224.702 108.666 226.572 106.387 226.572Z" fill="#6DB8FF"/>
<path d="M106.387 282.937L77.0795 282.937C74.7985 282.937 72.9521 281.067 72.9521 278.759L72.9521 247.447C72.9521 245.14 74.7985 243.272 77.0795 243.272L106.387 243.272C108.666 243.272 110.514 245.14 110.514 247.447L110.514 278.759C110.514 281.067 108.666 282.937 106.387 282.937Z" fill="#6DB8FF"/>
<path d="M99.9405 258.736C99.9405 253.749 95.9421 249.705 91.0122 249.705C86.0798 249.705 82.0814 253.749 82.0814 258.736C82.0814 258.736 80.825 268.301 91.0122 275.907C101.197 268.301 99.9405 258.736 99.9405 258.736Z" fill="#9570EE"/>
<path d="M91.5352 265.255C87.5511 265.574 84.2501 262.235 84.563 258.205C84.8115 255.035 87.3505 252.464 90.4866 252.215C94.4707 251.899 97.7693 255.238 97.4564 259.266C97.208 262.438 94.669 265.004 91.5352 265.255Z" fill="#F9FBFC"/>
<path d="M103.186 206.215C103.186 213.115 97.6566 218.711 90.835 218.711C84.0133 218.711 78.4814 213.115 78.4814 206.215C78.4814 199.317 84.0133 193.721 90.835 193.721C97.6566 193.721 103.186 199.317 103.186 206.215Z" fill="#9570EE"/>
<path d="M100.796 206.215C100.796 211.781 96.3365 216.292 90.8357 216.292C85.3325 216.292 80.873 211.781 80.873 206.215C80.873 200.651 85.3325 196.14 90.8357 196.14C96.3365 196.14 100.796 200.651 100.796 206.215Z" fill="#F9FBFC"/>
<path d="M90.8368 196.14C95.3511 196.14 99.1608 199.177 100.386 203.342C100.436 203.516 100.589 203.637 100.766 203.637C101.033 203.637 101.227 203.379 101.15 203.122C99.8344 198.619 95.7142 195.333 90.8368 195.333C85.957 195.333 81.8392 198.619 80.5231 203.122C80.4443 203.379 80.6378 203.637 80.9053 203.637C81.0821 203.637 81.2349 203.516 81.2875 203.342C82.5104 199.177 86.3201 196.14 90.8368 196.14Z" fill="#BB87EE"/>
<path d="M101.884 206.538C101.292 206.538 100.781 206.975 100.704 207.57C100.047 212.494 95.8795 216.292 90.8349 216.292C85.7879 216.292 81.6199 212.494 80.9655 207.57C80.8866 206.975 80.3755 206.538 79.7831 206.538C79.0642 206.538 78.5005 207.178 78.596 207.896C79.4105 214.001 84.5769 218.71 90.8349 218.71C97.0905 218.71 102.259 214.001 103.071 207.896C103.167 207.178 102.603 206.538 101.884 206.538Z" fill="#7F57EE"/>
<path d="M100.796 206.215C100.796 211.781 96.3365 216.292 90.8357 216.292C85.3325 216.292 80.873 211.781 80.873 206.215C80.873 200.651 85.3325 196.14 90.8357 196.14C96.3365 196.14 100.796 200.651 100.796 206.215Z" fill="#F9FBFC"/>
<path d="M100.544 209.466C100.376 209.466 100.226 209.575 100.169 209.734C98.7569 213.564 95.112 216.291 90.8365 216.291C86.5586 216.291 82.9113 213.564 81.4997 209.734C81.4424 209.575 81.2919 209.466 81.1247 209.466C80.8476 209.466 80.6518 209.746 80.7497 210.012C82.2712 214.148 86.2123 217.096 90.8365 217.096C95.4559 217.096 99.3994 214.148 100.921 210.012C101.016 209.746 100.821 209.466 100.544 209.466Z" fill="#9570EE"/>
<path d="M90.8083 207.102C90.5455 207.102 90.3306 206.885 90.3306 206.619L90.3306 199.523C90.3306 199.257 90.5455 199.042 90.8083 199.042C91.071 199.042 91.286 199.257 91.286 199.523L91.286 206.619C91.286 206.885 91.071 207.102 90.8083 207.102Z" fill="#9570EE"/>
<path d="M90.4628 206.349C90.6324 206.146 90.9358 206.12 91.1364 206.294L95.4644 209.99C95.6651 210.162 95.6889 210.469 95.5194 210.672C95.3498 210.877 95.0488 210.901 94.8458 210.727L90.5201 207.031C90.3171 206.859 90.2932 206.555 90.4628 206.349Z" fill="#9570EE"/>
<path d="M90.9149 197.793H90.5566V196.826H90.9149V197.793Z" fill="#CED6FF"/>
<path d="M90.9149 215.445H90.5566V214.478H90.9149V215.445Z" fill="#CED6FF"/>
<path d="M82.4882 206.317H81.5327V205.954H82.4882V206.317Z" fill="#CED6FF"/>
<path d="M99.9393 206.317H98.9839V205.954H99.9393V206.317Z" fill="#CED6FF"/>
<path d="M85.0301 200.106L84.7769 200.362L84.0986 199.679L84.3542 199.422L85.0301 200.106Z" fill="#CED6FF"/>
<path d="M97.3715 212.59L97.1183 212.846L96.4399 212.162L96.6955 211.906L97.3715 212.59Z" fill="#CED6FF"/>
<path d="M84.7755 211.906L85.0287 212.162L84.3528 212.848L84.0996 212.59L84.7755 211.906Z" fill="#CED6FF"/>
<path d="M97.1168 199.422L97.37 199.678L96.6941 200.364L96.4409 200.106L97.1168 199.422Z" fill="#CED6FF"/>
<path d="M106.387 167.701L77.0795 167.701C74.7985 167.701 72.9521 165.834 72.9521 163.524L72.9521 132.212C72.9521 129.907 74.7985 128.037 77.0795 128.037L106.387 128.037C108.666 128.037 110.514 129.907 110.514 132.212L110.514 163.524C110.514 165.834 108.666 167.701 106.387 167.701Z" fill="#6DB8FF"/>
<path d="M71.1464 163.631L74.2419 161.44L75.6345 156.272L74.0867 155.958L73.1599 157.838L74.0867 148.913L72.5389 149.227L70.9935 157.838L69.1328 161.909L70.8359 163.003" fill="#F7D3A9"/>
<path d="M89.4619 172.921L89.8751 169.161L94.4157 164.571L95.4476 166.03L93.7947 167.91L102.463 165.822V167.702L94.4157 170.833L92.7653 173.757L89.4619 172.921Z" fill="#F7D3A9"/>
<path d="M32.9517 265.819L49.8339 349.36L62.6102 347.975L53.9422 344.745L57.1356 343.822L52.5735 265.819H32.9517Z" fill="#544DB8"/>
<path d="M59.8742 264.436C59.8742 264.436 81.3209 284.743 78.1251 309.204C74.473 328.59 66.7174 335.974 66.7174 335.974L64.4363 335.515L67.9738 344.976L57.7054 333.898C57.7054 333.898 70.3695 316.244 62.4969 297.899C54.6266 279.551 37.5151 272.972 37.5151 272.972C37.5151 272.972 52.2309 259.473 53.2556 259.819C54.2827 260.164 59.8742 264.436 59.8742 264.436Z" fill="#544DB8"/>
<path d="M68.9983 160.472C68.9983 160.472 33.7506 203.741 29.6423 212.396C29.6423 212.396 27.9321 215.51 27.9321 224.512C27.9321 233.51 31.011 266.743 31.011 266.743L66.9465 268.821C66.9465 268.821 55.3096 228.318 54.968 227.279C54.6241 226.242 48.808 220.011 43.331 218.624L73.4458 163.586L68.9983 160.472Z" fill="#FF8B40"/>
<path d="M46.6791 214.447C46.6791 214.447 48.1767 218.938 49.0031 221.656C49.0031 221.656 41.6679 221.499 39.0859 218.052L41.8232 211.417L46.6791 214.447Z" fill="#F7D3A9"/>
<path d="M52.2556 200.403C52.2556 200.403 54.4244 213.182 52.2556 216.086C50.0868 218.99 42.6513 214.052 39.551 209.408C36.4507 204.76 35.832 194.305 41.1011 193.433C46.3679 192.561 51.016 195.755 52.2556 200.403Z" fill="#F7D3A9"/>
<path d="M48.921 224.059C48.921 224.059 77.1821 206.078 79.4608 202.387C81.7395 198.7 88.1216 171.265 88.1216 171.265L93.5914 172.65C93.5914 172.65 90.4003 203.31 89.4879 206.537C88.5755 209.765 60.7705 239.734 54.3907 239.734C48.0085 239.734 45.7299 231.435 48.921 224.059Z" fill="#FF8B40"/>
<path d="M37.0421 194.005C37.0421 194.005 40.7562 188.786 47.3606 190.038C53.9649 191.292 55.6153 189.83 55.6153 189.83C55.6153 189.83 54.1727 197.136 49.6321 198.805C45.0914 200.477 43.8518 200.059 43.8518 200.059C43.8518 200.059 46.3287 202.565 46.9473 204.442C47.5684 206.322 44.8836 202.147 43.8518 203.609C42.8199 205.068 43.8518 208.202 45.9155 207.991C47.9816 207.784 46.7419 209.453 45.9155 211.123C45.0914 212.792 43.8518 214.882 42.6145 214.254C41.3749 213.628 37.0421 211.123 35.3916 205.904C33.7411 200.685 33.3279 195.674 37.0421 194.005Z" fill="#544DB8"/>
<path d="M263.235 209.662L182.746 209.662C181.036 209.662 179.65 208.26 179.65 206.531L179.65 64.9918C179.65 63.2619 181.036 61.8605 182.746 61.8605L263.235 61.8605C264.945 61.8605 266.33 63.2619 266.33 64.9918L266.33 206.531C266.33 208.26 264.945 209.662 263.235 209.662Z" fill="#E3EAFF"/>
<path d="M248.169 86.285L196.985 86.285C195.619 86.285 194.51 85.164 194.51 83.7796L194.51 76.2656C194.51 74.8812 195.619 73.7577 196.985 73.7577L248.169 73.7577C249.535 73.7577 250.646 74.8812 250.646 76.2656L250.646 83.7796C250.646 85.164 249.535 86.285 248.169 86.285Z" fill="#6DB8FF"/>
<path d="M213.293 155.904L202.146 155.904C199.523 155.904 197.4 153.756 197.4 151.106C197.4 148.455 199.523 146.305 202.146 146.305H213.293C215.914 146.305 218.037 148.455 218.037 151.106C218.037 153.756 215.914 155.904 213.293 155.904Z" fill="#6DB8FF"/>
<path d="M245.487 155.904L234.339 155.904C231.719 155.904 229.596 153.756 229.596 151.106C229.596 148.455 231.719 146.305 234.339 146.305H245.487C248.109 146.305 250.233 148.455 250.233 151.106C250.233 153.756 248.109 155.904 245.487 155.904Z" fill="#9570EE"/>
<path d="M253.534 108.412L193.273 108.412L193.273 98.8081L253.534 98.8081L253.534 108.412Z" fill="#F9FBFC"/>
<path d="M253.534 124.696L193.273 124.696L193.273 115.092L253.534 115.092L253.534 124.696Z" fill="#F9FBFC"/>
<path d="M240.946 132.943L206.274 132.943V130.749L240.946 130.749V132.943Z" fill="#CDD4FF"/>
<path d="M444.954 182.313L336.605 182.313C329.936 182.313 324.531 176.846 324.531 170.1C324.531 163.357 329.936 157.889 336.605 157.889L444.954 157.889C451.62 157.889 457.028 163.357 457.028 170.1C457.028 176.846 451.62 182.313 444.954 182.313Z" fill="#9570EE"/>
<path d="M351.154 78.769L283.666 78.769C278.196 78.769 273.76 74.2848 273.76 68.7495C273.76 63.2143 278.196 58.73 283.666 58.73L351.154 58.73C356.623 58.73 361.059 63.2143 361.059 68.7495C361.059 74.2848 356.623 78.769 351.154 78.769Z" fill="#E3EAFF"/>
<path d="M299.765 68.7495C299.765 70.477 298.377 71.8807 296.667 71.8807C294.957 71.8807 293.572 70.477 293.572 68.7495C293.572 67.0196 294.957 65.6183 296.667 65.6183C298.377 65.6183 299.765 67.0196 299.765 68.7495Z" fill="#FFC240"/>
<path d="M321.023 68.7495C321.023 70.477 319.637 71.8807 317.927 71.8807C316.217 71.8807 314.829 70.477 314.829 68.7495C314.829 67.0196 316.217 65.6183 317.927 65.6183C319.637 65.6183 321.023 67.0196 321.023 68.7495Z" fill="#90C240"/>
<path d="M340.627 68.7495C340.627 70.477 339.242 71.8807 337.532 71.8807C335.821 71.8807 334.436 70.477 334.436 68.7495C334.436 67.0196 335.821 65.6183 337.532 65.6183C339.242 65.6183 340.627 67.0196 340.627 68.7495Z" fill="#EB4F24"/>
<path d="M98.843 150.309C98.843 154.522 95.468 157.936 91.3023 157.936C87.1391 157.936 83.7617 154.522 83.7617 150.309C83.7617 146.095 87.1391 142.681 91.3023 142.681C95.468 142.681 98.843 146.095 98.843 150.309Z" fill="white"/>
<path d="M91.4167 155.935C88.3594 155.935 85.8777 153.427 85.8777 150.332C85.8777 147.237 88.3594 144.729 91.4167 144.729C94.4764 144.729 96.9557 147.237 96.9557 150.332C96.9557 153.427 94.4764 155.935 91.4167 155.935ZM99.1198 141.097H97.7917L95.8809 138.377C95.7328 138.162 95.4868 138.034 95.2264 138.034H87.607C87.3467 138.034 87.103 138.162 86.9526 138.377L85.0441 141.097H83.7137C81.6476 141.097 79.9565 142.808 79.9565 144.898L79.9565 155.956C79.9565 158.046 81.6476 159.757 83.7137 159.757L99.1198 159.757C101.188 159.757 102.877 158.046 102.877 155.956L102.877 144.898C102.877 142.808 101.188 141.097 99.1198 141.097Z" fill="#9570EE"/>
<path d="M95.0781 150.332C95.0781 152.379 93.4372 154.036 91.4165 154.036C89.3934 154.036 87.7549 152.379 87.7549 150.332C87.7549 148.286 89.3934 146.629 91.4165 146.629C93.4372 146.629 95.0781 148.286 95.0781 150.332Z" fill="#6DB8FF"/>
<path d="M360.956 143.417L304.302 143.417C301.605 143.417 299.419 141.204 299.419 138.476L299.419 104.226C299.419 101.495 301.605 99.2846 304.302 99.2846L360.956 99.2846C363.652 99.2846 365.84 101.495 365.84 104.226L365.84 138.476C365.84 141.204 363.652 143.417 360.956 143.417Z" fill="#E3EAFF"/>
<path d="M332.693 121.01H332.562C332.266 121.01 331.974 120.933 331.716 120.788L306.114 106.4C305.273 105.927 304.967 104.854 305.435 103.999C305.903 103.148 306.966 102.839 307.81 103.315L332.629 117.261L357.448 103.315C358.291 102.839 359.352 103.146 359.82 103.999C360.291 104.854 359.987 105.927 359.142 106.4L333.539 120.788C333.281 120.933 332.99 121.01 332.693 121.01Z" fill="#FD4940"/>
<path d="M458.884 138.893L385.204 138.893C382.811 138.893 380.872 136.931 380.872 134.51L380.872 35.5544C380.872 33.1359 382.811 31.1716 385.204 31.1716L458.884 31.1716C461.277 31.1716 463.217 33.1359 463.217 35.5544L463.217 134.51C463.217 136.931 461.277 138.893 458.884 138.893Z" fill="#544DB8"/>
<path d="M399.27 45.6116L393.784 45.6116C393.49 45.6116 393.253 45.1308 393.253 44.5388C393.253 43.9469 393.49 43.4661 393.784 43.4661L399.27 43.4661C399.562 43.4661 399.798 43.9469 399.798 44.5388C399.798 45.1308 399.562 45.6116 399.27 45.6116Z" fill="#00CCFF"/>
<path d="M433.237 45.6116L401.852 45.6116C401.561 45.6116 401.324 45.1308 401.324 44.5388C401.324 43.9469 401.561 43.4661 401.852 43.4661L433.237 43.4661C433.529 43.4661 433.765 43.9469 433.765 44.5388C433.765 45.1308 433.529 45.6116 433.237 45.6116Z" fill="#00CCFF"/>
<path d="M411.864 50.0474L401.853 50.0474C401.562 50.0474 401.323 49.5666 401.323 48.9746C401.323 48.3827 401.562 47.8995 401.853 47.8995L411.864 47.8995C412.155 47.8995 412.394 48.3827 412.394 48.9746C412.394 49.5666 412.155 50.0474 411.864 50.0474Z" fill="#FF56A9"/>
<path d="M428.329 50.0474L413.902 50.0474C413.61 50.0474 413.372 49.5666 413.372 48.9746C413.372 48.3827 413.61 47.8995 413.902 47.8995L428.329 47.8995C428.62 47.8995 428.859 48.3827 428.859 48.9746C428.859 49.5666 428.62 50.0474 428.329 50.0474Z" fill="#E3EAFF"/>
<path d="M433.237 71.6422L401.852 71.6422C401.561 71.6422 401.324 71.1614 401.324 70.5695C401.324 69.9775 401.561 69.4967 401.852 69.4967L433.237 69.4967C433.529 69.4967 433.765 69.9775 433.765 70.5695C433.765 71.1614 433.529 71.6422 433.237 71.6422Z" fill="#E3EAFF"/>
<path d="M399.27 76.078L393.784 76.078C393.49 76.078 393.253 75.5972 393.253 75.0053C393.253 74.4133 393.49 73.9326 393.784 73.9326L399.27 73.9326C399.562 73.9326 399.798 74.4133 399.798 75.0053C399.798 75.5972 399.562 76.078 399.27 76.078Z" fill="#00CCFF"/>
<path d="M411.864 76.078L401.853 76.078C401.562 76.078 401.323 75.5972 401.323 75.0053C401.323 74.4133 401.562 73.9326 401.853 73.9326L411.864 73.9326C412.155 73.9326 412.394 74.4133 412.394 75.0053C412.394 75.5972 412.155 76.078 411.864 76.078Z" fill="#E3EAFF"/>
<path d="M428.329 76.078L413.902 76.078C413.61 76.078 413.372 75.5972 413.372 75.0053C413.372 74.4133 413.61 73.9326 413.902 73.9326L428.329 73.9326C428.62 73.9326 428.859 74.4133 428.859 75.0053C428.859 75.5972 428.62 76.078 428.329 76.078Z" fill="#FF56A9"/>
<path d="M441.021 54.4818L401.853 54.4818C401.56 54.4818 401.323 54.001 401.323 53.4091C401.323 52.8172 401.56 52.3364 401.853 52.3364L441.021 52.3364C441.312 52.3364 441.548 52.8172 441.548 53.4091C441.548 54.001 441.312 54.4818 441.021 54.4818Z" fill="#FF56A9"/>
<path d="M432.81 58.9177L423.693 58.9177C423.383 58.9177 423.132 58.6665 423.132 58.3524V57.3376C423.132 57.0235 423.385 56.7723 423.693 56.7723L432.81 56.7723C433.121 56.7723 433.369 57.0235 433.369 57.3376V58.3524C433.369 58.664 433.121 58.9177 432.81 58.9177Z" fill="#00CCFF"/>
<path d="M414.864 58.9177L401.854 58.9177C401.562 58.9177 401.323 58.4369 401.323 57.845C401.323 57.253 401.562 56.7723 401.854 56.7723L414.864 56.7723C415.156 56.7723 415.392 57.253 415.392 57.845C415.392 58.4369 415.156 58.9177 414.864 58.9177Z" fill="#E3EAFF"/>
<path d="M421.785 58.9177L416.626 58.9177C416.335 58.9177 416.098 58.4369 416.098 57.845C416.098 57.253 416.335 56.7723 416.626 56.7723L421.785 56.7723C422.077 56.7723 422.316 57.253 422.316 57.845C422.316 58.4369 422.077 58.9177 421.785 58.9177Z" fill="#00CCFF"/>
<path d="M399.27 63.205L393.784 63.205C393.49 63.205 393.253 62.7242 393.253 62.1322C393.253 61.5403 393.49 61.0595 393.784 61.0595L399.27 61.0595C399.562 61.0595 399.798 61.5403 399.798 62.1322C399.798 62.7242 399.562 63.205 399.27 63.205Z" fill="#E3EAFF"/>
<path d="M441.021 63.205L401.853 63.205C401.56 63.205 401.323 62.7242 401.323 62.1322C401.323 61.5403 401.56 61.0595 401.853 61.0595L441.021 61.0595C441.312 61.0595 441.548 61.5403 441.548 62.1322C441.548 62.7242 441.312 63.205 441.021 63.205Z" fill="#E3EAFF"/>
<path d="M399.27 80.1857L393.784 80.1857C393.49 80.1857 393.253 79.7049 393.253 79.1129C393.253 78.521 393.49 78.0402 393.784 78.0402L399.27 78.0402C399.562 78.0402 399.798 78.521 399.798 79.1129C399.798 79.7049 399.562 80.1857 399.27 80.1857Z" fill="#E3EAFF"/>
<path d="M436.637 80.1857L423.789 80.1857C423.426 80.1857 423.132 79.8885 423.132 79.5212V78.7046C423.132 78.3374 423.426 78.0402 423.789 78.0402L436.637 78.0402C437 78.0402 437.294 78.3374 437.294 78.7046V79.5212C437.294 79.8885 437 80.1857 436.637 80.1857Z" fill="#E3EAFF"/>
<path d="M414.864 80.1857L401.854 80.1857C401.562 80.1857 401.323 79.7049 401.323 79.1129C401.323 78.521 401.562 78.0402 401.854 78.0402L414.864 78.0402C415.156 78.0402 415.392 78.521 415.392 79.1129C415.392 79.7049 415.156 80.1857 414.864 80.1857Z" fill="#E3EAFF"/>
<path d="M421.785 80.1857L416.626 80.1857C416.335 80.1857 416.098 79.7049 416.098 79.1129C416.098 78.521 416.335 78.0402 416.626 78.0402L421.785 78.0402C422.077 78.0402 422.316 78.521 422.316 79.1129C422.316 79.7049 422.077 80.1857 421.785 80.1857Z" fill="#E3EAFF"/>
<path d="M399.27 84.4729L393.784 84.4729C393.49 84.4729 393.253 83.9921 393.253 83.4002C393.253 82.8082 393.49 82.3274 393.784 82.3274L399.27 82.3274C399.562 82.3274 399.798 82.8082 399.798 83.4002C399.798 83.9921 399.562 84.4729 399.27 84.4729Z" fill="#FFC359"/>
<path d="M408.633 84.4729L401.853 84.4729C401.561 84.4729 401.322 83.9921 401.322 83.4002C401.322 82.8082 401.561 82.3274 401.853 82.3274L408.633 82.3274C408.925 82.3274 409.164 82.8082 409.164 83.4002C409.164 83.9921 408.925 84.4729 408.633 84.4729Z" fill="#00CCFF"/>
<path d="M393.785 67.6406C393.491 67.6406 393.254 67.1598 393.254 66.5679C393.254 65.9759 393.491 65.4952 393.785 65.4952L399.271 65.4952C399.563 65.4952 399.799 65.9759 399.799 66.5679C399.799 67.1598 399.563 67.6406 399.271 67.6406" fill="#00CCFF"/>
<path d="M438.435 67.6406L423.832 67.6406C423.445 67.6406 423.132 67.3241 423.132 66.9351V66.2006C423.132 65.8117 423.445 65.4952 423.832 65.4952L438.435 65.4952C438.822 65.4952 439.135 65.8117 439.135 66.2006V66.9351C439.135 67.3241 438.822 67.6406 438.435 67.6406Z" fill="#E3EAFF"/>
<path d="M414.864 67.6406L401.854 67.6406C401.562 67.6406 401.323 67.1598 401.323 66.5679C401.323 65.9759 401.562 65.4952 401.854 65.4952L414.864 65.4952C415.156 65.4952 415.392 65.9759 415.392 66.5679C415.392 67.1598 415.156 67.6406 414.864 67.6406Z" fill="#FFC359"/>
<path d="M421.785 67.6406L416.626 67.6406C416.335 67.6406 416.098 67.1598 416.098 66.5679C416.098 65.9759 416.335 65.4952 416.626 65.4952L421.785 65.4952C422.077 65.4952 422.316 65.9759 422.316 66.5679C422.316 67.1598 422.077 67.6406 421.785 67.6406Z" fill="#FFC359"/>
<path d="M433.237 89.0337L401.852 89.0337C401.561 89.0337 401.324 88.5529 401.324 87.9609C401.324 87.369 401.561 86.8882 401.852 86.8882L433.237 86.8882C433.529 86.8882 433.765 87.369 433.765 87.9609C433.765 88.5529 433.529 89.0337 433.237 89.0337Z" fill="#E3EAFF"/>
<path d="M411.864 93.4685L401.853 93.4685C401.562 93.4685 401.323 92.9877 401.323 92.3958C401.323 91.8038 401.562 91.3231 401.853 91.3231L411.864 91.3231C412.155 91.3231 412.394 91.8038 412.394 92.3958C412.394 92.9877 412.155 93.4685 411.864 93.4685Z" fill="#E3EAFF"/>
<path d="M428.329 93.4685L413.902 93.4685C413.61 93.4685 413.372 92.9877 413.372 92.3958C413.372 91.8038 413.61 91.3231 413.902 91.3231L428.329 91.3231C428.62 91.3231 428.859 91.8038 428.859 92.3958C428.859 92.9877 428.62 93.4685 428.329 93.4685Z" fill="#E3EAFF"/>
<path d="M433.237 115.064L401.852 115.064C401.561 115.064 401.324 114.584 401.324 113.992C401.324 113.4 401.561 112.919 401.852 112.919L433.237 112.919C433.529 112.919 433.765 113.4 433.765 113.992C433.765 114.584 433.529 115.064 433.237 115.064Z" fill="#E3EAFF"/>
<path d="M399.27 119.5L393.784 119.5C393.49 119.5 393.253 119.019 393.253 118.427C393.253 117.836 393.49 117.355 393.784 117.355L399.27 117.355C399.562 117.355 399.798 117.836 399.798 118.427C399.798 119.019 399.562 119.5 399.27 119.5Z" fill="#FF56A9"/>
<path d="M411.864 119.5L401.853 119.5C401.562 119.5 401.323 119.019 401.323 118.427C401.323 117.836 401.562 117.355 401.853 117.355L411.864 117.355C412.155 117.355 412.394 117.836 412.394 118.427C412.394 119.019 412.155 119.5 411.864 119.5Z" fill="#00CCFF"/>
<path d="M428.329 119.5L413.902 119.5C413.61 119.5 413.372 119.019 413.372 118.427C413.372 117.836 413.61 117.355 413.902 117.355L428.329 117.355C428.62 117.355 428.859 117.836 428.859 118.427C428.859 119.019 428.62 119.5 428.329 119.5Z" fill="#E3EAFF"/>
<path d="M399.27 97.9042L393.784 97.9042C393.49 97.9042 393.253 97.4234 393.253 96.8314C393.253 96.2395 393.49 95.7587 393.784 95.7587L399.27 95.7587C399.562 95.7587 399.798 96.2395 399.798 96.8314C399.798 97.4234 399.562 97.9042 399.27 97.9042Z" fill="#FF56A9"/>
<path d="M429.869 97.9042L401.961 97.9042C401.61 97.9042 401.323 97.6142 401.323 97.2591V96.4038C401.323 96.0462 401.61 95.7587 401.961 95.7587L429.869 95.7587C430.22 95.7587 430.509 96.0462 430.509 96.4038V97.2591C430.509 97.6142 430.22 97.9042 429.869 97.9042Z" fill="#FF56A9"/>
<path d="M399.27 102.34L393.784 102.34C393.49 102.34 393.253 101.859 393.253 101.267C393.253 100.675 393.49 100.194 393.784 100.194L399.27 100.194C399.562 100.194 399.798 100.675 399.798 101.267C399.798 101.859 399.562 102.34 399.27 102.34Z" fill="#E3EAFF"/>
<path d="M414.864 102.34L401.854 102.34C401.562 102.34 401.323 101.859 401.323 101.267C401.323 100.675 401.562 100.194 401.854 100.194L414.864 100.194C415.156 100.194 415.392 100.675 415.392 101.267C415.392 101.859 415.156 102.34 414.864 102.34Z" fill="#E3EAFF"/>
<path d="M421.785 102.34L416.626 102.34C416.335 102.34 416.098 101.859 416.098 101.267C416.098 100.675 416.335 100.194 416.626 100.194L421.785 100.194C422.077 100.194 422.316 100.675 422.316 101.267C422.316 101.859 422.077 102.34 421.785 102.34Z" fill="#E3EAFF"/>
<path d="M399.27 106.627L393.784 106.627C393.49 106.627 393.253 106.146 393.253 105.554C393.253 104.962 393.49 104.481 393.784 104.481L399.27 104.481C399.562 104.481 399.798 104.962 399.798 105.554C399.798 106.146 399.562 106.627 399.27 106.627Z" fill="#E3EAFF"/>
<path d="M437.357 106.627L402.04 106.627C401.646 106.627 401.323 106.303 401.323 105.905V105.206C401.323 104.805 401.646 104.481 402.04 104.481L437.357 104.481C437.753 104.481 438.073 104.805 438.073 105.206V105.905C438.073 106.303 437.753 106.627 437.357 106.627Z" fill="#E3EAFF"/>
<path d="M399.27 123.608L393.784 123.608C393.49 123.608 393.253 123.127 393.253 122.535C393.253 121.943 393.49 121.463 393.784 121.463L399.27 121.463C399.562 121.463 399.798 121.943 399.798 122.535C399.798 123.127 399.562 123.608 399.27 123.608Z" fill="#E3EAFF"/>
<path d="M440.978 123.608L423.661 123.608C423.37 123.608 423.131 123.127 423.131 122.535C423.131 121.943 423.37 121.463 423.661 121.463L440.978 121.463C441.269 121.463 441.506 121.943 441.506 122.535C441.506 123.127 441.269 123.608 440.978 123.608Z" fill="#E3EAFF"/>
<path d="M414.864 123.608L401.854 123.608C401.562 123.608 401.323 123.127 401.323 122.535C401.323 121.943 401.562 121.463 401.854 121.463L414.864 121.463C415.156 121.463 415.392 121.943 415.392 122.535C415.392 123.127 415.156 123.608 414.864 123.608Z" fill="#E3EAFF"/>
<path d="M421.785 123.608L416.626 123.608C416.335 123.608 416.098 123.127 416.098 122.535C416.098 121.943 416.335 121.463 416.626 121.463L421.785 121.463C422.077 121.463 422.316 121.943 422.316 122.535C422.316 123.127 422.077 123.608 421.785 123.608Z" fill="#E3EAFF"/>
<path d="M425.02 127.895L401.906 127.895C401.584 127.895 401.323 127.632 401.323 127.308V126.337C401.323 126.013 401.584 125.75 401.906 125.75L425.02 125.75C425.34 125.75 425.601 126.013 425.601 126.337V127.308C425.601 127.632 425.34 127.895 425.02 127.895Z" fill="#FFC359"/>
<path d="M439.357 111.063L423.851 111.063C423.454 111.063 423.132 110.737 423.132 110.336V109.645C423.132 109.244 423.454 108.917 423.851 108.917L439.357 108.917C439.753 108.917 440.076 109.244 440.076 109.645V110.336C440.076 110.737 439.753 111.063 439.357 111.063Z" fill="#FF56A9"/>
<path d="M414.864 111.063L401.854 111.063C401.562 111.063 401.323 110.582 401.323 109.99C401.323 109.398 401.562 108.917 401.854 108.917L414.864 108.917C415.156 108.917 415.392 109.398 415.392 109.99C415.392 110.582 415.156 111.063 414.864 111.063Z" fill="#FFC359"/>
<path d="M421.785 111.063L416.626 111.063C416.335 111.063 416.098 110.582 416.098 109.99C416.098 109.398 416.335 108.917 416.626 108.917L421.785 108.917C422.077 108.917 422.316 109.398 422.316 109.99C422.316 110.582 422.077 111.063 421.785 111.063Z" fill="#FFC359"/>
<path d="M473.914 33.3967C473.914 43.0804 466.152 50.9326 456.578 50.9326C447.003 50.9326 439.24 43.0804 439.24 33.3967C439.24 23.7131 447.003 15.8608 456.578 15.8608C466.152 15.8608 473.914 23.7131 473.914 33.3967Z" fill="#FF4DD1"/>
<path d="M455.321 31.7524L448.435 34.3037L455.321 36.8358L455.321 39.45L445.478 35.664V32.9435L455.321 29.1599V31.7524Z" fill="#F9FBFC"/>
<path d="M457.569 29.1592L467.412 32.9428V35.6633L457.569 39.4493V36.8351L464.455 34.3031L457.569 31.7517V29.1592Z" fill="#F9FBFC"/>
<path d="M360.713 329.078C360.713 339.586 352.293 348.1 341.908 348.1C331.52 348.1 323.103 339.586 323.103 329.078C323.103 318.573 331.52 310.056 341.908 310.056C352.293 310.056 360.713 318.573 360.713 329.078Z" fill="#FFC240"/>
<path d="M339.384 329.529C339.384 331.259 340.081 332.124 341.476 332.124C342.205 332.124 342.759 331.863 343.141 331.343C343.521 330.822 343.753 329.976 343.834 328.802L343.994 326.084C343.581 325.994 343.115 325.948 342.594 325.948C341.581 325.948 340.793 326.267 340.229 326.907C339.666 327.548 339.384 328.42 339.384 329.529ZM351.838 327.99C351.838 329.171 351.651 330.251 351.276 331.232C350.904 332.211 350.378 332.982 349.695 333.537C349.015 334.098 348.224 334.376 347.323 334.376C346.724 334.376 346.196 334.228 345.73 333.938C345.269 333.646 344.937 333.264 344.734 332.788H344.538C343.664 333.844 342.549 334.376 341.197 334.376C339.761 334.376 338.632 333.938 337.803 333.066C336.976 332.191 336.561 330.995 336.561 329.478C336.561 327.748 337.105 326.357 338.192 325.296C339.279 324.24 340.698 323.711 342.448 323.711C343.146 323.711 343.913 323.776 344.753 323.914C345.592 324.047 346.284 324.211 346.827 324.4L346.547 330.413C346.547 331.554 346.855 332.124 347.472 332.124C347.99 332.124 348.401 331.74 348.711 330.974C349.019 330.205 349.175 329.203 349.175 327.966C349.175 326.647 348.9 325.48 348.358 324.465C347.815 323.453 347.051 322.682 346.067 322.148C345.081 321.616 343.956 321.348 342.692 321.348C341.054 321.348 339.632 321.689 338.424 322.368C337.215 323.049 336.288 324.032 335.646 325.315C335.001 326.598 334.676 328.079 334.676 329.763C334.676 332.025 335.276 333.762 336.47 334.972C337.667 336.18 339.401 336.787 341.67 336.787C342.527 336.787 343.473 336.69 344.505 336.497C345.532 336.304 346.547 336.023 347.543 335.654V338.017C345.807 338.761 343.884 339.135 341.768 339.135C338.686 339.135 336.284 338.316 334.561 336.676C332.839 335.035 331.977 332.754 331.977 329.836C331.977 327.811 332.419 325.97 333.298 324.32C334.177 322.665 335.431 321.37 337.055 320.43C338.679 319.493 340.55 319.021 342.668 319.021C344.45 319.021 346.043 319.393 347.448 320.13C348.85 320.867 349.932 321.918 350.691 323.279C351.456 324.641 351.838 326.212 351.838 327.99" fill="white"/>
<path class="leftRight" d="M247.406 -0.000395112L129.431 -0.000395112C119.851 -0.000395112 112.083 7.85669 112.083 17.55C112.083 27.2409 119.851 35.098 129.431 35.098L138.106 35.098L146.492 43.5808L154.878 35.098L247.406 35.098C256.988 35.098 264.756 27.2409 264.756 17.55C264.756 7.85669 256.988 -0.000395112 247.406 -0.000395112Z" fill="#9570EE"/>
<path class="leftRight" d="M213.65 23.1436L136.02 23.1436C134.948 23.1436 134.081 22.2641 134.081 21.1817C134.081 20.0969 134.948 19.2174 136.02 19.2174L213.65 19.2174C214.72 19.2174 215.589 20.0969 215.589 21.1817C215.589 22.2641 214.72 23.1436 213.65 23.1436Z" fill="white"/>
<path class="leftRight" d="M189.39 12.3468L136.02 12.3468C134.948 12.3468 134.081 11.4673 134.081 10.3849C134.081 9.30013 134.948 8.42067 136.02 8.42067L189.39 8.42067C190.462 8.42067 191.329 9.30013 191.329 10.3849C191.329 11.4673 190.462 12.3468 189.39 12.3468Z" fill="white"/>
<path d="M408.654 222.375C408.654 222.375 407.211 226.707 406.414 229.326C406.414 229.326 413.486 229.174 415.975 225.849L413.338 219.451L408.654 222.375Z" fill="#F7D3A9"/>
<path d="M407.589 341.85L408.196 344.575L412.101 344.798L411.275 341.461L407.589 341.85Z" fill="#F79A74"/>
<path d="M408.197 344.575C408.197 344.575 401.652 348.025 401.704 348.248C401.762 348.47 412.761 347.3 412.761 347.3L412.102 344.797L408.197 344.575Z" fill="#544DB8"/>
<path d="M440.597 336.357L442.13 338.681L445.852 337.466L443.895 334.654L440.597 336.357Z" fill="#F79A74"/>
<path d="M442.128 338.681C442.128 338.681 437.248 344.282 437.38 344.47C437.509 344.659 447.357 339.561 447.357 339.561L445.852 337.466L442.128 338.681Z" fill="#544DB8"/>
<path d="M400.331 269.799C400.331 269.799 389.112 306.855 406.933 342.571L412.212 342.571C412.212 342.571 401.652 302.179 414.851 269.466L400.331 269.799Z" fill="#FFC240"/>
<path d="M410.072 271.111C410.072 271.111 411.813 309.821 440.461 337.408L445.434 335.613C445.434 335.613 422.069 301.16 423.639 265.861L410.072 271.111Z" fill="#FFC240"/>
<path d="M404.933 183.883L404.948 181.599C404.948 181.498 404.936 181.399 404.909 181.302L404.482 179.666L403.192 180L401.881 178.773C401.324 178.256 400.433 178.425 400.113 179.113C399.707 179.983 399.246 181.104 399.103 181.957C399.043 182.298 399.155 182.638 399.385 182.894L401.393 185.117C401.68 185.436 402.122 185.559 402.533 185.439L404.133 184.958C404.606 184.818 404.931 184.38 404.933 183.883Z" fill="#F79A74"/>
<path d="M424.289 233.99C424.289 233.99 409.654 218.126 408.692 212.187C407.724 206.251 405.587 184.161 405.587 184.161L401.072 185.043C401.072 185.043 399.525 216.635 400.893 220.274C402.264 223.912 411.063 242.456 416.794 244.166C422.526 245.879 426.551 240.163 424.289 233.99Z" fill="#FF4F72"/>
<path d="M403.961 207.821C403.961 207.821 400.66 218.931 402.75 221.731C404.842 224.531 412.541 221.994 415.529 217.515C418.517 213.033 419.116 202.948 414.036 202.11C408.955 201.269 405.158 203.342 403.961 207.821Z" fill="#F79A74"/>
<path d="M423.762 272.805C423.762 272.805 426.731 240.758 426.731 232.08C426.731 231.681 426.724 231.309 426.719 230.937C424.51 225.293 419.028 225.404 416.833 225.846C414.633 226.293 406.051 229.074 406.106 229.408L406.084 229.379C403.127 231.551 400.868 234.124 400.66 234.75C400.66 234.75 392.742 251.44 399.671 271.469L423.762 272.805Z" fill="#FF4F72"/>
<path d="M381.82 185.52L381.435 183.268C381.418 183.169 381.387 183.073 381.347 182.983L380.64 181.449L379.431 182.007L377.924 181.033C377.291 180.623 376.443 180.947 376.245 181.683C375.996 182.611 375.736 183.795 375.743 184.662C375.746 185.006 375.913 185.324 376.185 185.532L378.545 187.364C378.884 187.627 379.343 187.673 379.725 187.48L381.218 186.721C381.66 186.499 381.903 186.011 381.82 185.52Z" fill="#F79A74"/>
<path d="M409.571 231.411C409.571 231.411 392.409 218.393 390.431 212.718C388.451 207.042 382.511 185.677 382.511 185.677L378.221 187.349C378.221 187.349 382.181 218.727 384.159 222.066C386.139 225.405 398.022 242.095 403.96 242.762C409.903 243.431 412.872 237.086 409.571 231.411Z" fill="#FF4F72"/>
<path d="M416.171 202.036C416.171 202.036 407.369 198.255 403.189 206.042C400.992 210.939 408.031 206.264 409.352 207.822C410.67 209.381 407.589 212.495 408.471 213.609C409.352 214.72 410.89 211.606 411.771 213.384C412.65 215.167 410.451 215.387 408.91 217.39C407.369 219.395 410.231 222.287 408.031 224.068C405.831 225.846 399.671 227.182 403.409 236.753C407.152 246.323 397.249 248.77 401.431 261.899C405.611 275.03 433.992 282.375 439.273 266.796C444.552 251.218 426.953 247.434 428.052 240.536C429.153 233.636 433.113 231.858 427.832 224.957C422.551 218.059 419.25 214.054 420.793 209.603C422.331 205.15 418.151 202.036 416.171 202.036Z" fill="#544DB8"/>
<path class="leftRight d" d="M447.424 168.216C446.148 168.216 445.112 167.167 445.112 165.877C445.112 164.584 446.148 163.538 447.424 163.538C448.699 163.538 449.736 164.584 449.736 165.877C449.736 167.167 448.699 168.216 447.424 168.216ZM440.172 177.81C437.124 177.81 434.616 175.517 434.215 172.55L446.129 172.55C445.728 175.517 443.217 177.81 440.172 177.81ZM430.608 165.877C430.608 164.584 431.643 163.538 432.92 163.538C434.196 163.538 435.233 164.584 435.233 165.877C435.233 167.167 434.196 168.216 432.92 168.216C431.643 168.216 430.608 167.167 430.608 165.877ZM440.172 148.23C429.725 148.23 421.252 156.797 421.252 167.365C421.252 177.933 429.725 186.501 440.172 186.501C450.62 186.501 459.092 177.933 459.092 167.365C459.092 156.797 450.62 148.23 440.172 148.23Z" fill="#FEC800"/>
<path d="M159.154 303.471L158.045 301.229L188.036 286.063L225.87 286.689L266.951 271.038L298.327 271.038L331.826 259.74L332.098 259.772L358.965 262.859L374.108 254.896L375.252 257.116L359.44 265.435L359.06 265.391L332.091 262.291L298.527 273.541L267.178 273.541L226.303 289.204L226.069 289.199L188.602 288.578L159.154 303.471Z" fill="#F9FBFC"/>
<path d="M269.221 243.373C269.221 243.373 298.939 292.062 295.225 325.936L315.448 326.359L306.783 321.278L309.26 320.852C309.26 320.852 301.827 268.353 294.811 249.723C287.462 230.211 285.317 237.444 285.317 237.444L269.221 243.373Z" fill="#544DB8"/>
<path d="M258.489 240.349C258.489 240.349 260.14 274.169 257.663 287.109C255.186 300.055 247.757 325.523 247.757 325.523L266.744 325.941L261.757 322.379L258.592 320.514C258.592 320.514 272.109 283.773 273.348 266.237C274.586 248.698 276.652 238.679 276.652 238.679L258.489 240.349Z" fill="#544DB8"/>
<path d="M297.34 140.249L300.436 138.058L301.828 132.89L300.281 132.578L299.354 134.455L300.281 125.533L298.733 125.845L297.187 134.455L295.327 138.527L297.03 139.623" fill="#F7D3A9"/>
<path d="M315.655 149.54L316.068 145.78L320.609 141.187L321.641 142.649L319.988 144.529L328.656 142.441V144.321L320.609 147.452L318.959 150.373L315.655 149.54Z" fill="#F7D3A9"/>
<path d="M295.191 137.09C295.191 137.09 259.941 180.359 255.835 189.013C255.835 189.013 254.125 192.128 254.125 201.13C254.125 210.13 257.206 243.361 257.206 243.361L293.139 245.439C293.139 245.439 281.502 204.938 281.16 203.899C280.816 202.862 275 196.631 269.523 195.245L299.638 140.206L295.191 137.09Z" fill="#6DB8FF"/>
<path d="M272.871 191.065C272.871 191.065 274.369 195.559 275.195 198.274C275.195 198.274 267.86 198.12 265.278 194.67L268.017 188.035L272.871 191.065Z" fill="#F7D3A9"/>
<path d="M278.448 177.021C278.448 177.021 280.617 189.802 278.448 192.704C276.279 195.608 268.843 190.672 265.743 186.026C262.645 181.38 262.024 170.923 267.293 170.051C272.56 169.181 277.208 172.375 278.448 177.021Z" fill="#F7D3A9"/>
<path d="M275.114 200.677C275.114 200.677 303.373 182.697 305.652 179.007C307.93 175.32 314.313 147.886 314.313 147.886L319.782 149.27C319.782 149.27 316.591 179.93 315.679 183.158C314.769 186.386 286.964 216.353 280.582 216.353C274.202 216.353 271.923 208.056 275.114 200.677Z" fill="#6DB8FF"/>
<path d="M276.445 174.174C276.445 174.174 277.887 169.163 274.794 166.657C271.699 164.154 266.332 164.57 265.505 165.406C265.505 166.867 268.808 167.701 267.982 168.537C267.156 169.373 262.823 168.537 261.791 172.92C260.759 177.305 262.204 178.141 262.204 178.141C262.204 178.141 259.933 180.854 262.615 184.611C265.3 188.368 271.362 191.465 272.871 191.064C274.381 190.663 273.554 184.819 273.554 184.819C273.554 184.819 270.046 184.401 269.838 182.106C269.632 179.81 271.491 179.6 272.315 180.436C273.141 181.272 273.347 183.149 273.968 182.731C274.586 182.313 273.76 177.931 273.76 177.931C273.76 177.931 276.031 176.051 276.445 174.174" fill="#544DB8"/>
<path d="M293.078 302.076L271.854 307.964C266.018 309.583 262.555 315.737 264.155 321.642L268.168 336.448C269.768 342.35 275.854 345.856 281.69 344.237L288.053 342.471L294.32 348.736L296.549 340.113L302.914 338.349C308.752 336.73 312.215 330.574 310.615 324.672L306.6 309.866C304.997 303.961 298.913 300.455 293.078 302.076Z" fill="#9570EE"/>
<path d="M279.034 326.339C279.39 327.651 278.628 329.006 277.331 329.364C276.034 329.724 274.696 328.953 274.338 327.641C273.984 326.329 274.746 324.976 276.043 324.614C277.338 324.256 278.68 325.027 279.034 326.339Z" fill="white"/>
<path d="M289.73 323.371C290.083 324.682 289.321 326.038 288.024 326.398C286.727 326.755 285.39 325.985 285.034 324.673C284.678 323.361 285.44 322.008 286.737 321.645C288.034 321.288 289.374 322.059 289.73 323.371Z" fill="white"/>
<path d="M300.426 320.402C300.782 321.714 300.02 323.07 298.723 323.43C297.426 323.787 296.088 323.016 295.73 321.705C295.377 320.393 296.138 319.04 297.435 318.68C298.732 318.32 300.072 319.09 300.426 320.402Z" fill="white"/>
<path d="M192.033 286.693C192.033 288.885 190.277 290.66 188.111 290.66C185.945 290.66 184.191 288.885 184.191 286.693C184.191 284.504 185.945 282.726 188.111 282.726C190.277 282.726 192.033 284.504 192.033 286.693Z" fill="#FFC240"/>
<path d="M336.089 261.225C336.089 263.414 334.333 265.192 332.167 265.192C330 265.192 328.247 263.414 328.247 261.225C328.247 259.036 330 257.258 332.167 257.258C334.333 257.258 336.089 259.036 336.089 261.225Z" fill="#FF4F72"/>
<defs>
<filter id="filter0_d" x="0.746094" y="68.3383" width="437.884" height="333.841" filterUnits="userSpaceOnUse" color-interpolation-filters="sRGB">
<feFlood flood-opacity="0" result="BackgroundImageFix"/>
<feColorMatrix in="SourceAlpha" type="matrix" values="0 0 0 0 0 0 0 0 0 0 0 0 0 0 0 0 0 0 127 0"/>
<feOffset dy="28"/>
<feGaussianBlur stdDeviation="17"/>
<feColorMatrix type="matrix" values="0 0 0 0 0 0 0 0 0 0 0 0 0 0 0 0 0 0 0.38 0"/>
<feBlend mode="normal" in2="BackgroundImageFix" result="effect1_dropShadow"/>
<feBlend mode="normal" in="SourceGraphic" in2="effect1_dropShadow" result="shape"/>
</filter>
</defs>
</svg>
