<svg width="31" height="31" viewBox="0 0 31 31" fill="none" xmlns="http://www.w3.org/2000/svg">
<path fill-rule="evenodd" clip-rule="evenodd" d="M15.5 31C24.0604 31 31 24.0604 31 15.5C31 6.93959 24.0604 0 15.5 0C6.93959 0 0 6.93959 0 15.5C0 24.0604 6.93959 31 15.5 31ZM18.1211 13.8789C18.707 14.4648 19 15.1719 19 16C19 16.8281 18.707 17.5352 18.1211 18.1211C17.5352 18.707 16.8281 19 16 19C15.1719 19 14.4648 18.707 13.8789 18.1211C13.293 17.5352 13 16.8281 13 16C13 15.1719 13.293 14.4648 13.8789 13.8789C14.4648 13.293 15.1719 13 16 13C16.8281 13 17.5352 13.293 18.1211 13.8789ZM19.2695 19.2695C20.168 18.3711 20.6172 17.2812 20.6172 16C20.6172 14.7188 20.168 13.6289 19.2695 12.7305C18.3711 11.832 17.2812 11.3828 16 11.3828C14.7188 11.3828 13.6289 11.832 12.7305 12.7305C11.832 13.6289 11.3828 14.7188 11.3828 16C11.3828 17.2812 11.832 18.3711 12.7305 19.2695C13.6289 20.168 14.7188 20.6172 16 20.6172C17.2812 20.6172 18.3711 20.168 19.2695 19.2695ZM21.5664 11.957C21.7773 11.7461 21.8828 11.4922 21.8828 11.1953C21.8828 10.8984 21.7773 10.6445 21.5664 10.4336C21.3555 10.2227 21.1016 10.1172 20.8047 10.1172C20.5078 10.1172 20.2539 10.2227 20.043 10.4336C19.832 10.6445 19.7266 10.8984 19.7266 11.1953C19.7266 11.4922 19.832 11.7461 20.043 11.957C20.2539 12.168 20.5078 12.2734 20.8047 12.2734C21.1016 12.2734 21.3555 12.168 21.5664 11.957ZM15.1035 8.61133C15.6465 8.61523 15.9453 8.61719 16 8.61719C16.0547 8.61719 16.3535 8.61523 16.8965 8.61133C17.4395 8.60742 17.8516 8.60742 18.1328 8.61133C18.4141 8.61523 18.791 8.62695 19.2637 8.64648C19.7363 8.66602 20.1387 8.70508 20.4707 8.76367C20.8027 8.82227 21.082 8.89453 21.3086 8.98047C21.6992 9.13672 22.043 9.36328 22.3398 9.66016C22.6367 9.95703 22.8633 10.3008 23.0195 10.6914C23.1055 10.918 23.1777 11.1973 23.2363 11.5293C23.2949 11.8613 23.334 12.2637 23.3535 12.7363C23.373 13.209 23.3848 13.5859 23.3887 13.8672C23.3926 14.1484 23.3926 14.5605 23.3887 15.1035C23.3848 15.6465 23.3828 15.9453 23.3828 16C23.3828 16.0547 23.3848 16.3535 23.3887 16.8965C23.3926 17.4395 23.3926 17.8516 23.3887 18.1328C23.3848 18.4141 23.373 18.791 23.3535 19.2637C23.334 19.7363 23.2949 20.1387 23.2363 20.4707C23.1777 20.8027 23.1055 21.082 23.0195 21.3086C22.8633 21.6992 22.6367 22.043 22.3398 22.3398C22.043 22.6367 21.6992 22.8633 21.3086 23.0195C21.082 23.1055 20.8027 23.1777 20.4707 23.2363C20.1387 23.2949 19.7363 23.334 19.2637 23.3535C18.791 23.373 18.4141 23.3848 18.1328 23.3887C17.8516 23.3926 17.4395 23.3926 16.8965 23.3887C16.3535 23.3848 16.0547 23.3828 16 23.3828C15.9453 23.3828 15.6465 23.3848 15.1035 23.3887C14.5605 23.3926 14.1484 23.3926 13.8672 23.3887C13.5859 23.3848 13.209 23.373 12.7363 23.3535C12.2637 23.334 11.8613 23.2949 11.5293 23.2363C11.1973 23.1777 10.918 23.1055 10.6914 23.0195C10.3008 22.8633 9.95703 22.6367 9.66016 22.3398C9.36328 22.043 9.13672 21.6992 8.98047 21.3086C8.89453 21.082 8.82227 20.8027 8.76367 20.4707C8.70508 20.1387 8.66602 19.7363 8.64648 19.2637C8.62695 18.791 8.61523 18.4141 8.61133 18.1328C8.60742 17.8516 8.60742 17.4395 8.61133 16.8965C8.61523 16.3535 8.61719 16.0547 8.61719 16C8.61719 15.9453 8.61523 15.6465 8.61133 15.1035C8.60742 14.5605 8.60742 14.1484 8.61133 13.8672C8.61523 13.5859 8.62695 13.209 8.64648 12.7363C8.66602 12.2637 8.70508 11.8613 8.76367 11.5293C8.82227 11.1973 8.89453 10.918 8.98047 10.6914C9.13672 10.3008 9.36328 9.95703 9.66016 9.66016C9.95703 9.36328 10.3008 9.13672 10.6914 8.98047C10.918 8.89453 11.1973 8.82227 11.5293 8.76367C11.8613 8.70508 12.2637 8.66602 12.7363 8.64648C13.209 8.62695 13.5859 8.61523 13.8672 8.61133C14.1484 8.60742 14.5605 8.60742 15.1035 8.61133ZM24.9414 19.7148C24.9805 19.0273 25 17.7891 25 16C25 14.2109 24.9805 12.9727 24.9414 12.2852C24.8633 10.6602 24.3789 9.40234 23.4883 8.51172C22.5977 7.62109 21.3398 7.13672 19.7148 7.05859C19.0273 7.01953 17.7891 7 16 7C14.2109 7 12.9727 7.01953 12.2852 7.05859C10.6602 7.13672 9.40234 7.62109 8.51172 8.51172C7.62109 9.40234 7.13672 10.6602 7.05859 12.2852C7.01953 12.9727 7 14.2109 7 16C7 17.7891 7.01953 19.0273 7.05859 19.7148C7.13672 21.3398 7.62109 22.5977 8.51172 23.4883C9.40234 24.3789 10.6602 24.8633 12.2852 24.9414C12.9727 24.9805 14.2109 25 16 25C17.7891 25 19.0273 24.9805 19.7148 24.9414C21.3398 24.8633 22.5977 24.3789 23.4883 23.4883C24.3789 22.5977 24.8633 21.3398 24.9414 19.7148Z" fill="white"/>
</svg>
