<svg width="279" height="56" viewBox="0 0 279 56" fill="none" xmlns="http://www.w3.org/2000/svg">
<path d="M67.0938 35.7266L71.8047 18.6406H78.8828L70.3282 44H63.8594L55.3047 18.6406H62.3828L67.0938 35.7266ZM97.0703 41.4219C95.3985 43.4531 93.086 44.4688 90.1328 44.4688C87.4141 44.4688 85.336 43.6875 83.8985 42.125C82.4766 40.5625 81.75 38.2734 81.7188 35.2578V18.6406H88.4922V35.0234C88.4922 37.6641 89.6953 38.9844 92.1016 38.9844C94.3985 38.9844 95.9766 38.1875 96.836 36.5938V18.6406H103.633V44H97.2578L97.0703 41.4219ZM115.891 44H109.094V8H115.891V44ZM120.508 31.1328C120.508 27.2422 121.43 24.1094 123.273 21.7344C125.133 19.3594 127.633 18.1719 130.773 18.1719C133.555 18.1719 135.719 19.125 137.266 21.0312L137.547 18.6406H143.688V43.1562C143.688 45.375 143.18 47.3047 142.164 48.9453C141.164 50.5859 139.75 51.8359 137.922 52.6953C136.094 53.5547 133.953 53.9844 131.5 53.9844C129.641 53.9844 127.828 53.6094 126.063 52.8594C124.297 52.125 122.961 51.1719 122.055 50L125.055 45.875C126.742 47.7656 128.789 48.7109 131.195 48.7109C132.992 48.7109 134.391 48.2266 135.391 47.2578C136.391 46.3047 136.891 44.9453 136.891 43.1797V41.8203C135.328 43.5859 133.273 44.4688 130.727 44.4688C127.68 44.4688 125.211 43.2812 123.32 40.9062C121.445 38.5156 120.508 35.3516 120.508 31.4141V31.1328ZM127.281 31.625C127.281 33.9219 127.742 35.7266 128.664 37.0391C129.586 38.3359 130.852 38.9844 132.461 38.9844C134.523 38.9844 136 38.2109 136.891 36.6641V26C135.984 24.4531 134.523 23.6797 132.508 23.6797C130.883 23.6797 129.602 24.3438 128.664 25.6719C127.742 27 127.281 28.9844 127.281 31.625ZM147.859 31.0859C147.859 28.5703 148.344 26.3281 149.313 24.3594C150.281 22.3906 151.672 20.8672 153.484 19.7891C155.313 18.7109 157.43 18.1719 159.836 18.1719C163.258 18.1719 166.047 19.2188 168.203 21.3125C170.375 23.4062 171.586 26.25 171.836 29.8438L171.883 31.5781C171.883 35.4688 170.797 38.5938 168.625 40.9531C166.453 43.2969 163.539 44.4688 159.883 44.4688C156.227 44.4688 153.305 43.2969 151.117 40.9531C148.945 38.6094 147.859 35.4219 147.859 31.3906V31.0859ZM154.633 31.5781C154.633 33.9844 155.086 35.8281 155.992 37.1094C156.898 38.375 158.195 39.0078 159.883 39.0078C161.523 39.0078 162.805 38.3828 163.727 37.1328C164.648 35.8672 165.109 33.8516 165.109 31.0859C165.109 28.7266 164.648 26.8984 163.727 25.6016C162.805 24.3047 161.508 23.6562 159.836 23.6562C158.18 23.6562 156.898 24.3047 155.992 25.6016C155.086 26.8828 154.633 28.875 154.633 31.5781ZM186.906 40.9297C188.453 40.9297 189.805 40.4609 190.961 39.5234C192.117 38.5859 192.758 37.4141 192.883 36.0078H196.984C196.906 37.4609 196.406 38.8438 195.484 40.1562C194.563 41.4688 193.328 42.5156 191.781 43.2969C190.25 44.0781 188.625 44.4688 186.906 44.4688C183.453 44.4688 180.703 43.3203 178.656 41.0234C176.625 38.7109 175.609 35.5547 175.609 31.5547V30.8281C175.609 28.3594 176.063 26.1641 176.969 24.2422C177.875 22.3203 179.172 20.8281 180.859 19.7656C182.563 18.7031 184.57 18.1719 186.883 18.1719C189.727 18.1719 192.086 19.0234 193.961 20.7266C195.852 22.4297 196.859 24.6406 196.984 27.3594H192.883C192.758 25.7188 192.133 24.375 191.008 23.3281C189.898 22.2656 188.523 21.7344 186.883 21.7344C184.68 21.7344 182.969 22.5312 181.75 24.125C180.547 25.7031 179.945 27.9922 179.945 30.9922V31.8125C179.945 34.7344 180.547 36.9844 181.75 38.5625C182.953 40.1406 184.672 40.9297 186.906 40.9297ZM200.711 31.0859C200.711 28.6016 201.195 26.3672 202.164 24.3828C203.148 22.3984 204.508 20.8672 206.242 19.7891C207.992 18.7109 209.984 18.1719 212.219 18.1719C215.672 18.1719 218.461 19.3672 220.586 21.7578C222.727 24.1484 223.797 27.3281 223.797 31.2969V31.6016C223.797 34.0703 223.32 36.2891 222.367 38.2578C221.43 40.2109 220.078 41.7344 218.313 42.8281C216.563 43.9219 214.547 44.4688 212.266 44.4688C208.828 44.4688 206.039 43.2734 203.898 40.8828C201.773 38.4922 200.711 35.3281 200.711 31.3906V31.0859ZM205.07 31.6016C205.07 34.4141 205.719 36.6719 207.016 38.375C208.328 40.0781 210.078 40.9297 212.266 40.9297C214.469 40.9297 216.219 40.0703 217.516 38.3516C218.813 36.6172 219.461 34.1953 219.461 31.0859C219.461 28.3047 218.797 26.0547 217.469 24.3359C216.156 22.6016 214.406 21.7344 212.219 21.7344C210.078 21.7344 208.352 22.5859 207.039 24.2891C205.727 25.9922 205.07 28.4297 205.07 31.6016ZM228.18 31.1094C228.18 27.2188 229.102 24.0938 230.945 21.7344C232.789 19.3594 235.203 18.1719 238.188 18.1719C241.156 18.1719 243.508 19.1875 245.242 21.2188V8H249.578V44H245.594L245.383 41.2812C243.648 43.4062 241.234 44.4688 238.141 44.4688C235.203 44.4688 232.805 43.2656 230.945 40.8594C229.102 38.4531 228.18 35.3125 228.18 31.4375V31.1094ZM232.516 31.6016C232.516 34.4766 233.109 36.7266 234.297 38.3516C235.484 39.9766 237.125 40.7891 239.219 40.7891C241.969 40.7891 243.977 39.5547 245.242 37.0859V25.4375C243.945 23.0469 241.953 21.8516 239.266 21.8516C237.141 21.8516 235.484 22.6719 234.297 24.3125C233.109 25.9531 232.516 28.3828 232.516 31.6016ZM266.852 44.4688C263.414 44.4688 260.617 43.3438 258.461 41.0938C256.305 38.8281 255.227 35.8047 255.227 32.0234V31.2266C255.227 28.7109 255.703 26.4688 256.656 24.5C257.625 22.5156 258.969 20.9688 260.688 19.8594C262.422 18.7344 264.297 18.1719 266.313 18.1719C269.609 18.1719 272.172 19.2578 274 21.4297C275.828 23.6016 276.742 26.7109 276.742 30.7578V32.5625H259.563C259.625 35.0625 260.352 37.0859 261.742 38.6328C263.148 40.1641 264.93 40.9297 267.086 40.9297C268.617 40.9297 269.914 40.6172 270.977 39.9922C272.039 39.3672 272.969 38.5391 273.766 37.5078L276.414 39.5703C274.289 42.8359 271.102 44.4688 266.852 44.4688ZM266.313 21.7344C264.563 21.7344 263.094 22.375 261.906 23.6562C260.719 24.9219 259.984 26.7031 259.703 29H272.406V28.6719C272.281 26.4688 271.688 24.7656 270.625 23.5625C269.563 22.3438 268.125 21.7344 266.313 21.7344Z" fill="white"/>
<path d="M21 44L-6.21967e-07 6.99998L42 6.99999L21 44Z" fill="white"/>
</svg>
