<svg width="179" height="109" viewBox="0 0 179 109" fill="none" xmlns="http://www.w3.org/2000/svg">
<g clip-path="url(#clip0)">
<path d="M121.777 61.9003L123.312 61.6344C123.459 61.6086 123.605 61.5771 123.752 61.5503C121.323 60.0394 119.479 57.7455 118.523 55.0455C117.567 52.3454 117.556 49.3999 118.492 46.6928C119.427 43.9856 121.255 41.678 123.673 40.1489C126.091 38.6198 128.956 37.9602 131.797 38.2786L129.786 43.075L134.552 38.9051C134.563 38.9078 134.574 38.9115 134.585 38.916C136.145 39.4668 137.583 40.3202 138.814 41.4275C140.046 42.5348 141.048 43.8743 141.763 45.3696C142.477 46.8648 142.891 48.4865 142.981 50.1421C143.07 51.7976 142.833 53.4546 142.283 55.0184C142.204 55.2458 142.109 55.463 142.018 55.6827C143.363 55.0053 144.654 54.2168 145.707 53.2071C147.838 51.161 149.005 48.3375 150.31 44.8589C152.895 37.9656 155.384 30.9725 157.774 23.9641C155.138 22.5352 153.097 20.2115 152.018 17.4105C150.939 14.6095 150.892 11.5147 151.885 8.68203C152.013 8.31759 152.162 7.96666 152.319 7.622C152.358 7.53575 152.398 7.45004 152.439 7.36502C152.599 7.03459 152.767 6.71084 152.952 6.40014C152.983 6.3492 153.017 6.30153 153.047 6.25115C153.209 5.98918 153.378 5.73496 153.557 5.48849C153.624 5.39596 153.69 5.30368 153.759 5.21334C153.961 4.94797 154.171 4.68974 154.392 4.44322C154.466 4.36073 154.545 4.28366 154.621 4.2033C154.791 4.02365 154.965 3.84942 155.144 3.68061C155.239 3.59174 155.332 3.50223 155.429 3.41651C155.454 3.39452 155.478 3.37052 155.503 3.3487C155.504 3.35031 155.505 3.35204 155.506 3.35363C157.726 1.41572 160.553 0.318272 163.496 0.252025C166.439 0.185778 169.312 1.15492 171.616 2.99101L168.999 9.23267L173.711 5.11237C175.36 7.21747 176.294 9.79544 176.378 12.4702C176.462 15.145 175.691 17.7766 174.177 19.9812C174.181 19.9827 174.185 19.9839 174.19 19.9854C174.138 20.0612 174.08 20.1305 174.027 20.205C173.928 20.3446 173.826 20.4818 173.722 20.6165C173.588 20.7892 173.449 20.9561 173.307 21.1208C173.2 21.2451 173.094 21.3704 172.983 21.4899C172.819 21.6648 172.648 21.8304 172.476 21.9951C172.376 22.0911 172.28 22.192 172.177 22.2845C171.906 22.527 171.625 22.757 171.336 22.9746C171.234 23.0508 171.127 23.1181 171.023 23.1911C170.82 23.3344 170.616 23.4756 170.405 23.6063C170.274 23.6875 170.139 23.7616 170.006 23.8378C169.812 23.9483 169.617 24.0553 169.418 24.1553C169.277 24.2262 169.135 24.2934 168.991 24.359C168.787 24.4523 168.58 24.5388 168.371 24.6212C168.231 24.6764 168.091 24.7323 167.949 24.7825C167.714 24.8654 167.476 24.9373 167.236 25.0062C167.115 25.041 166.997 25.0808 166.874 25.112C166.515 25.2038 166.152 25.282 165.784 25.3419C165.715 25.3532 165.645 25.3575 165.575 25.3676C165.271 25.412 164.964 25.4478 164.656 25.4697C164.523 25.4791 164.389 25.4805 164.256 25.4857C164.006 25.4954 163.757 25.5003 163.506 25.495C163.359 25.4918 163.213 25.4843 163.066 25.476C162.821 25.4621 162.576 25.4408 162.331 25.4119C162.186 25.3951 162.042 25.3784 161.897 25.3564C161.635 25.3165 161.372 25.2644 161.11 25.2072C161.093 25.2035 161.076 25.2012 161.058 25.1974C160.05 28.1541 159.023 31.1045 157.977 34.0486C159.252 32.8992 160.749 32.0232 162.375 31.4742C164 30.9253 165.721 30.7149 167.431 30.8561C169.14 30.9974 170.803 31.4871 172.317 32.2954C173.831 33.1037 175.165 34.2134 176.235 35.5565L171.879 40.3836L177.777 38.0245C179.21 41.0346 179.391 44.4914 178.281 47.6354C177.897 48.7402 177.358 49.7848 176.681 50.738C175.223 52.8033 173.18 54.3822 170.816 55.2699C168.453 56.1576 165.877 56.3132 163.424 55.7164C160.971 55.1195 158.753 53.7979 157.059 51.923C155.365 50.048 154.272 47.7062 153.922 45.2012C153.811 45.4979 153.704 45.7982 153.593 46.0946C152.442 49.1634 151.009 52.9826 148.132 55.7438C146.182 57.6154 143.783 58.8027 141.481 59.8066C139.982 60.4602 138.463 61.0645 136.924 61.6195C135.213 62.6588 133.281 63.2759 131.285 63.4201C128.857 64.0959 126.398 64.66 123.917 65.0956L122.369 65.3629C120.979 65.6016 119.553 65.8473 118.137 66.1305C118.341 66.191 118.545 66.2488 118.748 66.3203C121.27 67.2096 123.444 68.8791 124.956 71.0877C126.469 73.2963 127.241 75.9295 127.162 78.6069L117.461 81.5903L126.239 82.987C125.436 84.9644 124.146 86.7056 122.49 88.0479C120.833 89.3902 118.864 90.2899 116.766 90.663C114.668 91.036 112.51 90.8702 110.493 90.181C108.477 89.4919 106.667 88.3018 105.234 86.7221C105.323 87.0212 105.413 87.3199 105.503 87.6181C105.681 88.2107 105.858 88.7999 106.027 89.3835C108.337 97.3361 107.343 103.592 103.228 106.998L100.995 104.289C105 100.974 103.757 94.1424 102.661 90.3648C102.494 89.7917 102.32 89.2129 102.145 88.6308C100.641 83.623 98.935 77.9467 101.144 72.7307C104.473 64.869 114.068 63.2229 121.777 61.9003Z" fill="#F2F2F2"/>
<path d="M118.934 108.018H50.9629C48.734 108.018 46.5963 107.13 45.0202 105.551C43.444 103.972 42.5586 101.83 42.5586 99.597V68.3955C42.5586 67.9424 42.6507 67.4941 42.8293 67.0778C43.008 66.6616 43.2694 66.2861 43.5976 65.9744L79.6155 31.7661C81.0556 30.3984 82.9643 29.636 84.9485 29.636C86.9327 29.636 88.8414 30.3984 90.2815 31.7661L124.623 64.3819C125.481 65.1967 126.164 66.178 126.631 67.2661C127.098 68.3541 127.338 69.526 127.338 70.7104V99.597C127.338 100.703 127.121 101.798 126.699 102.819C126.276 103.841 125.657 104.769 124.877 105.551C124.096 106.333 123.17 106.953 122.15 107.377C121.131 107.8 120.038 108.018 118.934 108.018Z" fill="#3F3D56"/>
<path opacity="0.1" d="M42.5586 68.9078H126.632V102.933C126.632 104.282 126.097 105.575 125.145 106.528C124.194 107.482 122.903 108.018 121.557 108.018H47.6334C46.2875 108.018 44.9967 107.482 44.045 106.528C43.0933 105.575 42.5586 104.282 42.5586 102.933V68.9078Z" fill="black"/>
<path d="M111.498 42.0972H58.2219C55.668 42.0972 53.5977 44.1716 53.5977 46.7304V100.111C53.5977 102.669 55.668 104.744 58.2219 104.744H111.498C114.052 104.744 116.123 102.669 116.123 100.111V46.7304C116.123 44.1716 114.052 42.0972 111.498 42.0972Z" fill="#6C63FF"/>
<path opacity="0.1" d="M116.123 70.3148V104.744H53.5977V70.3148L84.8602 85.4544L116.123 70.3148Z" fill="black"/>
<path d="M84.8601 87.4009L44.8028 68.0023C44.555 67.8823 44.2809 67.8273 44.0061 67.8425C43.7313 67.8576 43.4649 67.9425 43.2318 68.089C42.9987 68.2355 42.8065 68.4389 42.6733 68.6802C42.5401 68.9215 42.4702 69.1927 42.4702 69.4684V102.844C42.4702 103.512 42.6015 104.173 42.8565 104.79C43.1115 105.407 43.4854 105.968 43.9566 106.44C44.4278 106.912 44.9873 107.287 45.603 107.542C46.2187 107.798 46.8786 107.929 47.545 107.929H122.175C122.842 107.929 123.502 107.798 124.117 107.542C124.733 107.287 125.292 106.912 125.764 106.44C126.235 105.968 126.609 105.407 126.864 104.79C127.119 104.173 127.25 103.512 127.25 102.844V70.0402C127.25 69.7037 127.165 69.3728 127.002 69.0784C126.84 68.7839 126.605 68.5357 126.321 68.3569C126.036 68.1781 125.711 68.0746 125.376 68.0561C125.041 68.0376 124.706 68.1047 124.404 68.2511L84.8601 87.4009Z" fill="#3F3D56"/>
<path d="M76.4702 47.8487H58.9844V50.3262H76.4702V47.8487Z" fill="#F2F2F2"/>
<path d="M109.499 56.874H57.5718V58.2898H109.499V56.874Z" fill="#F2F2F2"/>
<path d="M109.499 61.6522H57.5718V63.0679H109.499V61.6522Z" fill="#F2F2F2"/>
<path d="M109.499 66.4303H57.5718V67.846H109.499V66.4303Z" fill="#F2F2F2"/>
<path d="M10.7661 107.929H156.305" stroke="#3F3D56" stroke-miterlimit="10"/>
<path d="M0 86.1376C0 96.5717 6.53309 105.015 14.6067 105.015L0 86.1376Z" fill="#46455B"/>
<path d="M14.6069 105.015C14.6069 94.4635 21.8975 85.9255 30.9072 85.9255L14.6069 105.015Z" fill="#6C63FF"/>
<path d="M5.29248 87.0835C5.29248 96.9947 9.45851 105.015 14.6069 105.015L5.29248 87.0835Z" fill="#6C63FF"/>
<path d="M14.6069 105.015C14.6069 91.5326 23.0337 80.623 33.4475 80.623L14.6069 105.015Z" fill="#46455B"/>
<path d="M11.5337 105.148C11.5337 105.148 13.6052 105.084 14.2295 104.639C14.8537 104.193 17.4159 103.661 17.5708 104.376C17.7256 105.09 20.6838 107.928 18.3451 107.947C16.0064 107.966 12.9111 107.582 12.288 107.202C11.6649 106.822 11.5337 105.148 11.5337 105.148Z" fill="#A8A8A8"/>
<path opacity="0.2" d="M18.3869 107.699C16.0482 107.718 12.9528 107.334 12.3297 106.953C11.8552 106.664 11.6661 105.625 11.6028 105.145C11.559 105.147 11.5337 105.148 11.5337 105.148C11.5337 105.148 11.6649 106.822 12.288 107.202C12.9111 107.582 16.0065 107.966 18.3451 107.947C19.0202 107.942 19.2534 107.701 19.2406 107.345C19.1468 107.56 18.8893 107.695 18.3869 107.699Z" fill="black"/>
<path d="M127.119 29.051C127.013 29.9986 126.291 30.7619 126.024 31.6771C125.622 33.0545 126.317 34.5326 127.269 35.6054C128.037 36.4618 128.967 37.1571 130.004 37.6509C131.042 38.1446 132.168 38.4271 133.315 38.4819C133.653 38.5116 133.992 38.4745 134.315 38.3727C134.603 38.2565 134.863 38.0788 135.076 37.8519C135.792 37.131 136.177 36.1321 136.33 35.1262C136.484 34.1204 136.424 33.0957 136.364 32.08C136.364 31.87 136.326 31.6618 136.252 31.4655C136.154 31.2786 136.02 31.1133 135.857 30.9794C135.341 30.5052 134.773 30.0915 134.163 29.7465C133.888 29.6228 133.645 29.4365 133.454 29.2024C133.338 29.0018 133.264 28.7804 133.234 28.5509L133.047 27.5955C133.014 27.3201 132.92 27.0556 132.772 26.821C132.442 26.3742 131.809 26.3134 131.255 26.2916L129.223 26.2117C128.59 26.1869 127.758 26.0053 127.141 26.1296C126.564 26.2458 126.756 26.7778 126.86 27.2622C127.012 27.8471 127.099 28.447 127.119 29.051Z" fill="#A0616A"/>
<path opacity="0.1" d="M127.119 29.051C127.013 29.9986 126.291 30.7619 126.024 31.6771C125.622 33.0545 126.317 34.5326 127.269 35.6054C128.037 36.4618 128.967 37.1571 130.004 37.6509C131.042 38.1446 132.168 38.4271 133.315 38.4819C133.653 38.5116 133.992 38.4745 134.315 38.3727C134.603 38.2565 134.863 38.0788 135.076 37.8519C135.792 37.131 136.177 36.1321 136.33 35.1262C136.484 34.1204 136.424 33.0957 136.364 32.08C136.364 31.87 136.326 31.6618 136.252 31.4655C136.154 31.2786 136.02 31.1133 135.857 30.9794C135.341 30.5052 134.773 30.0915 134.163 29.7465C133.888 29.6228 133.645 29.4365 133.454 29.2024C133.338 29.0018 133.264 28.7804 133.234 28.5509L133.047 27.5955C133.014 27.3201 132.92 27.0556 132.772 26.821C132.442 26.3742 131.809 26.3134 131.255 26.2916L129.223 26.2117C128.59 26.1869 127.758 26.0053 127.141 26.1296C126.564 26.2458 126.756 26.7778 126.86 27.2622C127.012 27.8471 127.099 28.447 127.119 29.051Z" fill="black"/>
<path d="M140.045 71.7021C139.758 74.8649 139.47 78.0272 139.182 81.1891C138.956 83.6773 138.727 86.1758 138.285 88.6321C138.132 89.4785 137.953 90.3205 137.741 91.1553C137.151 93.4731 136.294 95.7385 136.018 98.1146C136.009 98.1831 136.002 98.253 135.995 98.323C135.964 98.8484 135.864 99.3675 135.699 99.8672C135.561 100.23 135.349 100.561 135.199 100.919C134.901 101.636 134.862 102.428 134.826 103.205C133.777 102.614 132.629 102.221 131.439 102.045C130.865 101.959 130.225 101.898 129.834 101.468C129.401 100.993 129.449 100.266 129.521 99.6283C129.75 97.647 129.977 95.6666 130.205 93.6873C130.279 92.8357 130.423 91.9917 130.637 91.164C130.715 90.8887 130.81 90.6177 130.906 90.3468C131.038 89.9738 131.172 89.6009 131.272 89.2177C131.417 88.5986 131.518 87.9702 131.574 87.3369C131.808 85.344 132.091 83.3554 132.338 81.3639L132.351 81.259C132.722 78.2404 133.004 75.2073 132.922 72.1668C132.911 71.7167 132.892 71.2665 132.863 70.8149C132.822 70.1608 132.762 69.8141 133.303 69.4047C133.901 68.9531 134.687 68.6369 135.371 68.3412C135.739 68.1809 139.79 66.7401 139.884 67.0563C140.074 67.7306 140.174 68.4272 140.181 69.1279C140.184 69.9878 140.138 70.8472 140.045 71.7021Z" fill="#605D82"/>
<path opacity="0.1" d="M138.285 88.632C138.132 89.4785 137.953 90.3205 137.741 91.1553C137.151 93.4731 136.294 95.7385 136.018 98.1146C136.009 98.1831 136.002 98.253 135.995 98.3229C134.189 95.7385 132.668 92.9588 130.906 90.3467C131.038 89.9738 131.172 89.6008 131.272 89.2177C131.417 88.5986 131.518 87.9701 131.575 87.3369C131.809 85.3439 132.091 83.3554 132.338 81.3639L132.351 81.259C132.454 81.6818 132.602 82.0924 132.792 82.4842C133.975 84.8938 136.787 86.1117 138.163 88.4179C138.205 88.4893 138.246 88.5607 138.285 88.632Z" fill="black"/>
<path d="M123.631 67.4438C123.691 69.3765 124 71.2916 124.308 73.2004L124.944 77.1386C125.292 79.294 125.654 81.4933 126.672 83.4238C127.433 84.8679 128.53 86.1002 129.523 87.3958C131.963 90.5809 133.796 94.189 136.11 97.4674C136.783 98.4204 137.744 99.4509 138.892 99.2519C139.645 99.1213 140.192 98.4929 140.784 98.0084C141.482 97.4372 142.324 97.0192 142.873 96.3032C143.422 95.5873 143.53 94.3971 142.786 93.8876C142.517 93.7382 142.231 93.621 141.934 93.5384C140.78 93.0988 140.034 91.9701 139.559 90.8288C139.084 89.6874 138.796 88.4602 138.163 87.3986C136.787 85.0925 133.975 83.8746 132.791 81.4641C132.128 80.1141 132.065 78.558 132.014 77.0542L131.885 73.2207C131.871 72.8015 131.86 72.3655 132.03 71.9822C132.483 70.9618 133.85 70.8667 134.957 70.7374C136.213 70.5898 137.431 70.205 138.544 69.6034C139.182 69.2584 139.805 68.8186 140.146 68.1779C140.457 67.5935 140.5 66.908 140.537 66.2465L140.92 59.2992C140.953 58.7015 140.983 58.0835 140.773 57.5231C140.245 56.1162 138.472 55.6564 136.973 55.7235C134.184 55.8485 131.609 57.0505 128.98 57.8622C128.328 58.0681 127.667 58.2409 126.998 58.38C126.408 58.4987 125.694 58.4494 125.131 58.6395C124.13 58.9777 124.156 61.171 124.014 62.0808C123.721 63.8527 123.593 65.6481 123.631 67.4438Z" fill="#605D82"/>
<path d="M138.513 99.5432C138.759 99.7917 138.84 100.156 138.904 100.5C139.259 102.408 139.444 104.344 139.456 106.285C139.44 106.466 139.476 106.648 139.56 106.809C139.629 106.906 139.723 106.981 139.832 107.028C140.542 107.368 141.367 106.895 141.96 106.375C143.058 105.411 143.987 104.118 144.049 102.656C144.038 102.28 144.051 101.903 144.088 101.529C144.185 100.979 144.505 100.499 144.788 100.018C145.269 99.1984 145.656 98.3275 145.944 97.4216C146.052 97.0812 146.124 96.6526 145.857 96.4151C145.763 96.341 145.656 96.2851 145.541 96.2503L142.33 95.0558C142.052 94.9523 141.36 96.7342 141.25 96.929C140.981 97.4055 140.714 97.676 140.174 97.786C139.624 97.8983 138.969 97.7372 138.455 98.0124C137.586 98.4778 138.022 99.0461 138.513 99.5432Z" fill="#535070"/>
<path d="M133.559 100.643C133.499 100.524 133.416 100.418 133.314 100.332C133.166 100.238 132.997 100.18 132.821 100.165C132.21 100.061 131.486 99.9921 131.064 100.447C130.668 100.874 130.736 101.569 130.406 102.048C130.301 102.2 130.159 102.325 130.068 102.485C129.956 102.731 129.905 103 129.92 103.269C129.903 104.012 129.886 104.755 129.937 105.496C129.98 106.117 130.085 106.767 130.472 107.254C131.094 108.034 132.216 108.147 133.211 108.197L134.018 108.238C134.24 108.265 134.465 108.245 134.679 108.178C134.811 108.116 134.929 108.029 135.027 107.921C135.125 107.813 135.2 107.687 135.249 107.549C135.668 106.504 135.004 105.378 134.594 104.329C134.123 103.122 134.208 101.783 133.559 100.643Z" fill="#535070"/>
<path d="M126.886 23.7118C126.876 23.6059 126.891 23.4991 126.931 23.4003C127.049 23.1911 127.357 23.248 127.59 23.3068C128.525 23.5431 129.511 23.3292 130.474 23.3844C131.438 23.4396 132.523 23.9221 132.716 24.8691C133.416 24.3725 134.018 23.752 134.495 23.0383C134.762 22.6375 134.995 22.1784 134.959 21.6977C134.906 21.0043 134.326 20.4858 133.788 20.046L132.185 18.7353C131.975 18.5416 131.732 18.3868 131.468 18.2782C131.098 18.1515 130.694 18.2118 130.303 18.2121C129.137 18.2128 127.893 17.6809 126.855 18.2153C126.422 18.4385 126.096 18.821 125.781 19.1939L124.351 20.8903C124.243 20.9985 124.165 21.1321 124.122 21.2788C124.082 21.4859 124.188 21.6902 124.225 21.898C124.292 22.277 124.13 22.6814 124.255 23.0454C124.463 23.6495 125.195 23.7351 125.643 24.0814C125.809 24.2105 126.071 24.6481 126.27 24.6427C126.628 24.6331 126.876 23.991 126.886 23.7118Z" fill="#3F3D56"/>
<path d="M129.312 28.7123C131.842 28.7123 133.892 26.6577 133.892 24.1232C133.892 21.5888 131.842 19.5342 129.312 19.5342C126.783 19.5342 124.732 21.5888 124.732 24.1232C124.732 26.6577 126.783 28.7123 129.312 28.7123Z" fill="#A0616A"/>
<path d="M130.385 34.1664C130.23 33.7204 129.937 33.3356 129.548 33.0678C129.16 32.8 128.696 32.6632 128.225 32.6771C128.09 32.7022 127.951 32.6846 127.827 32.6266C127.756 32.5725 127.7 32.5021 127.663 32.4215C127.384 31.9197 127.161 31.3894 126.995 30.8396C126.922 30.5967 126.822 30.3104 126.577 30.2472C126.475 30.2339 126.372 30.2485 126.278 30.2894C126.184 30.3304 126.103 30.3961 126.044 30.4796C125.927 30.6477 125.8 30.808 125.663 30.9594C125.087 31.4755 124.066 31.0051 123.454 31.4786C123.354 31.5559 123.272 31.655 123.167 31.7253C123.062 31.7887 122.949 31.8373 122.831 31.8698C121.65 32.256 120.493 32.7102 119.364 33.2301C119.771 35.6841 120.188 38.1808 121.141 40.4777C121.595 41.5708 122.109 42.6413 122.472 43.7678C123.277 46.2637 123.313 48.9342 123.322 51.5571C123.328 53.3523 123.319 55.1858 122.739 56.8844C122.583 57.2598 122.473 57.6527 122.412 58.0547C122.377 58.4594 122.494 58.9057 122.822 59.1455C123.012 59.2699 123.229 59.3463 123.454 59.3681C124.459 59.5158 125.471 59.248 126.46 59.0185C129.111 58.4034 131.815 58.0514 134.513 57.7004L139.035 57.1121C139.359 57.0901 139.676 57.008 139.97 56.8699C140.797 56.416 140.876 55.169 140.362 54.3764C140.116 53.9964 139.768 53.6847 139.561 53.2818C139.354 52.8789 139.337 52.3156 139.693 52.0366C140.418 51.469 140.202 50.4159 140.236 49.4949C140.333 46.9196 140.32 44.3432 140.197 41.7659C140.161 41.2324 140.152 40.6974 140.171 40.163C140.252 39.2574 140.419 38.3617 140.67 37.4881L142.044 32.068C141.685 31.4997 140.998 31.1391 140.347 30.9755C139.696 30.8118 139.018 30.7636 138.377 30.5645C137.063 30.1568 135.894 29.1219 134.522 29.2183C134.419 29.2202 134.317 29.2452 134.224 29.2914C133.914 29.467 133.963 29.9137 133.943 30.2694C133.9 31.0564 133.322 31.7141 132.684 32.1752C132.046 32.6363 131.318 32.9726 130.732 33.4985C130.628 33.5769 130.543 33.6775 130.483 33.7931C130.423 33.9087 130.39 34.0362 130.385 34.1664Z" fill="#3F3D56"/>
<path d="M112.237 39.3076C111.933 39.5051 111.61 39.6715 111.273 39.8043C110.943 39.9026 110.632 40.0542 110.351 40.253C110.221 40.3653 110.112 40.4999 110.03 40.6503C109.875 40.9258 109.796 41.2379 109.803 41.5541C109.809 41.8703 109.9 42.1789 110.066 42.4479C110.232 42.7168 110.467 42.9361 110.747 43.0829C111.027 43.2297 111.34 43.2987 111.656 43.2825C112.075 43.2355 112.482 43.1138 112.858 42.9233L116.088 41.5207C116.635 41.2833 117.226 41.0051 117.484 40.4671C117.514 40.417 117.525 40.3576 117.516 40.2999C117.49 40.2389 117.443 40.1893 117.383 40.1602C116.654 39.686 116.017 39.084 115.502 38.383C115.369 38.2027 115.207 37.777 115.02 37.6689C114.336 37.2743 112.784 38.9517 112.237 39.3076Z" fill="#A0616A"/>
<path d="M146.772 38.1567L147.963 39.5198C148.219 39.8125 148.475 40.1055 148.708 40.4165C149.28 41.2068 149.739 42.0735 150.072 42.9913C150.331 43.6719 150.545 44.3969 150.455 45.1197C150.395 45.4902 150.295 45.8531 150.157 46.2021C149.939 46.8733 149.668 47.5263 149.348 48.1551C149.078 48.6327 148.774 49.0898 148.437 49.5225C147.515 50.747 146.506 51.9034 145.418 52.9826C145.011 53.3864 144.84 54.0394 144.663 54.5853C144.336 55.5922 143.558 56.3765 142.806 57.1201C142.564 57.3759 142.297 57.6063 142.008 57.8076C141.576 58.0865 141.071 58.2306 140.557 58.2217C140.332 58.2233 140.109 58.1771 139.903 58.0861C139.389 57.8412 139.127 57.2448 139.073 56.6763C139.026 56.1605 139.112 55.6409 139.324 55.1684C140.007 53.6515 141.762 52.9942 143.003 51.8874C143.73 51.2384 144.287 50.4232 144.835 49.6168C145.208 49.1134 145.519 48.567 145.762 47.9893C146.039 47.2487 145.931 46.3719 146.173 45.619C146.275 45.3007 146.457 45.0134 146.567 44.6977C146.677 44.3821 146.705 44.0074 146.513 43.7342C146.367 43.5606 146.182 43.4249 145.973 43.3387C145.181 42.9357 144.293 42.417 144.142 41.5396C144.081 41.0531 144.208 40.5617 144.497 40.1656C144.784 39.7748 145.12 39.4222 145.496 39.1162C145.842 38.8092 146.425 38.4638 146.772 38.1567Z" fill="#A0616A"/>
<path d="M111.472 41.2105C111.262 40.7848 110.999 40.3506 110.575 40.1389C110.369 40.0494 110.147 40.0028 109.923 40.0018C109.699 40.0009 109.477 40.0457 109.27 40.1334C108.859 40.3112 108.473 40.5446 108.125 40.8272L107.099 41.5854C106.866 41.7383 106.66 41.9288 106.489 42.149C106.327 42.4162 106.219 42.7127 106.172 43.0217C105.993 43.7262 105.938 44.4567 106.01 45.1801C106.173 46.34 106.871 47.3526 107.639 48.2355C108.119 48.7872 108.712 49.344 109.442 49.3675C109.757 49.3777 110.108 49.2532 110.239 48.9659C110.284 48.852 110.309 48.7306 110.31 48.608C110.389 47.3142 109.927 46.0505 109.389 44.872C109.217 44.5635 109.115 44.2206 109.091 43.8682C109.087 43.8088 109.103 43.7499 109.135 43.7C109.182 43.6516 109.244 43.6212 109.311 43.6143C110.048 43.4682 111.318 44.042 111.835 43.2217C112.17 42.6899 111.711 41.6927 111.472 41.2105Z" fill="#A0616A"/>
<path d="M126.645 22.2678C126.635 22.1618 126.651 22.055 126.691 21.9563C126.809 21.7471 127.117 21.804 127.35 21.8628C128.285 22.0991 129.271 21.8852 130.234 21.9404C131.197 21.9956 132.283 22.4781 132.476 23.4251C133.175 22.9285 133.778 22.308 134.255 21.5943C134.522 21.1935 134.755 20.7343 134.718 20.2536C134.666 19.5603 134.085 19.0417 133.548 18.602L131.945 17.2912C131.735 17.0975 131.492 16.9428 131.228 16.8341C130.858 16.7074 130.454 16.7678 130.063 16.7681C128.896 16.7688 127.653 16.2369 126.615 16.7712C126.182 16.9944 125.856 17.3769 125.541 17.7499L124.111 19.4463C124.003 19.5544 123.925 19.6881 123.882 19.8348C123.841 20.0418 123.948 20.2462 123.985 20.454C124.052 20.8329 123.889 21.2374 124.015 21.6013C124.222 22.2055 124.955 22.291 125.402 22.6374C125.569 22.7665 125.831 23.204 126.029 23.1987C126.388 23.189 126.636 22.547 126.645 22.2678Z" fill="#3F3D56"/>
<path d="M116.917 34.8439C116.732 34.9634 116.57 35.1148 116.438 35.2911C116.27 35.5455 116.236 35.8666 116.092 36.1352C115.783 36.7099 115.061 36.9143 114.611 37.3858C114.539 37.4507 114.489 37.5361 114.468 37.6305C114.466 37.7584 114.509 37.8831 114.589 37.9826L116.761 41.4036C117.484 41.4674 118.178 41.0135 118.902 41.0738C119.172 41.0963 119.448 41.1897 119.707 41.1098C119.893 41.0274 120.066 40.9209 120.224 40.793C120.656 40.5196 121.231 40.4877 121.593 40.1269C121.94 39.7807 121.984 39.239 121.98 38.748C121.986 38.3216 121.943 37.896 121.851 37.4796C121.531 36.1664 120.529 35.1587 119.901 33.9955C119.595 33.4292 119.428 33.0977 118.781 33.4866C118.13 33.8774 117.53 34.3951 116.917 34.8439Z" fill="#3F3D56"/>
<path d="M143.295 33.1139C143.703 33.3794 144.071 33.7024 144.387 34.0728C144.718 34.5002 144.906 35.0234 145.224 35.4606C145.532 35.8845 145.951 36.2128 146.3 36.603C146.83 37.195 147.189 37.9171 147.542 38.6295C146.681 39.7546 145.742 40.8176 144.732 41.8109C144.62 41.9436 144.472 42.0411 144.306 42.0918C144.193 42.1039 144.079 42.0877 143.973 42.0447C143.868 42.0017 143.775 41.9333 143.703 41.8455C143.546 41.6811 143.435 41.4784 143.286 41.3076C142.933 40.9428 142.463 40.7149 141.958 40.6642C141.458 40.6158 140.955 40.6088 140.454 40.6434C140.344 40.6557 140.232 40.637 140.132 40.5893C140.058 40.5379 139.998 40.4686 139.957 40.3878C139.369 39.3853 139.558 38.1265 139.766 36.9824L140.242 34.357C140.311 33.8556 140.444 33.3652 140.638 32.8979C140.818 32.5118 141.221 31.8571 141.717 31.9727C142.217 32.0892 142.874 32.8108 143.295 33.1139Z" fill="#3F3D56"/>
<path d="M56.1586 50.3526C60.158 50.3526 63.4002 47.0982 63.4002 43.0837C63.4002 39.0693 60.158 35.8149 56.1586 35.8149C52.1592 35.8149 48.917 39.0693 48.917 43.0837C48.917 47.0982 52.1592 50.3526 56.1586 50.3526Z" fill="white"/>
<path d="M56.1585 34.5761C54.4468 34.5761 52.7735 35.0847 51.3503 36.0375C49.927 36.9903 48.8178 38.3446 48.1627 39.9291C47.5077 41.5136 47.3363 43.2571 47.6702 44.9392C48.0041 46.6213 48.8284 48.1664 50.0388 49.3791C51.2492 50.5918 52.7913 51.4177 54.4701 51.7523C56.1489 52.0869 57.8891 51.9152 59.4705 51.2589C61.0519 50.6025 62.4036 49.4911 63.3546 48.0651C64.3055 46.6391 64.8131 44.9626 64.8131 43.2475C64.8064 40.9498 63.8924 38.7481 62.2708 37.1233C60.6492 35.4986 58.4518 34.5828 56.1585 34.5761ZM54.3818 47.8709L49.9463 43.4268L51.1904 42.1803L54.386 45.382L61.1308 38.6242L62.3749 39.8707L54.3818 47.8709L54.3818 47.8709Z" fill="#57B894"/>
</g>
<defs>
<clipPath id="clip0">
<rect width="179" height="108" fill="white" transform="translate(0 0.245911)"/>
</clipPath>
</defs>
</svg>
