<svg width="129" height="108" viewBox="0 0 129 108" fill="none" xmlns="http://www.w3.org/2000/svg">
<g clip-path="url(#clip0)">
<path opacity="0.1" d="M74.949 14.4416C66.679 14.1549 58.8026 11.4928 51.2814 8.57959C43.7602 5.66642 36.3106 2.43847 28.2387 0.895228C23.0469 -0.097495 17.1089 -0.237674 12.9267 2.53787C8.90028 5.21402 7.59947 9.82082 6.90051 14.1001C6.37405 17.3191 6.06482 20.7076 7.50619 23.7202C8.50799 25.8127 10.2842 27.5713 11.5134 29.5759C15.7902 36.5492 12.7669 45.1485 8.1336 51.9574C5.96132 55.1522 3.43765 58.2017 1.75988 61.5992C0.0821178 64.9966 -0.693512 68.8949 0.774691 72.3637C2.22884 75.8044 5.69554 78.3837 9.45102 80.1997C17.0783 83.8889 26.0625 84.9441 34.8296 85.5418C54.2306 86.8658 73.7338 86.2924 93.1859 85.7189C100.385 85.5061 107.615 85.2907 114.697 84.1808C118.63 83.564 122.689 82.5865 125.545 80.2239C129.169 77.2253 130.067 72.1483 127.638 68.3877C123.565 62.0809 112.304 60.5147 109.454 53.7466C107.887 50.0204 109.496 45.8711 111.774 42.415C116.661 35.0034 124.85 28.5003 125.281 20.0284C125.577 14.2097 121.64 8.38207 115.553 5.62819C109.173 2.74304 100.324 3.10496 95.6188 7.88252C90.7695 12.8015 82.2517 14.694 74.949 14.4416Z" fill="#009688"/>
<path opacity="0.1" d="M61.781 105.012C83.2327 105.012 100.623 102.666 100.623 99.7718C100.623 96.8778 83.2327 94.5317 61.781 94.5317C40.3294 94.5317 22.9395 96.8778 22.9395 99.7718C22.9395 102.666 40.3294 105.012 61.781 105.012Z" fill="#009688"/>
<path d="M82.9772 37.1793H82.4303C82.2687 37.1793 82.1377 37.3099 82.1377 37.4711V46.1928C82.1377 46.3539 82.2687 46.4846 82.4303 46.4846H82.9772C83.1388 46.4846 83.2698 46.3539 83.2698 46.1928V37.4711C83.2698 37.3099 83.1388 37.1793 82.9772 37.1793Z" fill="#3A3768"/>
<path d="M44.8576 29.8887H44.8078C44.6461 29.8887 44.5151 30.0193 44.5151 30.1805V32.6604C44.5151 32.8216 44.6461 32.9522 44.8078 32.9522H44.8576C45.0192 32.9522 45.1502 32.8216 45.1502 32.6604V30.1805C45.1502 30.0193 45.0192 29.8887 44.8576 29.8887Z" fill="#3A3768"/>
<path d="M44.9151 35.4984H44.7848C44.6232 35.4984 44.4922 35.6291 44.4922 35.7902V40.5385C44.4922 40.6997 44.6232 40.8303 44.7848 40.8303H44.9151C45.0767 40.8303 45.2078 40.6997 45.2078 40.5385V35.7902C45.2078 35.6291 45.0767 35.4984 44.9151 35.4984Z" fill="#3A3768"/>
<path d="M44.8919 42.696H44.796C44.6344 42.696 44.5034 42.8266 44.5034 42.9878V47.7819C44.5034 47.9431 44.6344 48.0738 44.796 48.0738H44.8919C45.0535 48.0738 45.1845 47.9431 45.1845 47.7819V42.9878C45.1845 42.8266 45.0535 42.696 44.8919 42.696Z" fill="#3A3768"/>
<path d="M77.7661 19.7653H49.8562C47.1046 19.7653 44.874 21.9898 44.874 24.734V91.5625C44.874 94.3066 47.1046 96.5312 49.8562 96.5312H77.7661C80.5177 96.5312 82.7483 94.3066 82.7483 91.5625V24.734C82.7483 21.9898 80.5177 19.7653 77.7661 19.7653Z" fill="#3A3768"/>
<path d="M77.406 21.7596H73.0614V22.2808C73.0614 22.6052 72.9973 22.9265 72.8728 23.2262C72.7482 23.5259 72.5657 23.7982 72.3356 24.0276C72.1055 24.2569 71.8324 24.4388 71.5318 24.5629C71.2312 24.6869 70.909 24.7507 70.5837 24.7505H56.7668C56.4415 24.7507 56.1193 24.6869 55.8187 24.5629C55.5181 24.4388 55.245 24.2569 55.0149 24.0276C54.7848 23.7982 54.6023 23.5259 54.4777 23.2262C54.3532 22.9265 54.2891 22.6052 54.2891 22.2808V21.7596H50.2218C49.4241 21.7596 48.659 22.0756 48.0949 22.6382C47.5308 23.2008 47.2139 23.9638 47.2139 24.7594V91.5318C47.2139 92.3274 47.5308 93.0905 48.0949 93.653C48.659 94.2156 49.4241 94.5317 50.2218 94.5317H77.406C78.2037 94.5317 78.9688 94.2156 79.5329 93.653C80.097 93.0905 80.4139 92.3274 80.4139 91.5318V24.7645C80.4146 24.3701 80.3373 23.9795 80.1864 23.615C80.0356 23.2504 79.8141 22.9191 79.5347 22.64C79.2553 22.3609 78.9235 22.1395 78.5582 21.9884C78.193 21.8373 77.8014 21.7596 77.406 21.7596Z" fill="#009688"/>
<path d="M64.9525 22.0578H60.6527C60.3796 22.0578 60.1582 22.2786 60.1582 22.551V22.6351C60.1582 22.9075 60.3796 23.1283 60.6527 23.1283H64.9525C65.2256 23.1283 65.447 22.9075 65.447 22.6351V22.551C65.447 22.2786 65.2256 22.0578 64.9525 22.0578Z" fill="#E6E8EC"/>
<path d="M66.8561 23.2009C67.1927 23.2009 67.4656 22.9288 67.4656 22.593C67.4656 22.2573 67.1927 21.9852 66.8561 21.9852C66.5195 21.9852 66.2466 22.2573 66.2466 22.593C66.2466 22.9288 66.5195 23.2009 66.8561 23.2009Z" fill="#E6E8EC"/>
<path d="M95.8615 16.3984C95.8615 16.3984 85.1023 15.751 86.3699 23.2697C86.3699 23.2697 86.1144 24.5988 87.3257 25.2016C87.3257 25.2016 87.3449 24.6447 88.4298 24.8346C88.816 24.8985 89.2084 24.9173 89.5989 24.8907C90.1259 24.8561 90.6272 24.6517 91.0275 24.3083C91.0275 24.3083 94.0521 23.062 95.2277 18.1328C95.2277 18.1328 96.0979 17.0572 96.0634 16.7807L94.2476 17.5542C94.2476 17.5542 94.8686 18.8604 94.3754 19.9462C94.3754 19.9462 94.3166 17.6014 93.9678 17.6523C93.8975 17.6625 93.0248 18.1047 93.0248 18.1047C93.0248 18.1047 94.0917 20.3795 93.2867 22.0336C93.2867 22.0336 93.5921 19.23 92.6912 18.2691L91.4134 19.0133C91.4134 19.0133 92.6606 21.3633 91.8147 23.2812C91.8147 23.2812 92.0319 20.34 91.1438 19.1943L89.9861 20.0953C89.9861 20.0953 91.1579 22.4108 90.4436 24.0012C90.4436 24.0012 90.3503 20.5783 89.7357 20.3196C89.7357 20.3196 88.7224 21.2116 88.5678 21.5761C88.5678 21.5761 89.3702 23.2582 88.8719 24.1452C88.8719 24.1452 88.5665 21.8641 88.316 21.8513C88.316 21.8513 87.3066 23.3627 87.2018 24.4001C87.2018 24.4001 87.2452 22.8594 88.072 21.7086C88.072 21.7086 87.0957 21.8756 86.5258 22.5064C86.5258 22.5064 86.683 21.4384 88.3211 21.3441C88.3211 21.3441 89.1555 20.1972 89.3779 20.1284C89.3779 20.1284 87.75 19.9921 86.7622 20.4292C86.7622 20.4292 87.6311 19.4211 89.6769 19.8799L90.8205 18.9484C90.8205 18.9484 88.6764 18.6565 87.7666 18.9789C87.7666 18.9789 88.8131 18.0869 91.1285 18.7368L92.3731 17.9951C92.3731 17.9951 90.5445 17.6026 89.4558 17.7403C89.4558 17.7403 90.6059 17.1222 92.7385 17.7925L93.633 17.3936C93.633 17.3936 92.2938 17.1311 91.9016 17.0891C91.5093 17.047 91.4888 16.94 91.4888 16.94C92.3372 16.7989 93.2083 16.8955 94.0048 17.2191C94.0048 17.2191 95.8934 16.5169 95.8615 16.3984Z" fill="#009688"/>
<path d="M84.8247 13.0545C84.8247 13.0545 79.969 12.7627 80.5363 16.1601C80.5363 16.1601 80.4226 16.7603 80.9682 17.033C80.9682 17.033 80.9772 16.7782 81.4679 16.8661C81.6422 16.8953 81.8193 16.9039 81.9956 16.8916C82.234 16.8759 82.4606 16.7828 82.6409 16.6265C82.6409 16.6265 84.0082 16.0632 84.5397 13.8357C84.5397 13.8357 84.932 13.3501 84.9167 13.2253L84.0963 13.5744C84.0963 13.5744 84.3762 14.1645 84.1564 14.6551C84.1564 14.6551 84.1296 13.5961 83.9724 13.6203C83.9404 13.6203 83.5456 13.8255 83.5456 13.8255C83.5456 13.8255 84.0286 14.8539 83.6644 15.6007C83.6644 15.6007 83.8024 14.3339 83.3948 13.8994L82.8172 14.2409C82.8172 14.2409 83.3808 15.3025 82.9987 16.169C82.9987 16.169 83.0971 14.8399 82.6959 14.3225L82.1732 14.7303C82.1732 14.7303 82.7022 15.7765 82.3802 16.4952C82.3802 16.4952 82.3368 14.9482 82.0595 14.8309C82.0595 14.8309 81.602 15.2336 81.5318 15.3993C81.5318 15.3993 81.8947 16.1639 81.6698 16.5602C81.6698 16.5602 81.5318 15.5293 81.4142 15.5242C81.4142 15.5242 80.958 16.2072 80.9107 16.6711C80.9336 16.2386 81.0692 15.8195 81.3043 15.4554C81.0411 15.5051 80.7981 15.6305 80.6053 15.816C80.6053 15.816 80.6769 15.333 81.4168 15.291C81.4168 15.291 81.8001 14.7723 81.8947 14.7405C81.8947 14.7405 81.1586 14.6793 80.7127 14.8768C80.7127 14.8768 81.105 14.4219 82.0288 14.6283L82.54 14.2078C82.54 14.2078 81.5701 14.0803 81.1599 14.2218C81.1599 14.2218 81.6327 13.8191 82.6792 14.1122L83.2415 13.777C83.2415 13.777 82.4147 13.5999 81.9228 13.6636C81.9228 13.6636 82.4428 13.3845 83.4063 13.6866L83.8088 13.5069C83.8088 13.5069 83.2031 13.3884 83.0255 13.3693C82.8479 13.3501 82.839 13.3017 82.839 13.3017C83.2226 13.2381 83.6163 13.2822 83.9762 13.4292C83.9762 13.4292 84.84 13.108 84.8247 13.0545Z" fill="#009688"/>
<path opacity="0.1" d="M110.425 99.3768C112.325 99.3768 113.866 99.1172 113.866 98.7969C113.866 98.4767 112.325 98.2171 110.425 98.2171C108.524 98.2171 106.983 98.4767 106.983 98.7969C106.983 99.1172 108.524 99.3768 110.425 99.3768Z" fill="#009688"/>
<path opacity="0.1" d="M11.6394 104.135C13.5399 104.135 15.0805 103.876 15.0805 103.555C15.0805 103.235 13.5399 102.976 11.6394 102.976C9.73889 102.976 8.19824 103.235 8.19824 103.555C8.19824 103.876 9.73889 104.135 11.6394 104.135Z" fill="#009688"/>
<path opacity="0.1" d="M24.9504 107.246C26.8509 107.246 28.3916 106.986 28.3916 106.666C28.3916 106.346 26.8509 106.086 24.9504 106.086C23.0499 106.086 21.5093 106.346 21.5093 106.666C21.5093 106.986 23.0499 107.246 24.9504 107.246Z" fill="#009688"/>
<path d="M102.892 105.877C105.73 105.877 108.03 105.489 108.03 105.011C108.03 104.532 105.73 104.144 102.892 104.144C100.054 104.144 97.7539 104.532 97.7539 105.011C97.7539 105.489 100.054 105.877 102.892 105.877Z" fill="#009688"/>
<path d="M105.017 103.594C105.251 103.403 105.422 103.145 105.506 102.856C105.57 102.564 105.445 102.219 105.164 102.105C104.85 101.985 104.513 102.203 104.259 102.422C104.005 102.642 103.712 102.893 103.379 102.846C103.55 102.691 103.679 102.494 103.752 102.275C103.824 102.056 103.839 101.822 103.794 101.595C103.779 101.502 103.739 101.413 103.678 101.341C103.504 101.154 103.187 101.234 102.979 101.381C102.314 101.846 102.129 102.747 102.125 103.557C102.058 103.265 102.115 102.96 102.112 102.665C102.11 102.369 102.029 102.027 101.775 101.871C101.618 101.787 101.442 101.745 101.264 101.751C100.965 101.739 100.633 101.77 100.428 101.988C100.173 102.258 100.242 102.712 100.462 103.007C100.681 103.303 101.017 103.493 101.327 103.698C101.574 103.845 101.785 104.046 101.944 104.286C101.963 104.319 101.978 104.355 101.99 104.391H103.857C104.278 104.179 104.668 103.91 105.017 103.594Z" fill="#009688"/>
<path d="M25.1283 92.4162C25.1283 92.4162 25.8311 93.3325 24.805 94.7101C23.7789 96.0877 22.933 97.2588 23.2716 98.1215C23.2716 98.1215 24.8203 95.5537 26.0828 95.518C27.3453 95.4823 26.5147 93.9608 25.1283 92.4162Z" fill="#009688"/>
<path opacity="0.1" d="M25.128 92.4162C25.1893 92.5049 25.2374 92.6019 25.2711 92.7042C26.5003 94.1443 27.1559 95.4887 25.9739 95.5218C24.8737 95.5537 23.5537 97.5162 23.2368 98.0119C23.247 98.0502 23.2598 98.0871 23.2739 98.1254C23.2739 98.1254 24.8226 95.5575 26.0851 95.5218C27.3475 95.4862 26.5144 93.9608 25.128 92.4162Z" fill="black"/>
<path d="M26.433 93.5835C26.433 93.9059 26.3972 94.1672 26.3525 94.1672C26.3078 94.1672 26.272 93.9059 26.272 93.5835C26.272 93.2611 26.3167 93.4128 26.3614 93.4128C26.4061 93.4128 26.433 93.2611 26.433 93.5835Z" fill="#FFD037"/>
<path d="M26.8815 93.9684C26.5978 94.1226 26.3499 94.2156 26.3295 94.1761C26.309 94.1366 26.5199 93.9799 26.8036 93.8257C27.0872 93.6715 26.9761 93.7836 26.9965 93.8257C27.017 93.8677 27.1652 93.8142 26.8815 93.9684Z" fill="#FFD037"/>
<path d="M21.4214 92.4162C21.4214 92.4162 20.7186 93.3325 21.7446 94.7101C22.7707 96.0877 23.6166 97.2588 23.278 98.1215C23.278 98.1215 21.7306 95.5537 20.4668 95.518C19.2031 95.4823 20.0324 93.9608 21.4214 92.4162Z" fill="#009688"/>
<path opacity="0.1" d="M21.4212 92.4162C21.3597 92.505 21.3111 92.6019 21.2768 92.7042C20.0476 94.1443 19.3933 95.4887 20.574 95.5218C21.6755 95.5537 22.9955 97.5162 23.3124 98.0119C23.3019 98.0505 23.2891 98.0884 23.274 98.1254C23.274 98.1254 21.7266 95.5575 20.4629 95.5218C19.1991 95.4862 20.0322 93.9608 21.4212 92.4162Z" fill="black"/>
<path d="M20.1152 93.5835C20.1152 93.9059 20.1523 94.1672 20.197 94.1672C20.2417 94.1672 20.2775 93.9059 20.2775 93.5835C20.2775 93.2611 20.2328 93.4128 20.1881 93.4128C20.1433 93.4128 20.1152 93.2611 20.1152 93.5835Z" fill="#FFD037"/>
<path d="M19.668 93.9684C19.9517 94.1226 20.1983 94.2156 20.2201 94.1761C20.2418 94.1366 20.0284 93.9799 19.7447 93.8257C19.461 93.6715 19.5735 93.7836 19.5518 93.8257C19.53 93.8677 19.3844 93.8142 19.668 93.9684Z" fill="#FFD037"/>
<path d="M20.3389 98.0056C20.3389 98.0056 22.3016 97.9444 22.8945 97.5251C23.4874 97.1059 25.914 96.6025 26.0596 97.2766C26.2053 97.9508 29.0101 100.627 26.7944 100.645C24.5786 100.663 21.6448 100.301 21.0544 99.9426C20.4641 99.5845 20.3389 98.0056 20.3389 98.0056Z" fill="#A8A8A8"/>
<path opacity="0.2" d="M26.8327 100.41C24.617 100.428 21.6831 100.066 21.0928 99.7081C20.6443 99.4341 20.4641 98.4541 20.404 98.003H20.3389C20.3389 98.003 20.4666 99.5807 21.0532 99.94C21.6397 100.299 24.5774 100.66 26.7931 100.642C27.432 100.642 27.6531 100.41 27.6416 100.074C27.5521 100.28 27.308 100.406 26.8327 100.41Z" fill="black"/>
<path d="M36.0635 56.9165C36.0817 56.934 36.1051 56.9452 36.1302 56.9484C36.1552 56.9517 36.1807 56.9467 36.2028 56.9343C36.1557 56.9351 36.1088 56.929 36.0635 56.9165Z" fill="url(#paint0_linear)"/>
<path d="M51.3758 31.5568C51.1062 31.4778 50.7229 31.3491 50.259 31.1873C50.7404 30.5603 51.0922 29.8443 51.294 29.0808L51.2544 29.096C51.2672 29.0489 51.2813 29.003 51.294 28.9559C50.4072 29.3203 49.4246 28.701 48.7998 27.9096C48.1749 27.1182 47.7494 26.1332 47.0658 25.403C46.7803 25.1137 46.4732 24.8466 46.147 24.6039C45.9451 24.4459 45.7266 24.2815 45.48 24.2739C45.0813 24.2624 44.7683 24.6562 44.3836 24.7747C44.13 24.8325 43.8656 24.8228 43.617 24.7467C42.6241 24.516 41.667 24.0916 40.6588 23.9821C40.1169 23.9141 39.5666 23.9765 39.0539 24.1643C38.5428 24.3605 38.3128 24.7492 37.9039 25.0563C37.4605 25.3902 36.5775 25.3826 36.0549 25.4386C35.4213 25.5112 34.7833 25.5381 34.1458 25.5189C33.7793 25.4859 33.41 25.4996 33.0469 25.5597C32.2879 25.7279 31.6784 26.3371 31.1098 26.9233C30.9538 27.0571 30.8421 27.2348 30.789 27.433C30.782 27.4889 30.782 27.5454 30.789 27.6012C30.7831 27.7536 30.8093 27.9055 30.8657 28.0472C31.0375 28.5741 31.2827 29.0743 31.594 29.5331C31.8266 29.8696 32.0962 30.1856 32.2329 30.5832C32.2957 30.779 32.3289 30.983 32.3313 31.1885C32.3242 31.4069 32.3015 31.6245 32.2636 31.8397C32.1632 32.4331 31.9982 33.0138 31.7717 33.5716C31.6515 33.8672 31.5161 34.1616 31.4841 34.4853C31.4803 34.5498 31.4803 34.6145 31.4841 34.679C31.4458 35.6768 32.4438 36.3968 32.6342 37.3896C32.6493 37.4716 32.6587 37.5547 32.6623 37.6381C32.6406 38.2574 32.2917 38.8627 31.778 39.1023C31.8228 39.1201 31.8688 39.1354 31.9148 39.152C31.8706 39.1799 31.825 39.2055 31.778 39.2284C31.8713 39.2641 31.9672 39.2947 32.0643 39.3228C31.4767 39.8361 30.9834 40.4476 30.6063 41.1298C28.8864 44.3832 17.1637 50.7652 17.1637 50.7652C17.1637 50.7652 17.2302 50.8022 17.3375 50.8659C17.2941 50.8926 17.2481 50.9232 17.197 50.9576C16.1824 51.6407 13.8005 53.6338 15.9537 56.1468C15.9537 56.1468 17.634 53.4643 18.8108 52.3237C18.8645 52.2728 18.9156 52.2256 18.9654 52.181C18.9918 52.2212 19.0094 52.2665 19.0173 52.3138C19.0253 52.3612 19.0232 52.4097 19.0114 52.4563L26.7205 48.0763C26.7205 48.0763 29.4601 46.1367 30.2242 45.6984C30.4875 45.548 31.1583 45.13 31.9608 44.9452L31.8713 44.9847C32.1593 44.9044 32.4565 44.8616 32.7556 44.8573C34.1203 44.8789 35.5974 45.8895 36.0855 49.8923C36.7385 55.2522 36.4357 56.2182 36.2261 56.3507C36.2001 56.3487 36.1744 56.344 36.1494 56.3367C36.1557 56.3425 36.1625 56.3476 36.1699 56.352C36.1413 56.3501 36.113 56.345 36.0855 56.3367C36.1003 56.3506 36.1184 56.3606 36.1381 56.3655C36.1578 56.3704 36.1784 56.3701 36.198 56.3647C36.2122 56.3689 36.2271 56.3701 36.2418 56.3683C36.2566 56.3666 36.2708 56.3619 36.2836 56.3545C36.313 56.3545 36.3475 56.3545 36.3871 56.3545C36.3871 56.4029 36.3794 56.4539 36.3756 56.5036C36.3654 56.5036 36.3143 56.5329 36.3756 56.5368C36.3603 56.8388 36.3615 57.1739 36.3756 57.5116C35.6971 57.5499 35.0199 57.5906 34.4257 57.6276L34.4793 57.3434L34.5036 57.216C35.0237 57.1739 35.5182 57.0197 35.5757 56.5915C35.7035 55.6536 34.4257 55.1528 33.3459 55.0904C32.2662 55.0279 25.7647 55.4663 25.7647 55.4663C25.7647 55.4663 24.7897 56.7406 27.8807 57.137C27.9727 57.1854 28.0686 57.2389 28.1657 57.295C29.3758 57.9933 31.019 59.2779 31.8049 59.9112L31.9148 59.9992L31.5621 60.2834C33.4788 60.7217 35.3214 68.1054 36.3398 71.4837C37.3582 74.862 39.5893 74.7371 41.437 74.2376C43.1684 73.7673 43.3895 68.6839 43.41 68.0455C43.41 68.0021 43.41 67.9805 43.41 67.9805L46.4882 71.8176L46.722 72.1094C46.8128 72.1565 46.9009 72.2011 46.9878 72.2432C49.3198 73.3659 51.8959 71.2148 51.1624 68.768C50.4226 66.2958 49.2725 62.6422 48.5059 61.0977C47.8669 59.8042 47.0351 57.6569 46.5316 56.3086C46.5969 56.2819 46.6605 56.2512 46.722 56.2169C46.722 56.2169 46.7105 56.157 46.6901 56.0461L46.722 56.0296C46.722 56.0296 45.9809 52.1364 45.94 49.3723C45.94 49.3239 45.94 49.2755 45.94 49.227C45.94 49.1786 45.94 49.1672 45.94 49.1366C46.4971 49.0091 46.8498 48.9582 46.8498 48.9582L46.86 48.8384L46.7949 48.8524L47.1041 45.2663C47.1041 45.2663 48.2413 42.8209 47.3712 41.8014C47.1062 41.5021 46.9293 41.1356 46.86 40.7424C46.7144 39.8045 46.86 38.2434 48.8879 36.9448C52.0096 34.9428 53.221 33.3154 53.221 33.3154C53.221 33.3154 53.2874 32.1201 51.3758 31.5568ZM45.1759 34.0444V32.3877C45.7547 32.3597 46.3464 32.4272 46.9278 32.3877C47.2137 32.3676 47.497 32.3198 47.7737 32.245L47.9142 32.3431C47.0636 33.0041 46.1458 33.5743 45.1759 34.0444ZM36.3258 60.017C36.5545 60.1776 36.7845 60.3445 37.0107 60.5115C37.1512 61.3283 37.2752 61.9056 37.2841 61.9451C37.0258 61.274 36.705 60.6284 36.3258 60.017Z" fill="url(#paint1_linear)"/>
<path d="M41.3297 58.9708L41.1917 59.7175L41.0856 60.2884L40.8927 61.3334L39.022 62.6396C39.022 62.6396 38.8533 62.4956 38.5747 62.2688C37.808 61.6393 36.1967 60.3573 35.0135 59.6691C34.7091 59.4757 34.3799 59.3243 34.0347 59.2193L41.3297 58.9708Z" fill="#FFBDC6"/>
<path opacity="0.1" d="M41.3297 58.9708L41.1917 59.7175C40.7791 59.7399 40.3654 59.7185 39.9573 59.6538L35.5923 59.7163C35.3866 59.7035 35.1936 59.6882 35.0135 59.6691C34.7091 59.4757 34.3799 59.3243 34.0347 59.2193L41.3297 58.9708Z" fill="black"/>
<path d="M39.9572 59.5264C39.9572 59.5264 42.1385 59.8998 42.2662 58.9708C42.394 58.0418 41.1431 57.5397 40.0837 57.4772C39.0244 57.4148 32.6635 57.8506 32.6635 57.8506C32.6635 57.8506 31.5416 59.3429 35.5935 59.5926L39.9572 59.5264Z" fill="#474463"/>
<path opacity="0.1" d="M41.3297 58.9708L41.1917 59.7175L41.0856 60.2884L40.8927 61.3334L39.022 62.6396C39.022 62.6396 38.8533 62.4956 38.5747 62.2688C37.808 61.6393 36.1967 60.3573 35.0135 59.6691C34.7091 59.4757 34.3799 59.3243 34.0347 59.2193L41.3297 58.9708Z" fill="black"/>
<path opacity="0.1" d="M41.3297 58.9708L41.1917 59.7175C40.7791 59.7399 40.3654 59.7185 39.9573 59.6538L35.5923 59.7163C35.3866 59.7035 35.1936 59.6882 35.0135 59.6691C34.7091 59.4757 34.3799 59.3243 34.0347 59.2193L41.3297 58.9708Z" fill="black"/>
<path opacity="0.1" d="M39.9571 59.5238C39.9571 59.5238 42.1396 59.8959 42.2648 58.9631C42.39 58.0303 41.1416 57.5333 40.0823 57.4708C39.023 57.4084 32.662 57.8442 32.662 57.8442C32.662 57.8442 31.5401 59.3365 35.5921 59.585L39.9571 59.5238Z" fill="black"/>
<path d="M44.7272 28.8705H33.3164V42.3646H44.7272V28.8705Z" fill="#474463"/>
<path opacity="0.1" d="M44.7272 28.9316H33.3164V42.4258H44.7272V28.9316Z" fill="black"/>
<path d="M19.9426 51.9707C19.7548 52.0179 19.5145 52.1989 19.2475 52.4614C18.0974 53.5968 16.4503 56.2615 16.4503 56.2615C14.3445 53.7599 16.6752 51.7834 17.6681 51.1042C17.9096 50.9398 18.0719 50.8493 18.0719 50.8493L19.9426 51.9707Z" fill="#FFBDC6"/>
<path d="M41.2041 33.1294C41.2041 33.1294 41.7651 37.0468 43.6984 37.9796C45.6317 38.9124 41.2041 40.6557 41.2041 40.6557L35.1562 38.4154C35.1562 38.4154 38.5859 37.2953 37.8997 33.9998L41.2041 33.1294Z" fill="#FFBDC6"/>
<path d="M34.7196 56.6973L34.5828 57.4415L34.4717 58.015L34.2787 59.06L32.408 60.3649C32.408 60.3649 32.2393 60.2222 31.9608 59.9954C31.1941 59.3658 29.5828 58.0838 28.3982 57.3957C28.094 57.202 27.7647 57.0506 27.4194 56.9458L34.7196 56.6973Z" fill="#FFBDC6"/>
<path opacity="0.1" d="M34.7193 56.6973L34.5826 57.4416C34.17 57.4639 33.7563 57.4425 33.3482 57.3778L28.9832 57.4403C28.7775 57.4275 28.5833 57.4122 28.4031 57.3931C28.0989 57.1994 27.7696 57.0481 27.4243 56.9433L34.7193 56.6973Z" fill="black"/>
<path d="M33.348 57.2568C33.348 57.2568 35.5305 57.6289 35.6544 56.6973C35.7784 55.7658 34.5325 55.2662 33.4719 55.2038C32.4114 55.1413 26.053 55.5772 26.053 55.5772C26.053 55.5772 24.9298 57.0694 28.983 57.3192L33.348 57.2568Z" fill="#474463"/>
<path opacity="0.1" d="M34.4713 58.015L34.2784 59.06L32.4077 60.3649C32.4077 60.3649 32.239 60.2222 31.9604 59.9954L34.4343 57.9717L34.4713 58.015Z" fill="black"/>
<path d="M46.8267 72.2508C46.7411 72.2088 46.6555 72.1654 46.5711 72.1234L46.3411 71.8341L43.3242 68.0187C43.3242 68.0187 43.3242 68.0416 43.3242 68.085C43.3038 68.7221 43.0865 73.7711 41.3922 74.2375C39.5841 74.7345 37.4029 74.8594 36.4087 71.5015C35.4146 68.1436 33.5975 60.8058 31.7319 60.37L34.5073 58.1004C34.5073 58.1004 36.3448 60.2438 37.0936 62.2956C37.0655 62.1681 35.7966 56.2551 36.8381 55.2089H45.9424C45.9424 55.2089 47.348 59.2014 48.3115 61.1792C49.0616 62.7148 50.1873 66.3455 50.9118 68.8024C51.63 71.2288 49.1089 73.371 46.8267 72.2508Z" fill="#474463"/>
<path opacity="0.1" d="M46.5671 56.324C45.1615 57.1536 38.9909 56.8159 36.9835 56.6808L36.4366 56.6413C36.3778 56.6413 36.4455 56.6081 36.4455 56.6081L36.5018 56.0436L37.9981 52.2511L46.0099 47.6176C45.8477 48.1056 45.794 48.8524 45.8068 49.7075C45.8438 52.455 46.5671 56.324 46.5671 56.324Z" fill="black"/>
<path d="M46.5674 56.1366C45.1618 56.9662 38.9913 56.6285 36.9838 56.4934L36.4369 56.4552L36.3462 56.4475L36.4459 56.422L36.9391 56.2946L37.9984 52.0663L46.0103 47.434C45.848 47.9221 45.7943 48.6689 45.8071 49.524C45.8442 52.2689 46.5674 56.1366 46.5674 56.1366Z" fill="#F2F1F2"/>
<path opacity="0.1" d="M45.8018 49.5214C44.1726 49.8961 40.5871 50.9958 39.2096 53.6503C38.2909 55.4179 37.5178 56.1761 36.9785 56.4934L36.4316 56.4552C36.4352 56.4443 36.4382 56.4332 36.4406 56.422L36.9338 56.2946L37.9931 52.0663L46.005 47.434C45.844 47.9196 45.789 48.6663 45.8018 49.5214Z" fill="black"/>
<path opacity="0.1" d="M18.0718 50.8519L19.9425 51.9708C19.7546 52.0179 19.5144 52.1989 19.2473 52.4614C19.0914 52.0077 18.1126 51.3744 17.668 51.1042C17.9095 50.9423 18.0718 50.8519 18.0718 50.8519Z" fill="black"/>
<path opacity="0.1" d="M36.099 56.528C36.0783 56.5387 36.0548 56.5428 36.0317 56.5396C36.0086 56.5363 35.9871 56.526 35.9702 56.51C36.012 56.5222 36.0554 56.5283 36.099 56.528Z" fill="black"/>
<path d="M40.3314 37.7311C40.3314 37.7311 38.6473 37.9172 37.4628 36.6734C37.4628 36.6734 32.4793 38.1045 30.7913 41.3375C29.1033 44.5706 17.6299 50.9143 17.6299 50.9143C17.6299 50.9143 19.6258 52.0332 19.438 52.5926L26.9834 48.2394C26.9834 48.2394 29.6669 46.3126 30.4118 45.8768C31.1568 45.441 35.2764 42.7674 36.1492 50.0427C37.0219 57.3179 36.1492 56.4476 36.1492 56.4476C36.1492 56.4476 37.3963 56.8834 39.2044 53.4006C41.0125 49.9178 46.6234 49.1098 46.6234 49.1098L46.9352 45.4422C46.9352 45.4422 48.0481 43.0108 47.1907 42.0015C46.931 41.7026 46.7582 41.3386 46.6911 40.9488C46.5493 40.0173 46.6911 38.4651 48.6768 37.1755C51.7321 35.1849 52.9166 33.5691 52.9166 33.5691C52.9166 33.5691 52.9792 32.3865 51.1085 31.827C49.2378 31.2676 41.631 28.2206 41.631 28.2206L41.3754 29.2783L47.3773 33.5028C47.3773 33.5028 44.3847 35.9241 42.0105 35.8654C42.0105 35.8654 42.4513 37.6687 40.3314 37.7311Z" fill="#FF748E"/>
<path opacity="0.1" d="M41.4865 34.8345C41.3391 34.336 41.2238 33.8286 41.1415 33.3154L37.8371 34.1858C37.9828 34.8149 37.9568 35.4715 37.7617 36.0871C38.4373 36.267 39.1511 36.244 39.8136 36.0212C40.4762 35.7984 41.0581 35.3856 41.4865 34.8345Z" fill="black"/>
<path d="M38.7421 36.0209C40.7047 36.0209 42.2957 34.4342 42.2957 32.4769C42.2957 30.5196 40.7047 28.9329 38.7421 28.9329C36.7795 28.9329 35.1885 30.5196 35.1885 32.4769C35.1885 34.4342 36.7795 36.0209 38.7421 36.0209Z" fill="#FFBDC6"/>
<path opacity="0.1" d="M40.6319 24.4166C41.6184 24.5275 42.555 24.9506 43.5262 25.1813C43.7688 25.2569 44.0272 25.267 44.275 25.2106C44.6519 25.0933 44.9586 24.7008 45.3496 24.7123C45.5898 24.7123 45.8032 24.8831 46.0013 25.0398C46.3192 25.2819 46.6182 25.5477 46.8957 25.835C47.5653 26.5601 47.9806 27.5363 48.5914 28.3251C49.2022 29.1139 50.1657 29.7269 51.0333 29.365C50.4429 31.6588 48.5096 33.4059 46.4178 33.5487C45.5834 33.6047 44.7286 33.4314 43.921 33.6761C43.7197 33.7578 43.5074 33.8093 43.291 33.829C42.8259 33.829 42.4515 33.4034 42.1615 32.9892C41.4817 32.0156 40.9437 30.9095 40.1783 30.0213C39.9227 29.7282 39.6276 29.4491 39.2698 29.3956C38.912 29.342 38.5836 29.5115 38.2654 29.6759C37.7402 29.9473 37.2036 30.229 36.7959 30.6954C36.3883 31.1618 36.1315 31.8551 36.3001 32.4795C36.3909 32.8185 36.5979 33.1243 36.6017 33.4786C36.6094 34.0431 36.1085 34.4573 36.0101 35.0078C35.9879 35.239 35.9798 35.4714 35.9858 35.7036C35.9424 36.458 35.4478 37.0761 34.9316 37.5502C34.7297 37.7349 34.5074 37.9325 34.4486 38.2179C34.409 38.4116 34.4486 38.6181 34.423 38.8143C34.3476 39.3037 33.8582 39.5522 33.4251 39.6172C32.9189 39.6906 32.4023 39.6295 31.9275 39.44C32.5332 39.1533 32.9063 38.3415 32.7657 37.6126C32.5728 36.6033 31.5556 35.8795 31.6425 34.8511C31.6905 34.536 31.7853 34.2297 31.9236 33.9425C32.1454 33.3879 32.3065 32.8111 32.4041 32.2221C32.4808 31.7659 32.5178 31.2829 32.3747 30.8496C32.2469 30.4533 31.9799 30.1398 31.7537 29.8059C31.4468 29.3513 31.2047 28.8563 31.0343 28.3353C30.972 28.1815 30.9483 28.0148 30.9653 27.8498C31.015 27.652 31.1243 27.4741 31.2783 27.34C31.8342 26.7576 32.4284 26.151 33.1733 25.9854C33.5287 25.9255 33.8903 25.9113 34.2493 25.9433C34.8735 25.9635 35.4984 25.9371 36.1187 25.8643C36.6298 25.8044 37.4936 25.8133 37.9268 25.482C38.3306 25.1723 38.558 24.7862 39.0551 24.59C39.5587 24.4051 40.1 24.3457 40.6319 24.4166Z" fill="black"/>
<path opacity="0.1" d="M42.6074 61.0187C42.6074 61.0187 44.6647 65.0609 44.0411 66.3034L42.6074 61.0187Z" fill="black"/>
<path opacity="0.1" d="M46.3371 71.829L43.324 68.0187C43.324 68.0187 43.324 68.0416 43.324 68.085C43.324 68.085 43.1503 66.8514 43.724 67.2656C44.9814 68.1729 46.9926 69.6601 47.0361 69.9162C47.0795 70.1724 46.6285 71.1957 46.3371 71.829Z" fill="black"/>
<g opacity="0.1">
<path opacity="0.1" d="M42.0771 35.8654C42.0771 35.8654 42.3327 36.9154 41.5098 37.4405C42.7748 37.2251 42.831 36.2426 42.7876 35.8157C42.5527 35.8532 42.3149 35.8698 42.0771 35.8654Z" fill="black"/>
<path opacity="0.1" d="M18.3839 50.6645C18.3839 50.6645 29.8561 44.322 31.5454 41.089C32.7529 38.7684 35.6638 37.3768 37.2099 36.7753C36.0829 37.1576 32.2852 38.5989 30.8592 41.3375C29.1763 44.5705 17.6978 50.9142 17.6978 50.9142L18.3839 50.6645Z" fill="black"/>
<path opacity="0.1" d="M44.3106 35.371C46.2631 34.7656 48.1287 33.2543 48.1287 33.2543L42.1383 29.0234L42.2751 28.4448L41.7013 28.2155L41.4521 29.2732L47.4387 33.5015C46.4793 34.2538 45.4282 34.8819 44.3106 35.371Z" fill="black"/>
<path opacity="0.1" d="M44.3452 49.7011C45.1099 49.4408 45.8945 49.2431 46.6913 49.1098L46.7015 48.99C45.8988 49.166 45.111 49.4037 44.3452 49.7011Z" fill="black"/>
<path opacity="0.1" d="M37.0897 56.2156H37.0347C37.0142 56.2261 36.9909 56.23 36.968 56.2268C36.9452 56.2236 36.9238 56.2134 36.907 56.1977C36.9485 56.2098 36.9915 56.2158 37.0347 56.2156C37.2392 56.0971 37.5459 55.1681 36.907 49.7928C36.2195 44.0582 33.5144 44.5055 32.0347 45.1656C33.5476 44.7502 35.6292 45.1096 36.2208 50.0413C36.8661 55.4166 36.5581 56.3456 36.3486 56.4641C36.6144 56.4542 36.8718 56.3679 37.0897 56.2156Z" fill="black"/>
<path opacity="0.1" d="M36.3495 56.4655C36.3059 56.4658 36.2625 56.4597 36.2207 56.4475C36.2377 56.4634 36.2592 56.4736 36.2822 56.4768C36.3053 56.4801 36.3288 56.4761 36.3495 56.4655Z" fill="black"/>
</g>
<path d="M40.6317 24.2918C41.6182 24.4039 42.5548 24.8257 43.526 25.0564C43.7687 25.1316 44.0271 25.1413 44.2748 25.0844C44.6517 24.9684 44.9584 24.5747 45.3494 24.5861C45.5896 24.5938 45.803 24.7569 46.0011 24.9136C46.3187 25.1561 46.6177 25.4219 46.8956 25.7088C47.5651 26.4339 47.9804 27.4101 48.5912 28.1989C49.202 28.9878 50.1655 29.6007 51.0331 29.2388C50.4428 31.5326 48.5094 33.2798 46.4177 33.4225C45.5833 33.4798 44.7284 33.3065 43.9208 33.5499C43.7197 33.6322 43.5074 33.6837 43.2909 33.7029C42.8257 33.7029 42.4513 33.2772 42.1613 32.8631C41.4815 31.8895 40.9435 30.7846 40.1781 29.8964C39.9226 29.602 39.6274 29.3229 39.2696 29.2694C38.9118 29.2159 38.5834 29.3866 38.2652 29.551C37.7401 29.8225 37.2034 30.1028 36.7958 30.5705C36.3881 31.0382 36.1313 31.7289 36.3 32.3546C36.3907 32.6936 36.5977 32.9994 36.6015 33.3537C36.6092 33.9195 36.1083 34.3324 36.0099 34.8829C35.9877 35.1141 35.9796 35.3465 35.9856 35.5787C35.9422 36.3331 35.4477 36.9499 34.9314 37.4253C34.7295 37.6088 34.5072 37.8076 34.4484 38.0917C34.4088 38.2867 34.4484 38.4919 34.4229 38.6894C34.3475 39.1788 33.8581 39.4273 33.4249 39.491C32.9188 39.5657 32.4018 39.5046 31.9273 39.3138C32.533 39.0284 32.9061 38.2154 32.7655 37.4877C32.5726 36.4784 31.5555 35.7533 31.6423 34.7262C31.6902 34.411 31.7849 34.1048 31.9235 33.8176C32.1451 33.2625 32.3062 32.6853 32.4039 32.0959C32.4806 31.641 32.5176 31.158 32.3745 30.7234C32.2468 30.3284 31.9797 30.0136 31.7535 29.6797C31.4469 29.2254 31.2048 28.7309 31.0341 28.2104C30.9722 28.056 30.9485 27.889 30.9651 27.7236C31.0163 27.5282 31.1254 27.3528 31.2782 27.2202C31.834 26.6378 32.4282 26.0325 33.1732 25.8656C33.5286 25.8067 33.8902 25.793 34.2491 25.8248C34.8733 25.8443 35.4982 25.8179 36.1185 25.7458C36.6296 25.6859 37.4934 25.6935 37.9266 25.3635C38.3304 25.0551 38.5579 24.6677 39.0549 24.4714C39.5583 24.2854 40.0993 24.2237 40.6317 24.2918Z" fill="#474463"/>
<path d="M64.0426 66.2359C67.9996 66.2359 71.2073 63.0368 71.2073 59.0906C71.2073 55.1443 67.9996 51.9453 64.0426 51.9453C60.0857 51.9453 56.8779 55.1443 56.8779 59.0906C56.8779 63.0368 60.0857 66.2359 64.0426 66.2359Z" fill="white"/>
<path d="M73.456 58.1488C73.456 60.0376 72.8944 61.884 71.8422 63.4545C70.79 65.025 69.2944 66.2491 67.5447 66.9719C65.7949 67.6947 63.8695 67.8838 62.0119 67.5153C60.1544 67.1469 58.4481 66.2373 57.1089 64.9017C55.7697 63.5661 54.8577 61.8645 54.4882 60.0119C54.1187 58.1594 54.3083 56.2392 55.0331 54.4942C55.7579 52.7492 56.9853 51.2577 58.56 50.2083C60.1348 49.1589 61.9862 48.5988 63.8801 48.5988C66.4198 48.5988 68.8555 49.605 70.6513 51.396C72.4471 53.1869 73.456 55.616 73.456 58.1488ZM62.7735 63.2042L69.8769 56.1201C69.9344 56.0629 69.98 55.995 70.0111 55.9202C70.0422 55.8454 70.0582 55.7652 70.0582 55.6842C70.0582 55.6033 70.0422 55.5231 70.0111 55.4483C69.98 55.3735 69.9344 55.3056 69.8769 55.2484L69.0029 54.3831C68.9456 54.3258 68.8776 54.2804 68.8027 54.2493C68.7279 54.2183 68.6476 54.2023 68.5665 54.2023C68.4854 54.2023 68.4051 54.2183 68.3302 54.2493C68.2553 54.2804 68.1873 54.3258 68.1301 54.3831L62.3365 60.161L59.6314 57.4569C59.5153 57.3417 59.3582 57.277 59.1944 57.277C59.0306 57.277 58.8735 57.3417 58.7574 57.4569L57.8833 58.3336C57.7679 58.4494 57.703 58.6061 57.703 58.7694C57.703 58.9328 57.7679 59.0895 57.8833 59.2053L61.8995 63.2093C61.9568 63.2666 62.0249 63.3121 62.0999 63.3432C62.1749 63.3742 62.2553 63.3902 62.3365 63.3902C62.4177 63.3902 62.4981 63.3742 62.5731 63.3432C62.6481 63.3121 62.7162 63.2666 62.7735 63.2093V63.2042Z" fill="#3ACC6C"/>
</g>
<defs>
<linearGradient id="paint0_linear" x1="36.1338" y1="56.9496" x2="36.1338" y2="56.9165" gradientUnits="userSpaceOnUse">
<stop stop-color="#808080" stop-opacity="0.25"/>
<stop offset="0.54" stop-color="#808080" stop-opacity="0.12"/>
<stop offset="1" stop-color="#808080" stop-opacity="0.1"/>
</linearGradient>
<linearGradient id="paint1_linear" x1="13841.1" y1="30999.7" x2="13841.1" y2="10953.6" gradientUnits="userSpaceOnUse">
<stop stop-color="#808080" stop-opacity="0.25"/>
<stop offset="0.54" stop-color="#808080" stop-opacity="0.12"/>
<stop offset="1" stop-color="#808080" stop-opacity="0.1"/>
</linearGradient>
<clipPath id="clip0">
<rect width="129" height="107" fill="white" transform="translate(0 0.245911)"/>
</clipPath>
</defs>
</svg>
