<svg width="157" height="102" viewBox="0 0 157 102" fill="none" xmlns="http://www.w3.org/2000/svg">
<g>
<path opacity="0.5" d="M147.509 86.6927C147.226 85.5175 146.294 84.6319 145.608 83.6371C144.783 82.4106 144.301 80.9847 144.212 79.5078C144.123 78.031 144.43 76.5572 145.101 75.2399C145.761 73.9802 146.795 72.6775 146.421 71.302C146.17 70.3767 145.337 69.7427 144.519 69.2461C141.411 67.3678 137.824 66.442 134.198 66.5828C129.755 66.7648 125.326 68.5459 120.968 67.6637C116.724 66.8013 113.128 64.6659 108.688 64.4127C105.371 64.224 102.09 64.4359 98.7668 64.0717C90.5547 63.1777 82.2821 62.9795 74.0368 63.4791C65.7921 62.9796 57.5201 63.1778 49.3085 64.0717C45.9931 64.4359 42.7107 64.224 39.3871 64.4127C34.9336 64.6643 31.3461 66.8029 27.1004 67.6637C22.741 68.5476 18.3139 66.7648 13.8703 66.5828C10.245 66.442 6.65774 67.3678 3.54979 69.2461C2.72508 69.7427 1.90036 70.3767 1.64799 71.302C1.27522 72.6758 2.30777 73.9785 2.96754 75.2399C3.63925 76.5569 3.94688 78.0305 3.85841 79.5074C3.76993 80.9842 3.28858 82.4103 2.46446 83.6371C1.7783 84.6302 0.846367 85.5175 0.562664 86.6927C-0.00804088 89.0565 2.28138 91.1388 4.52131 92.0773C10.6325 94.6414 18.0648 93.4016 23.6548 96.972C26.1603 98.5743 28.3524 101.147 31.3214 101.243C33.3287 101.307 35.1547 100.188 36.908 99.2033C39.5318 97.7292 42.2746 96.4795 45.1073 95.4673C47.5815 94.5834 50.2025 93.875 52.8135 94.168C56.8002 94.6099 74.0335 102.966 81.8024 98.0281C87.1235 94.643 91.2734 94.6149 95.27 94.1663C97.8811 93.8733 100.5 94.5818 102.976 95.4657C105.809 96.4778 108.552 97.7276 111.176 99.2016C112.927 100.187 114.755 101.306 116.762 101.241C119.731 101.145 121.923 98.5726 124.429 96.9703C130.015 93.3982 137.446 94.6397 143.562 92.0757C145.791 91.1338 148.082 89.0581 147.509 86.6927Z" fill="url(#paint0_linear)"/>
<path d="M146.701 86.6447C146.42 85.486 145.498 84.6054 144.82 83.6222C144.007 82.4084 143.531 80.998 143.444 79.5376C143.357 78.0772 143.662 76.6201 144.326 75.3177C144.985 74.0712 146.001 72.7834 145.632 71.4244C145.383 70.5091 144.56 69.8817 143.752 69.3918C140.678 67.5338 137.13 66.6178 133.545 66.7566C129.151 66.9353 124.772 68.6982 120.46 67.8242C116.26 66.9734 112.708 64.858 108.309 64.608C105.028 64.4226 101.777 64.6312 98.4977 64.277C90.3759 63.3928 82.1944 63.1968 74.0398 63.691C65.8853 63.1968 57.7037 63.3928 49.582 64.277C46.3029 64.6378 43.0519 64.4276 39.7711 64.608C35.3737 64.8563 31.8192 66.9718 27.6197 67.8242C23.3097 68.6982 18.9288 66.9353 14.5347 66.7566C10.9493 66.6178 7.40159 67.5338 4.32803 69.3918C3.5198 69.8884 2.69673 70.5091 2.44767 71.4244C2.0782 72.7834 3.10745 74.0729 3.75403 75.3177C4.418 76.6201 4.72228 78.0772 4.63526 79.5376C4.54824 80.998 4.0731 82.4084 3.25919 83.6222C2.57963 84.6054 1.65924 85.4811 1.37883 86.6447C0.799883 88.982 3.06456 91.0411 5.27645 91.9615C11.3216 94.4957 18.6715 93.2691 24.1955 96.8015C26.6697 98.3856 28.842 100.931 31.7829 101.026C33.7622 101.09 35.5766 99.9829 37.3085 99.008C39.9038 97.5496 42.6168 96.3131 45.4188 95.3117C47.8682 94.4361 50.4578 93.7359 53.0408 94.0256C56.9995 94.4692 74.0382 102.727 81.7147 97.8443C86.978 94.4973 91.0818 94.4692 95.0339 94.0256C97.6169 93.7359 100.208 94.4361 102.656 95.3117C105.458 96.3131 108.171 97.5496 110.766 99.008C112.5 99.9813 114.306 101.089 116.292 101.026C119.228 100.931 121.397 98.3872 123.879 96.8015C129.405 93.2691 136.755 94.4957 142.798 91.9615C145.002 91.0411 147.267 88.982 146.701 86.6447Z" fill="#009688"/>
<path opacity="0.6" d="M5.76293 36.5329C6.23467 36.3674 6.7361 36.2101 7.22928 36.2962C8.054 36.4402 8.63295 37.2248 8.87872 38.0309C9.12449 38.837 9.11624 39.6862 9.27293 40.5138C9.42963 41.3415 9.80405 42.1972 10.543 42.5929C11.2819 42.9885 12.1545 42.8329 12.9743 42.7369C14.0495 42.6124 15.1348 42.6024 16.2121 42.7071C17.116 42.7948 18.1782 43.101 18.4438 43.9734C18.6615 44.6851 18.2294 45.4118 17.949 46.0987C17.4113 47.3832 17.3684 48.9011 17.9836 50.1492C18.5989 51.3973 19.8458 52.3275 20.3671 53.6451C20.5181 53.9747 20.5619 54.3436 20.4924 54.6995C20.4153 54.9488 20.2885 55.1797 20.1196 55.3782C19.7106 55.9062 19.2223 56.3714 18.8496 56.9275C18.0727 58.0862 17.8599 59.5263 17.7708 60.9184C17.682 62.2873 17.6897 63.6607 17.7939 65.0285C16.7812 64.6974 15.6629 64.9921 14.6188 64.7752C12.397 64.315 11.0098 61.6765 8.74676 61.516C7.67628 61.4398 6.52497 61.9463 5.56995 61.4547C5.11369 61.1909 4.75664 60.7837 4.5539 60.296C4.15025 59.4328 4.05812 58.4556 4.29328 57.5317C4.45823 56.8928 4.78812 56.2671 4.72379 55.61C4.66936 55.0472 4.33287 54.5506 3.9469 54.1384C2.84673 52.9665 1.25007 52.2497 0.459992 50.8477C0.100651 50.1817 -0.0492893 49.4222 0.0299119 48.669C0.109113 47.9159 0.413742 47.2044 0.90369 46.6284C1.18568 46.3522 1.45272 46.061 1.70367 45.7561C2.08304 45.2198 2.1985 44.5428 2.24963 43.8856C2.35849 42.3115 2.08469 40.6446 2.59766 39.1151C3.05786 37.7313 4.46318 36.9964 5.76293 36.5329Z" fill="#009688"/>
<path opacity="0.6" d="M5.78613 36.5792C5.78613 36.5792 10.2907 61.6848 16.1396 64.6792" stroke="#535461" stroke-miterlimit="10"/>
<path opacity="0.6" d="M18.3186 43.5281C18.3186 43.5281 13.494 44.1902 8.67432 49.1643" stroke="#535461" stroke-miterlimit="10"/>
<path opacity="0.6" d="M9.52225 52.0809C9.52225 52.0809 5.80937 48.4393 0.00830078 49.0567" stroke="#535461" stroke-miterlimit="10"/>
<path opacity="0.6" d="M20.4434 53.665C20.4434 53.665 13.6675 54.2427 11.1587 56.853" stroke="#535461" stroke-miterlimit="10"/>
<path opacity="0.6" d="M12.1729 59.2846C12.1729 59.2846 8.3792 58.6225 4.87744 60.8655" stroke="#535461" stroke-miterlimit="10"/>
<path opacity="0.6" d="M145.221 16.8119C144.464 16.5421 143.661 16.2955 142.871 16.4329C141.551 16.6646 140.621 17.9226 140.232 19.2121C139.842 20.5015 139.851 21.8771 139.6 23.2013C139.349 24.5255 138.749 25.8977 137.564 26.5334C136.38 27.169 134.981 26.9174 133.667 26.7651C131.945 26.5637 130.207 26.5453 128.481 26.7105C127.031 26.8512 125.331 27.3428 124.905 28.7398C124.557 29.882 125.248 31.044 125.71 32.1447C126.573 34.2022 126.642 36.6372 125.654 38.6384C124.649 40.6744 122.668 42.131 121.834 44.2415C121.623 44.7778 121.489 45.3721 121.633 45.9299C121.756 46.33 121.96 46.7006 122.231 47.0191C122.891 47.8666 123.67 48.6131 124.267 49.502C125.512 51.3559 125.85 53.6666 125.995 55.898C126.138 58.0915 126.126 60.2924 125.959 62.4843C127.582 61.948 129.377 62.4264 131.049 62.0804C134.61 61.3438 136.834 57.1146 140.461 56.8564C142.176 56.7355 144.022 57.545 145.553 56.757C146.298 56.373 146.828 55.6563 147.182 54.8932C147.819 53.51 147.958 51.9483 147.577 50.4736C147.308 49.449 146.785 48.4476 146.887 47.3931C146.974 46.491 147.512 45.6948 148.132 45.036C149.896 43.1573 152.456 42.0085 153.722 39.7623C154.91 37.6568 154.61 34.8081 153.011 32.9989C152.592 32.5238 152.094 32.1166 151.728 31.6002C151.12 30.7411 150.925 29.6552 150.852 28.6025C150.679 26.0782 151.106 23.4082 150.293 20.9567C149.551 18.7254 147.299 17.5452 145.221 16.8119Z" fill="#009688"/>
<path opacity="0.6" d="M145.179 16.8781C145.179 16.8781 137.959 57.1195 128.582 61.9182" stroke="#535461" stroke-miterlimit="10"/>
<path opacity="0.6" d="M125.09 28.0165C125.09 28.0165 132.822 29.0825 140.548 37.0526" stroke="#535461" stroke-miterlimit="10"/>
<path opacity="0.6" d="M139.189 41.7255C139.189 41.7255 145.142 35.884 154.438 36.8772" stroke="#535461" stroke-miterlimit="10"/>
<path opacity="0.6" d="M121.694 44.2646C121.694 44.2646 132.554 45.1899 136.575 49.3761" stroke="#535461" stroke-miterlimit="10"/>
<path opacity="0.6" d="M134.942 53.2727C134.942 53.2727 141.027 52.2034 146.637 55.8052" stroke="#535461" stroke-miterlimit="10"/>
<path d="M12.356 0.245911V4.38245V82.2152H132.258V4.38245V0.245911H12.356Z" fill="url(#paint1_linear)"/>
<path d="M130.988 3.96533H14.1338V80.7321H130.988V3.96533Z" fill="white"/>
<path d="M130.988 0.313782H14.1338V5.96159H130.988V0.313782Z" fill="#EEEEEE"/>
<path d="M18.5809 4.42051C19.3342 4.42051 19.945 3.80762 19.945 3.05159C19.945 2.29556 19.3342 1.68268 18.5809 1.68268C17.8275 1.68268 17.2168 2.29556 17.2168 3.05159C17.2168 3.80762 17.8275 4.42051 18.5809 4.42051Z" fill="#FF5252"/>
<path d="M22.3333 4.42051C23.0867 4.42051 23.6974 3.80762 23.6974 3.05159C23.6974 2.29556 23.0867 1.68268 22.3333 1.68268C21.58 1.68268 20.9692 2.29556 20.9692 3.05159C20.9692 3.80762 21.58 4.42051 22.3333 4.42051Z" fill="#FFFF00"/>
<path d="M26.0858 4.42051C26.8391 4.42051 27.4498 3.80762 27.4498 3.05159C27.4498 2.29556 26.8391 1.68268 26.0858 1.68268C25.3324 1.68268 24.7217 2.29556 24.7217 3.05159C24.7217 3.80762 25.3324 4.42051 26.0858 4.42051Z" fill="#69F0AE"/>
<path opacity="0.5" d="M62.1574 15.0077H18.6123V16.8285H62.1574V15.0077Z" fill="#009688"/>
<path opacity="0.5" d="M62.1574 18.6493H18.6123V20.4701H62.1574V18.6493Z" fill="#009688"/>
<path opacity="0.5" d="M62.1574 22.2909H18.6123V24.1117H62.1574V22.2909Z" fill="#009688"/>
<path opacity="0.5" d="M62.1573 25.9325H33.6221V27.7533H62.1573V25.9325Z" fill="#009688"/>
<path opacity="0.5" d="M41.5395 29.5741H18.6123V31.3949H41.5395V29.5741Z" fill="#009688"/>
<path opacity="0.5" d="M48.6319 33.2157H30.9829V35.0365H48.6319V33.2157Z" fill="#009688"/>
<path opacity="0.5" d="M119.228 27.7533H67.9307V57.3827H119.228V27.7533Z" fill="#009688"/>
<path d="M125.331 30.5673H74.0337V60.1967H125.331V30.5673Z" fill="#EEEEEE"/>
<path opacity="0.5" d="M156.172 57.9025C156.278 57.7659 156.336 57.5975 156.337 57.4241C156.337 57.4241 156.337 57.4142 156.337 57.4109C156.337 57.4076 156.347 57.3761 156.352 57.3596V57.338C156.352 57.322 156.352 57.306 156.352 57.29C156.352 57.29 156.352 57.2768 156.352 57.2702C156.353 57.2504 156.353 57.2304 156.352 57.2106C156.254 56.5485 152.334 52.2348 151.354 46.9727C151.246 46.3998 151.084 45.8384 150.871 45.2959C150.901 45.0245 150.883 44.7499 150.818 44.4848C150.653 43.8111 150.323 43.1275 150.488 42.4555C150.511 42.3676 150.541 42.2817 150.579 42.1989C150.784 41.8956 150.973 41.5811 151.144 41.257C151.208 41.1514 151.263 41.0406 151.309 40.926C151.911 39.3336 150.048 37.6899 150.391 36.028C150.539 35.308 151.095 34.679 151.08 33.9457C151.062 33.1065 150.293 32.4559 149.495 32.1447C148.697 31.8335 147.817 31.7442 147.034 31.3965C145.317 30.6335 144.377 28.7911 142.81 27.7665C140.819 26.4671 138.221 26.6989 135.834 27.0349C135.756 27.0465 135.681 27.0773 135.617 27.1247C135.554 27.172 135.502 27.2344 135.468 27.3064H135.445C135.427 27.3593 135.405 27.4106 135.382 27.462C135.053 28.0264 134.497 28.4551 133.947 28.8507C133.278 29.3241 132.56 29.7909 132.151 30.4928C132.09 30.5971 132.039 30.6964 131.994 30.7924C131.104 32.3864 132.174 33.075 133.479 33.4574C133.44 33.6854 133.42 33.9163 133.42 34.1476C133.42 36.465 135.351 38.357 137.731 38.357C137.919 38.3567 138.107 38.3446 138.294 38.3206L138.432 38.4116H138.464C138.906 38.7311 139.288 39.1317 139.453 39.6084L138.071 40.6678C138.071 40.6678 138.127 40.8134 138.21 41.0452L132.776 43.5579C130.718 43.6539 127.386 37.147 127.386 37.147C127.386 37.147 126.891 33.416 125.131 32.7456C124.6 32.5437 124.389 32.9658 124.353 33.6543C123.566 34.482 124.887 39.13 124.887 39.13L129.101 46.5936C129.494 47.3584 129.596 47.8368 131.453 48.1248C132.982 48.3598 137.746 46.6615 139.404 46.0457L139.481 46.7079C139.289 47.2126 139.203 47.7522 139.231 48.292C139.231 49.5119 139.773 51.2864 142.422 52.7C142.422 52.7 145.157 56.2472 144.853 59.5958C144.853 59.5958 144.985 59.7349 145.197 59.917C145.167 60.8605 145.032 62.0241 144.558 62.4777C144.527 62.5073 144.504 62.5444 144.491 62.5855C144.478 62.6267 144.475 62.6704 144.484 62.7127C144.474 62.7622 144.48 62.8137 144.5 62.8598C144.521 62.9058 144.556 62.9442 144.599 62.9693L141.147 69.0359C141.019 69.2014 140.888 69.3669 140.755 69.5325C140.114 70.3522 139.402 71.1139 138.628 71.8085C138.053 72.3233 137.454 72.8861 137.335 73.0963C137.152 73.4273 136.692 74.495 136.887 75.3772C137.139 76.447 137.242 77.5466 137.193 78.6448L136.746 86.4924C136.597 87.3685 136.39 88.2338 136.128 89.0829H136.06C136.06 89.0829 134.394 91.0924 131.749 91.5658C129.103 92.0392 129.2 93.3866 129.984 93.5753C130.767 93.764 140.275 93.3833 140.275 93.3833C140.275 93.3833 140.634 92.6798 140.535 92.0376C143.57 91.7446 147.775 91.248 147.775 91.248C147.775 91.248 148.35 89.8593 147.514 89.2534C147.199 89.0107 146.966 88.6776 146.844 88.2983C146.795 88.0864 146.74 87.8448 146.688 87.5915C146.674 87.4674 146.674 87.3912 146.674 87.3912H146.646C146.5 86.6513 146.382 85.8584 146.45 85.443C146.696 84.3422 147.333 77.9793 145.764 76.1618C145.051 75.3342 145.149 74.394 145.465 73.6094C147.347 72.3729 149.98 69.7129 151.502 68.104C151.588 68.1751 151.667 68.2463 151.742 68.3175L151.791 68.3655C151.791 68.3655 156.972 65.7915 156.993 61.2478C157.001 60.0815 156.719 58.9315 156.172 57.9025ZM139.577 89.9553C139.568 89.7895 139.574 89.6233 139.595 89.4587L139.43 89.4405C139.526 88.7188 139.76 87.911 140.285 87.3532C141.185 85.716 141.822 83.9462 142.171 82.1092L143.123 85.7227C143.123 85.7227 143.219 86.4709 143.245 87.2621H143.229C143.229 87.2621 141.901 89.164 139.577 89.9553Z" fill="url(#paint2_linear)"/>
<path d="M143.879 43.154C143.879 43.154 141.552 43.9949 140.25 45.3969C140.25 45.3969 133.918 47.9195 132.148 47.6398C130.378 47.36 130.286 46.8916 129.913 46.15L125.908 38.8668C125.908 38.8668 124.233 32.7919 125.908 33.4458C127.584 34.0996 128.053 37.7495 128.053 37.7495C128.053 37.7495 131.22 44.1041 133.174 44.0114L138.477 41.4755C138.477 41.4755 139.688 39.6994 140.247 39.7938C140.806 39.8881 143.879 43.154 143.879 43.154Z" fill="#FDB797"/>
<g opacity="0.05">
<path opacity="0.05" d="M143.879 43.154C143.879 43.154 141.552 43.9949 140.25 45.3969C140.25 45.3969 133.918 47.9195 132.148 47.6398C130.378 47.36 130.286 46.8916 129.913 46.15L125.908 38.8668C125.908 38.8668 124.233 32.7919 125.908 33.4458C127.584 34.0996 128.053 37.7495 128.053 37.7495C128.053 37.7495 131.22 44.1041 133.174 44.0114L138.477 41.4755C138.477 41.4755 139.688 39.6994 140.247 39.7938C140.806 39.8881 143.879 43.154 143.879 43.154Z" fill="black"/>
</g>
<path d="M140.055 39.7093L138.198 41.1726C138.198 41.1726 139.126 43.6108 138.894 44.4649C138.661 45.3191 142.608 43.1242 142.608 43.1242L140.984 39.466L140.055 39.7093Z" fill="#F9CE43"/>
<g opacity="0.05">
<path opacity="0.05" d="M140.055 39.7093L138.198 41.1726C138.198 41.1726 139.126 43.6108 138.894 44.4649C138.661 45.3191 142.608 43.1242 142.608 43.1242L140.984 39.466L140.055 39.7093Z" fill="black"/>
</g>
<path d="M136.849 38.0806C136.849 38.0806 140.993 39.4362 139.084 41.8182L145.044 38.9215C145.044 38.9215 142.53 39.1085 140.946 35.2798L136.849 38.0806Z" fill="#FDB797"/>
<path d="M144.67 62.4727L139.549 71.7241L142.996 85.1748C142.996 85.1748 143.369 88.1659 142.81 88.4457H146.721C146.721 88.4457 145.967 85.7972 146.161 84.8951C146.394 83.8208 146.999 77.6119 145.502 75.8308C144.004 74.0497 146.247 71.7191 146.247 71.7191L150.717 64.6163L144.67 62.4727Z" fill="#FDB797"/>
<g opacity="0.05">
<path opacity="0.05" d="M144.67 62.4727L139.549 71.7241L142.996 85.1748C142.996 85.1748 143.369 88.1659 142.81 88.4457H146.721C146.721 88.4457 146.023 85.7823 146.161 84.8951C146.3 84.0079 146.999 77.6119 145.502 75.8308C144.004 74.0497 146.247 71.7191 146.247 71.7191L150.717 64.6163L144.67 62.4727Z" fill="black"/>
</g>
<path d="M143.095 86.6844C143.095 86.6844 141.677 88.7817 139.202 89.4471C136.728 90.1125 136.93 91.4102 137.687 91.536C138.444 91.6618 147.418 90.571 147.418 90.571C147.418 90.571 147.964 89.2154 147.171 88.6228C146.377 88.0302 146.373 86.802 146.373 86.802L143.095 86.6844Z" fill="#0D134D"/>
<g opacity="0.1">
<path opacity="0.1" d="M144.951 58.7335C144.951 58.7335 145.172 61.7725 144.365 62.5704C144.337 62.5968 144.315 62.6296 144.302 62.6661C144.289 62.7025 144.285 62.7416 144.29 62.7801C144.294 62.8185 144.308 62.8553 144.33 62.8873C144.352 62.9193 144.381 62.9457 144.415 62.9643L146.813 64.2472L148.957 60.1355L144.951 58.7335Z" fill="black"/>
</g>
<path d="M144.951 58.6407C144.951 58.6407 145.172 61.6798 144.365 62.4777C144.337 62.5041 144.315 62.5369 144.302 62.5734C144.289 62.6098 144.285 62.6489 144.29 62.6874C144.294 62.7258 144.308 62.7626 144.33 62.7946C144.352 62.8266 144.381 62.853 144.415 62.8716L146.813 64.1545L148.957 60.0428L144.951 58.6407Z" fill="#E23553"/>
<g opacity="0.1">
<path opacity="0.1" d="M144.951 58.8063C144.951 58.8063 145.172 61.8454 144.365 62.6432C144.337 62.6697 144.315 62.7025 144.302 62.7389C144.289 62.7753 144.285 62.8144 144.29 62.8529C144.294 62.8913 144.308 62.9281 144.33 62.9601C144.352 62.9921 144.381 63.0185 144.415 63.0371L146.813 64.32L148.957 60.2083L144.951 58.8063Z" fill="black"/>
</g>
<path d="M145.043 64.6213C145.043 64.6213 143.659 65.5482 140.754 69.3636C140.147 70.1626 139.471 70.9065 138.734 71.5867C138.188 72.0833 137.619 72.6394 137.505 72.8447C137.33 73.1609 136.893 74.212 137.08 75.0727C137.319 76.1185 137.417 77.192 137.371 78.2641L136.948 85.9297C136.948 85.9297 136.388 89.3875 135.645 89.7616L139.463 90.4238C139.463 90.4238 139.184 87.9938 140.301 86.7821C140.301 86.7821 142.909 82.2963 142.257 77.2494C142.257 77.2494 141.978 75.0065 144.492 73.7915C147.006 72.5765 152.129 66.6887 152.129 66.6887L145.043 64.6213Z" fill="#FDB797"/>
<path d="M136.29 88.4523C136.29 88.4523 134.706 90.4154 132.192 90.8822C129.679 91.349 129.771 92.6583 130.517 92.8454C131.262 93.0324 140.294 92.6583 140.294 92.6583C140.294 92.6583 140.954 91.3507 140.202 90.6952C139.45 90.0397 139.643 88.8264 139.643 88.8264L136.29 88.4523Z" fill="#0D134D"/>
<g opacity="0.1">
<path opacity="0.1" d="M147.372 59.6687C147.372 59.6687 146.236 63.499 144.796 64.6146C144.769 64.6347 144.748 64.6616 144.736 64.6925C144.723 64.7235 144.719 64.7573 144.724 64.7904C144.729 64.8235 144.742 64.8546 144.763 64.8805C144.785 64.9064 144.812 64.9261 144.844 64.9374C146.034 65.3728 149.861 66.8393 151.191 68.1735L151.237 68.2198C151.237 68.2198 159.199 64.1545 154.915 57.2387L147.372 59.6687Z" fill="black"/>
</g>
<path d="M147.372 59.576C147.372 59.576 146.236 63.4063 144.796 64.5219C144.769 64.542 144.748 64.5689 144.736 64.5998C144.723 64.6307 144.719 64.6645 144.724 64.6976C144.729 64.7307 144.742 64.7619 144.763 64.7877C144.785 64.8136 144.812 64.8333 144.844 64.8447C146.034 65.28 149.861 66.7466 151.191 68.0808L151.237 68.1271C151.237 68.1271 159.199 64.0618 154.915 57.146L147.372 59.576Z" fill="#E23553"/>
<g opacity="0.1">
<path opacity="0.1" d="M140.834 40.5834C140.242 40.9828 139.595 41.2929 138.914 41.5037L139.554 47.2194C139.554 47.2194 138.058 50.5796 142.337 52.9268C142.337 52.9268 144.935 56.3913 144.646 59.6621C144.646 59.6621 146.04 61.1618 146.972 60.7893C147.903 60.4169 147.064 60.9764 147.25 60.8837C147.437 60.791 147.808 61.6335 150.696 60.892C153.584 60.1504 155.644 58.1955 155.547 57.54C155.45 56.8845 151.742 52.6702 150.823 47.5272C149.904 42.3843 144.42 38.7261 144.42 38.7261C144.42 38.7261 144.238 38.8271 143.925 38.9612C142.853 39.4177 141.819 39.9602 140.834 40.5834Z" fill="black"/>
</g>
<g opacity="0.1">
<path opacity="0.1" d="M144.723 64.6494C144.72 64.6895 144.73 64.7297 144.752 64.7635C144.773 64.7974 144.806 64.823 144.844 64.8364C145.87 65.2122 148.852 66.3527 150.508 67.5147C149.075 66.3527 146.025 65.146 144.723 64.6494Z" fill="black"/>
<path opacity="0.1" d="M154.915 57.146L154.75 57.2023C158.41 63.6231 151.517 67.5014 150.915 67.8242C151.019 67.9103 151.113 67.9897 151.199 68.0808L151.245 68.1271C151.245 68.1271 159.199 64.0618 154.915 57.146Z" fill="black"/>
</g>
<path d="M150.724 60.6966C147.837 61.4448 147.464 60.6039 147.278 60.6966C147.092 60.7893 147.938 60.2298 146.999 60.6039C146.061 60.978 144.672 59.4816 144.672 59.4816C144.685 59.3161 144.692 59.1622 144.692 59.0016C144.701 55.8764 142.336 52.7529 142.336 52.7529C138.048 50.4173 139.542 47.0522 139.542 47.0522L139.367 45.5194L138.887 41.3382C139.568 41.1261 140.213 40.8149 140.804 40.4145C141.788 39.7898 142.82 39.2451 143.89 38.7857C144.205 38.65 144.385 38.549 144.385 38.549C144.385 38.549 149.879 42.1906 150.818 47.3336C151.756 52.4765 155.474 56.6793 155.566 57.3331C155.659 57.9869 153.61 59.9484 150.724 60.6966Z" fill="#F9CE43"/>
<g opacity="0.1">
<path opacity="0.1" d="M141.038 35.3708L136.941 38.1749C137.506 38.3715 138.043 38.6402 138.539 38.9744C139.935 38.7774 140.789 37.7743 141.365 36.5395C141.14 36.1786 141.239 35.8558 141.038 35.3708Z" fill="black"/>
</g>
<path d="M137.873 38.9231C140.136 38.9231 141.97 37.0823 141.97 34.8114C141.97 32.5406 140.136 30.6997 137.873 30.6997C135.61 30.6997 133.776 32.5406 133.776 34.8114C133.776 37.0823 135.61 38.9231 137.873 38.9231Z" fill="#FDB797"/>
<g opacity="0.1">
<path opacity="0.1" d="M151.376 60.2298C148.489 60.978 148.116 60.1371 147.93 60.2298C147.744 60.3225 148.59 59.763 147.651 60.1371C146.713 60.5112 145.324 59.0148 145.324 59.0148C145.337 58.8493 145.344 58.6953 145.344 58.5348C145.355 55.4146 142.995 52.2861 142.995 52.2861C138.706 49.9505 140.201 46.5853 140.201 46.5853L140.028 45.0509L139.574 41.0931C139.355 41.1923 139.128 41.2736 138.896 41.3365L139.368 45.5193L139.544 47.0521C139.544 47.0521 138.06 50.4173 142.338 52.7529C142.338 52.7529 144.699 55.8814 144.687 59.0016C144.687 59.1671 144.687 59.321 144.667 59.4816C144.667 59.4816 146.064 60.9713 146.995 60.6039C147.925 60.2364 147.087 60.7909 147.273 60.6966C147.46 60.6022 147.833 61.4448 150.719 60.6966C152.029 60.3565 153.256 59.7535 154.326 58.9238C153.418 59.5141 152.422 59.955 151.376 60.2298Z" fill="black"/>
</g>
<path d="M143.646 43.9684C143.646 43.9684 141.319 44.8092 140.017 46.2113C140.017 46.2113 133.685 48.7339 131.915 48.4542C130.145 48.1744 130.053 47.706 129.68 46.9644L125.675 39.6812C125.675 39.6812 124 33.6063 125.675 34.2602C127.351 34.914 127.82 38.5639 127.82 38.5639C127.82 38.5639 130.987 44.9185 132.941 44.8258L138.246 42.2866C138.246 42.2866 139.457 40.5105 140.016 40.6048C140.575 40.6992 143.646 43.9684 143.646 43.9684Z" fill="#FDB797"/>
<g opacity="0.1">
<path opacity="0.1" d="M140.502 40.5469C140.502 40.5469 138.571 40.3698 138.012 42.7998C137.453 45.2297 142.3 46.7244 142.3 46.7244L144.908 43.0828L140.502 40.5469Z" fill="black"/>
</g>
<path d="M140.597 40.5469C140.597 40.5469 138.665 40.3698 138.106 42.7998C137.547 45.2297 142.394 46.7244 142.394 46.7244L145.002 43.0828L140.597 40.5469Z" fill="#F9CE43"/>
<g opacity="0.1">
<path opacity="0.1" d="M139.808 40.9789C139.516 41.1268 139.209 41.2454 138.894 41.3332L138.911 41.4739C139.218 41.325 139.518 41.1598 139.808 40.9789Z" fill="black"/>
<path opacity="0.1" d="M155.566 57.3331C155.474 56.671 151.748 52.4732 150.818 47.3336C149.887 42.1939 144.385 38.549 144.385 38.549C144.385 38.549 144.203 38.65 143.89 38.7857C143.053 39.1465 142.239 39.5583 141.452 40.0189C141.974 39.743 142.508 39.4881 143.052 39.2542C143.367 39.1184 143.547 39.0175 143.547 39.0175C143.547 39.0175 149.041 42.6591 149.98 47.802C150.918 52.945 154.636 57.1477 154.728 57.8015C154.788 58.2137 153.994 59.1456 152.677 59.9666C154.486 59.0645 155.637 57.8264 155.566 57.3331Z" fill="black"/>
</g>
<path opacity="0.1" d="M141.703 40.585C141.703 40.585 144.111 41.7818 144.565 44.0826" stroke="black" stroke-miterlimit="10"/>
<g opacity="0.1">
<path opacity="0.1" d="M135.815 34.5796C136.199 34.6657 136.628 34.7866 136.818 35.1325C136.954 35.3841 136.93 35.7003 137.063 35.9601C137.406 36.609 138.413 36.3855 139.043 36.7663C140.197 37.4648 139.443 39.6431 140.593 40.345C140.809 40.4774 141.065 40.5304 141.288 40.6512C142.259 41.1842 142.122 42.5945 141.947 43.6919C141.772 44.7894 141.98 46.2907 143.077 46.4463C143.681 46.5307 144.359 46.1302 144.867 46.4662C145.132 46.6416 145.253 46.9628 145.475 47.1962C145.628 47.3493 145.823 47.4542 146.034 47.498C146.246 47.5418 146.466 47.5226 146.666 47.4428C147.039 47.2872 147.308 46.9313 147.696 46.8171C148.319 46.6334 149.015 47.1399 149.616 46.9065C150.216 46.6731 150.353 45.8024 150.198 45.1453C150.043 44.4881 149.726 43.8211 149.891 43.1589C150.028 42.6127 150.473 42.1956 150.668 41.6692C151.239 40.1149 149.469 38.5093 149.795 36.8854C149.937 36.182 150.465 35.5612 150.455 34.8511C150.439 34.0235 149.708 33.3961 148.948 33.0916C148.187 32.787 147.353 32.7009 146.609 32.3616C144.977 31.6167 144.085 29.8158 142.594 28.816C141.926 28.3786 141.173 28.0886 140.385 27.9652C139.369 27.8009 138.328 27.8562 137.335 28.1274C136.341 28.3985 135.416 28.8793 134.622 29.5377C134.475 29.6569 134.325 29.7694 134.174 29.8787C133.537 30.3405 132.854 30.7957 132.466 31.481C131.051 33.954 134.302 34.237 135.815 34.5796Z" fill="black"/>
</g>
<path d="M135.93 34.3463C136.315 34.4323 136.744 34.5532 136.933 34.8991C137.07 35.1507 137.045 35.4669 137.179 35.7268C137.522 36.3756 138.528 36.1522 139.158 36.5329C140.313 37.2314 139.559 39.4098 140.709 40.1116C140.925 40.244 141.181 40.297 141.403 40.4178C142.375 40.9508 142.238 42.3611 142.063 43.4586C141.888 44.556 142.096 46.0573 143.193 46.2129C143.797 46.2974 144.474 45.8968 144.982 46.2328C145.248 46.4083 145.368 46.7294 145.591 46.9628C145.744 47.1159 145.938 47.2208 146.15 47.2646C146.361 47.3084 146.581 47.2893 146.782 47.2094C147.155 47.0538 147.424 46.6979 147.811 46.5837C148.435 46.4 149.131 46.9065 149.731 46.6731C150.332 46.4397 150.468 45.569 150.313 44.9119C150.158 44.2548 149.842 43.5877 150.007 42.9256C150.144 42.3793 150.589 41.9622 150.784 41.4358C151.354 39.8815 149.584 38.2759 149.911 36.6521C150.053 35.9486 150.581 35.3278 150.571 34.6177C150.554 33.7901 149.824 33.1627 149.063 32.8582C148.303 32.5536 147.468 32.4675 146.724 32.1282C145.093 31.3833 144.201 29.5824 142.71 28.5826C142.104 28.1835 141.426 27.9079 140.714 27.7715C139.666 27.5697 138.586 27.6028 137.552 27.8683C136.518 28.1339 135.556 28.6253 134.733 29.3076C134.588 29.4251 134.438 29.5377 134.289 29.6386C133.652 30.1005 132.97 30.5557 132.582 31.241C131.167 33.7206 134.419 34.0053 135.93 34.3463Z" fill="#009688"/>
<path d="M102.733 60.1967H74.0332V54.7691C81.045 51.48 91.8339 49.6328 102.733 60.1967Z" fill="#009688"/>
<g opacity="0.1">
<path opacity="0.1" d="M125.001 59.4204V60.1967H89.208V60.0312C89.208 60.0312 106.821 42.8213 125.001 59.4204Z" fill="black"/>
</g>
<path d="M125.331 59.4204V60.1967H89.5381V60.0312C89.5381 60.0312 107.151 42.8213 125.331 59.4204Z" fill="#009688"/>
<path d="M79.9711 38.5126C81.4287 38.5126 82.6102 37.3268 82.6102 35.8641C82.6102 34.4015 81.4287 33.2157 79.9711 33.2157C78.5136 33.2157 77.332 34.4015 77.332 35.8641C77.332 37.3268 78.5136 38.5126 79.9711 38.5126Z" fill="#009688"/>
<path d="M102.44 33.8613C102.138 33.8613 101.802 33.8613 101.573 33.8795C101.47 33.8852 101.369 33.9058 101.272 33.9407L99.7202 34.5002C100.974 34.5317 102.282 34.5217 103.567 34.5118L110.771 34.4555C111.507 34.4555 112.279 34.4423 112.891 34.3993C113.302 34.3695 113.604 34.3264 113.983 34.2933C115.347 34.1708 117.335 34.194 119.111 34.2006C120.887 34.2072 123.032 34.1609 123.657 33.9821H119.843C119.433 33.9821 119 33.9821 118.638 33.9623C118.214 33.9374 117.955 33.8911 117.582 33.858C116.965 33.805 116.114 33.7984 115.322 33.7951C110.976 33.7769 106.684 33.8795 102.44 33.8613Z" fill="#F4F4F4"/>
<path d="M106.709 37.0692C106.643 37.0692 106.57 37.0692 106.521 37.0692C106.498 37.0703 106.476 37.0748 106.455 37.0824L106.125 37.2032C106.397 37.2032 106.679 37.2032 106.958 37.2032L108.518 37.1917C108.683 37.1917 108.848 37.1917 108.977 37.1801C109.066 37.1801 109.132 37.1635 109.213 37.1569C109.508 37.1304 109.938 37.1354 110.324 37.137C110.655 37.1482 110.986 37.1321 111.314 37.089H110.489C110.4 37.089 110.306 37.089 110.229 37.089C110.151 37.089 110.08 37.0741 110 37.0659C109.866 37.0543 109.681 37.0526 109.505 37.0526C108.565 37.0526 107.634 37.0741 106.709 37.0692Z" fill="#F4F4F4"/>
<path d="M95.6576 41.704C95.5916 41.704 95.5191 41.704 95.4696 41.704C95.4471 41.7051 95.4248 41.7096 95.4036 41.7172L95.0737 41.8381C95.3459 41.8381 95.6279 41.8381 95.9067 41.8381L97.4671 41.8265C97.632 41.8265 97.7969 41.8265 97.9256 41.8149C98.0147 41.8149 98.0806 41.7983 98.1615 41.7917C98.4567 41.7652 98.8872 41.7702 99.2732 41.7719C99.6038 41.783 99.9348 41.767 100.263 41.7239H99.4381C99.3491 41.7239 99.2551 41.7239 99.1775 41.7239C99.1 41.7239 99.0291 41.709 98.9483 41.7007C98.8146 41.6891 98.6299 41.6874 98.4534 41.6874C97.5132 41.6874 96.583 41.709 95.6576 41.704Z" fill="#F4F4F4"/>
<path d="M89.457 58.7284H88.2166C88.2166 58.7284 87.829 45.1155 89.457 40.9144H89.7671C89.7671 40.9144 88.6817 56.3167 89.457 58.7284Z" fill="#009688"/>
<path d="M88.6045 40.2142C88.6045 40.2142 87.5967 43.015 88.0619 44.2597C88.0619 44.2597 88.7596 41.6924 89.5728 41.3034C90.3859 40.9144 91.2387 44.2597 91.2387 44.2597C91.2387 44.2597 91.7038 42.1592 90.8511 40.4526C90.8511 40.4526 92.5566 41.3862 93.4093 43.1755C93.4093 43.1755 93.5644 42.0168 91.5488 39.5968C91.5488 39.5968 93.3318 40.0636 94.4947 41.1528C94.4947 41.1528 94.8823 40.297 92.4791 38.8966C92.4791 38.8966 92.7892 37.8853 94.6497 38.3521C94.6497 38.3521 94.6497 37.0278 91.7038 37.2629C91.7038 37.2629 91.7038 36.4071 93.6419 36.5627C93.6419 36.5627 93.6419 35.4735 91.3937 35.8625C91.3937 35.8625 91.8589 35.1623 92.169 35.0067C91.7812 34.9708 91.394 35.0818 91.0836 35.3179C91.0836 35.3179 91.1612 33.9176 89.9983 33.373L89.8433 35.3179C89.8433 35.3179 88.5402 33.7769 88.8355 34.0732C88.913 34.151 89.1455 35.0845 89.068 35.5513C89.068 35.5513 87.7485 34.4622 86.1221 35.6291C86.1221 35.6291 88.1377 35.7847 88.4478 36.4849C88.4478 36.4849 86.7423 36.1737 86.3547 36.4071C86.3547 36.4071 87.6742 36.8739 87.5951 37.1851C87.5951 37.1851 85.2694 37.1851 84.956 38.0409C84.956 38.0409 87.3592 38.3521 87.5143 38.5855C87.5143 38.5855 84.7234 40.6082 84.5684 41.1528C84.5684 41.1528 87.4367 39.4412 87.9019 39.4412C88.367 39.4412 85.8087 41.9241 85.9638 42.5531C85.9704 42.5482 88.0701 40.0586 88.6045 40.2142Z" fill="#009688"/>
<path d="M104.756 58.2186H105.702C105.702 58.2186 105.999 47.8185 104.756 44.6089H104.518C104.518 44.6089 105.349 56.373 104.756 58.2186Z" fill="#009688"/>
<path d="M105.407 44.0743C105.407 44.0743 106.178 46.2146 105.821 47.1647C105.821 47.1647 105.289 45.2032 104.667 44.9069C104.045 44.6107 103.393 47.1647 103.393 47.1647C103.393 47.1647 103.039 45.5608 103.69 44.2531C102.857 44.7483 102.179 45.4695 101.736 46.3338C101.736 46.3338 101.617 45.4416 103.157 43.5993C103.157 43.5993 101.795 43.9552 100.908 44.7878C100.908 44.7878 100.611 44.1339 102.448 43.0646C102.448 43.0646 102.211 42.2916 100.791 42.6491C100.791 42.6491 100.791 41.6394 103.04 41.8215C103.04 41.8215 103.04 41.1677 101.556 41.2869C101.556 41.2869 101.556 40.4592 103.273 40.7522C103.273 40.7522 102.918 40.2176 102.681 40.0984C102.976 40.0722 103.27 40.1572 103.506 40.3367C103.506 40.3367 103.446 39.2674 104.33 38.847L104.449 40.3367C104.449 40.3367 105.439 39.1598 105.219 39.3866C105.077 39.745 105.017 40.1306 105.041 40.5155C105.041 40.5155 106.047 39.6879 107.291 40.5751C107.291 40.5751 105.75 40.6943 105.515 41.2289C105.515 41.2289 106.818 40.9906 107.113 41.1693C107.113 41.1693 106.107 41.5252 106.166 41.7636C106.166 41.7636 107.942 41.7636 108.18 42.4174C108.18 42.4174 106.344 42.6558 106.225 42.8329C106.225 42.8329 108.358 44.3789 108.475 44.7944C108.475 44.7944 106.285 43.4867 105.929 43.4867C105.572 43.4867 107.527 45.3886 107.413 45.8637C107.421 45.8571 105.823 43.9585 105.407 44.0743Z" fill="#009688"/>
<path d="M116.092 56.186H116.679C116.679 56.186 116.862 49.7453 116.092 47.7573H115.945C115.945 47.7573 116.458 55.0488 116.092 56.186Z" fill="#009688"/>
<path d="M116.497 47.4263C116.497 47.4263 116.973 48.7505 116.754 49.3398C116.754 49.3398 116.424 48.1248 116.038 47.9411C115.652 47.7573 115.25 49.3398 115.25 49.3398C115.25 49.3398 115.03 48.3466 115.433 47.5355C114.916 47.842 114.497 48.2883 114.222 48.8233C114.222 48.8233 114.149 48.2705 115.103 47.13C114.591 47.2729 114.116 47.524 113.709 47.8666C113.709 47.8666 113.526 47.461 114.662 46.7989C114.662 46.7989 114.516 46.3206 113.635 46.5407C113.635 46.5407 113.635 45.915 115.029 46.0259C115.029 46.0259 115.029 45.6204 114.111 45.6949C114.111 45.6949 114.111 45.1801 115.175 45.3638C115.077 45.2087 114.953 45.0716 114.809 44.9583C114.992 44.9414 115.175 44.9939 115.322 45.1056C115.322 45.1056 115.286 44.4435 115.835 44.1852L115.908 45.1056C115.908 45.1056 116.525 44.3773 116.384 44.5163C116.297 44.7381 116.259 44.9766 116.274 45.2148C116.478 45.0658 116.725 44.9885 116.977 44.9951C117.229 45.0017 117.472 45.0917 117.668 45.2512C117.668 45.2512 116.714 45.3241 116.567 45.6568C116.567 45.6568 117.374 45.5095 117.557 45.6204C117.557 45.6204 116.934 45.8405 116.97 45.9878C116.97 45.9878 118.07 45.9878 118.217 46.3934C118.217 46.3934 117.08 46.5407 117.006 46.6516C117.006 46.6516 118.326 47.6084 118.4 47.8666C118.4 47.8666 117.043 47.0571 116.823 47.0571C116.604 47.0571 117.813 48.2357 117.74 48.5287C117.744 48.5303 116.752 47.3518 116.497 47.4263Z" fill="#009688"/>
<path d="M94.6495 48.9027L94.5258 48.2406C94.5256 48.1919 94.5156 48.1438 94.4963 48.0991C94.477 48.0545 94.4489 48.0142 94.4136 47.9808L93.8412 47.6994C93.7991 47.6496 93.7646 47.5938 93.739 47.5338L93.7489 47.5189C93.7804 47.4796 93.8029 47.4339 93.8149 47.3849C93.8159 47.3722 93.8159 47.3595 93.8149 47.3468H93.8231C93.8759 47.3539 93.9295 47.3408 93.9732 47.3101C94.0168 47.2795 94.0475 47.2335 94.059 47.1813V47.1664C94.0488 47.2111 94.0245 47.2514 93.9898 47.2812C93.955 47.311 93.9116 47.3288 93.866 47.3319C93.9456 47.2783 94.0109 47.2059 94.0561 47.1211C94.1013 47.0362 94.1249 46.9415 94.125 46.8452C94.125 46.8452 94.125 46.8287 94.125 46.8204C94.1502 46.8049 94.1719 46.7842 94.1887 46.7596C94.2055 46.7351 94.2169 46.7073 94.2223 46.6781V46.6632C94.2153 46.6909 94.2028 46.7169 94.1855 46.7397C94.1682 46.7625 94.1465 46.7815 94.1216 46.7956C94.1177 46.7389 94.1054 46.6832 94.0854 46.6301H94.1002C94.1566 46.6301 94.2108 46.6076 94.2507 46.5675C94.2906 46.5275 94.313 46.4732 94.313 46.4165C94.313 46.4165 94.313 46.4066 94.313 46.4016C94.3092 46.4553 94.2854 46.5057 94.2463 46.5425C94.2071 46.5793 94.1555 46.6 94.1019 46.6003H94.0755V46.5903C94.1387 46.5713 94.1953 46.5345 94.2385 46.4844C94.2817 46.4343 94.3099 46.3728 94.3196 46.3073C94.3196 46.3073 94.3196 46.2973 94.3196 46.2924C94.3168 46.3338 94.3018 46.3736 94.2767 46.4066C94.2795 46.3536 94.2625 46.3014 94.229 46.2602C94.1956 46.2191 94.148 46.1919 94.0957 46.1841C94.0434 46.1762 93.99 46.1882 93.946 46.2177C93.902 46.2472 93.8705 46.2921 93.8577 46.3437L93.8198 46.3222C93.8317 46.2795 93.8565 46.2416 93.8908 46.2138C93.925 46.1859 93.9671 46.1694 94.0111 46.1666H93.9963C93.9517 46.1662 93.9081 46.1799 93.8717 46.2058C93.8353 46.2316 93.8079 46.2683 93.7934 46.3106C93.6659 46.2511 93.5213 46.2398 93.3862 46.2787C93.251 46.3176 93.1344 46.4042 93.0578 46.5225C93.0132 46.5556 92.9555 46.6036 92.9571 46.6449C92.938 46.6641 92.9209 46.6852 92.906 46.7078C92.8432 46.8461 92.8204 46.9992 92.84 47.1498C92.8491 47.2247 92.8401 47.3006 92.8137 47.3712C92.7873 47.4418 92.7442 47.505 92.6883 47.5554C92.7128 47.5656 92.7392 47.5709 92.7658 47.5709C92.7924 47.5709 92.8188 47.5656 92.8433 47.5554C92.8924 47.5346 92.9384 47.5073 92.9802 47.4742C93.0193 47.4504 93.0525 47.4182 93.0776 47.3799V47.3716C93.105 47.39 93.1343 47.4056 93.165 47.418C93.1765 47.5173 93.1798 47.6315 93.1353 47.6696L93.1435 47.6514C93.0372 47.7317 92.9049 47.7694 92.7724 47.7573C92.6924 47.7618 92.615 47.7871 92.5476 47.8306C92.4803 47.8741 92.4253 47.9344 92.3881 48.0056L92.2083 48.7587V48.772V48.7852C92.211 48.7954 92.2165 48.8046 92.224 48.8119C92.2316 48.8192 92.241 48.8243 92.2512 48.8266L92.3073 48.8415C92.3157 48.9702 92.3029 49.0994 92.2693 49.2239C92.2317 49.4092 92.2102 49.5975 92.205 49.7867C92.2182 49.881 92.2413 50.3726 92.2528 50.606C92.2328 50.6857 92.2169 50.7664 92.205 50.8477L91.9394 52.4467C91.9394 52.4467 91.7415 53.7262 91.7514 54.1136L91.7168 54.337C91.7168 54.337 91.1774 55.0157 91.3357 55.1117C91.4941 55.2077 91.7382 55.2491 91.9708 54.8882C92.0023 54.8032 92.0531 54.7267 92.1192 54.6648C92.1456 54.6418 92.1662 54.6129 92.1791 54.5803C92.192 54.5478 92.1969 54.5126 92.1935 54.4777L92.177 54.3122L92.205 54.3221H92.2215C92.2215 54.3221 92.4871 53.4465 92.4574 52.8324C92.4574 52.8324 92.9522 51.0745 93.3233 50.798V50.7864L93.358 50.7699L93.4371 52.4732L93.3563 54.3503L93.3382 54.4628C93.3382 54.4628 92.7988 55.1415 92.9571 55.2375C93.1155 55.3335 93.3596 55.3749 93.5922 55.014C93.6237 54.929 93.6745 54.8525 93.7406 54.7906C93.767 54.7676 93.7876 54.7387 93.8005 54.7061C93.8134 54.6736 93.8183 54.6384 93.8149 54.6035L93.7901 54.3552C93.8825 54.0391 94.12 53.1287 94.0227 52.6006L94.1876 51.4784C94.3526 51.2913 94.3311 50.8162 94.3311 50.8162C94.4614 50.5431 94.4961 49.4722 94.4961 49.4722L94.5291 48.9425C94.5538 48.9404 94.5786 48.9404 94.6033 48.9425H94.6198H94.6297V48.9325C94.6344 48.9284 94.6384 48.9233 94.6412 48.9176H94.6511V48.9044L94.6495 48.9027ZM94.1876 49.9787C94.1728 49.9423 94.1563 49.9058 94.1381 49.8694H94.125V49.8562C94.1245 49.8518 94.1245 49.8473 94.125 49.8429V49.8297C94.1327 49.8119 94.1393 49.7937 94.1447 49.7751C94.1661 49.7409 94.177 49.7012 94.1761 49.6609C94.1955 49.7657 94.1994 49.8727 94.1876 49.9787ZM94.1381 49.5251L94.1052 49.1709L94.1151 49.1428L94.1596 49.593L94.1381 49.5251ZM92.5745 49.5731C92.5631 49.5862 92.5546 49.6014 92.5495 49.618C92.5444 49.6345 92.5428 49.6519 92.5448 49.6691C92.5448 49.6691 92.5448 49.6691 92.5448 49.6807C92.545 49.7165 92.55 49.7522 92.5596 49.7867L92.5085 50.0085V49.5847C92.5424 49.54 92.5722 49.4924 92.5976 49.4424C92.6028 49.4873 92.5947 49.5327 92.5745 49.5731Z" fill="url(#paint3_linear)"/>
<path d="M92.9079 46.8386C92.8472 46.9716 92.8249 47.119 92.8436 47.264C92.8522 47.3362 92.8434 47.4094 92.8178 47.4774C92.7923 47.5454 92.7507 47.6062 92.6968 47.6547C92.7206 47.6646 92.7461 47.6698 92.7718 47.6698C92.7976 47.6698 92.8231 47.6646 92.8469 47.6547C92.8941 47.6347 92.9385 47.6086 92.9788 47.5769C93.0165 47.554 93.0487 47.5228 93.0728 47.4858C93.0957 47.4286 93.103 47.3664 93.0943 47.3054C93.0945 47.1972 93.1039 47.0892 93.1223 46.9826C93.1322 46.9164 93.1949 46.736 93.1223 46.7012C93.0497 46.6665 92.9392 46.789 92.9079 46.8386Z" fill="#72351C"/>
<path d="M91.8177 53.8752L91.7666 54.2063C91.7666 54.2063 91.247 54.8684 91.4004 54.9528C91.5538 55.0372 91.788 55.0852 92.0123 54.7376C92.0424 54.6558 92.0909 54.5822 92.1542 54.5224C92.1796 54.5003 92.1993 54.4723 92.2116 54.4409C92.224 54.4095 92.2286 54.3756 92.2251 54.342L92.174 53.8372L91.8177 53.8752Z" fill="#333333"/>
<path d="M93.3812 54.006L93.3301 54.337C93.3301 54.337 92.8105 54.9991 92.9639 55.0835C93.1173 55.168 93.3515 55.216 93.5758 54.8684C93.6059 54.7866 93.6544 54.7129 93.7177 54.6532C93.7431 54.631 93.7627 54.6031 93.7751 54.5717C93.7874 54.5403 93.7921 54.5063 93.7886 54.4728L93.7375 53.9679L93.3812 54.006Z" fill="#333333"/>
<path d="M92.5716 50.0482C92.5716 50.0482 92.3275 50.2253 92.2417 50.8411L91.986 52.3822C91.986 52.3822 91.7699 53.7792 91.8095 54.0474L92.2417 54.1964C92.2417 54.1964 92.4973 53.3522 92.4693 52.7645C92.4693 52.7645 92.9889 50.9073 93.3534 50.7782L93.4309 52.4186L93.3485 54.2642L93.7179 54.3387C93.7179 54.3387 94.0924 53.1635 93.9736 52.5411L94.1666 51.2169C94.1666 51.2169 94.3876 50.5101 94.0808 49.8926L92.5716 50.0482Z" fill="#4D8AF0"/>
<g opacity="0.1">
<path opacity="0.1" d="M93.3153 50.803V50.7749C92.9507 50.9057 92.4312 52.7612 92.4312 52.7612C92.4223 53.2416 92.3474 53.7184 92.2085 54.1781L92.2547 54.1947C92.2547 54.1947 92.5103 53.3505 92.4823 52.7629C92.4807 52.7645 92.9557 51.0762 93.3153 50.803Z" fill="black"/>
<path opacity="0.1" d="M94.0955 49.9009H94.046C94.2233 50.3158 94.2524 50.7795 94.1284 51.2135L93.9355 52.5377C94.0493 53.127 93.7177 54.2112 93.6831 54.3254L93.7309 54.3354C93.7309 54.3354 94.1054 53.1601 93.9866 52.5377L94.1796 51.2135C94.1796 51.2135 94.4023 50.51 94.0955 49.9009Z" fill="black"/>
</g>
<path d="M92.2398 48.8415C92.2395 48.8542 92.2436 48.8666 92.2514 48.8766C92.2592 48.8865 92.2703 48.8935 92.2826 48.8962C92.4033 48.9266 92.5159 48.9831 92.6125 49.0617C92.794 49.204 92.4196 48.777 92.4196 48.777L92.2942 48.8051L92.2431 48.8515L92.2398 48.8415Z" fill="#F55F44"/>
<path opacity="0.1" d="M92.2398 48.8415C92.2395 48.8542 92.2436 48.8666 92.2514 48.8766C92.2592 48.8865 92.2703 48.8935 92.2826 48.8962C92.4033 48.9266 92.5159 48.9831 92.6125 49.0617C92.794 49.204 92.4196 48.777 92.4196 48.777L92.2942 48.8051L92.2431 48.8515L92.2398 48.8415Z" fill="black"/>
<path d="M94.0244 49.2189C94.177 49.1102 94.3536 49.0404 94.539 49.0153C94.5517 49.0153 94.5639 49.0103 94.5729 49.0013C94.5818 48.9923 94.5869 48.9801 94.5869 48.9673C94.5869 48.9673 94.1547 48.7968 94.0244 49.2189Z" fill="#F55F44"/>
<path opacity="0.1" d="M94.5869 48.9656C94.5869 48.9656 94.1547 48.8001 94.0244 49.2172C94.0244 49.2172 94.3428 48.9723 94.5638 49.012" fill="black"/>
<path d="M93.5234 47.5355C93.834 47.5355 94.0858 47.2828 94.0858 46.9711C94.0858 46.6593 93.834 46.4066 93.5234 46.4066C93.2128 46.4066 92.9609 46.6593 92.9609 46.9711C92.9609 47.2828 93.2128 47.5355 93.5234 47.5355Z" fill="#72351C"/>
<path d="M93.1353 47.3666C93.1353 47.3666 93.2145 47.6977 93.1353 47.7656C93.0561 47.8334 92.8961 47.9592 93.0166 48.0569C93.137 48.1545 93.5675 48.3201 93.711 48.239C93.8545 48.1578 94.0178 48.1827 93.9782 48.0172C93.9386 47.8516 93.6252 47.8864 93.6203 47.0637L93.1353 47.3666Z" fill="#FDB797"/>
<path opacity="0.1" d="M92.339 48.7422C92.3508 48.9217 92.3391 49.102 92.3044 49.2785C92.2679 49.4568 92.2469 49.6379 92.2417 49.8198C92.2582 49.939 92.2928 50.7269 92.2928 50.7269C92.2928 50.7269 92.2302 51.4171 92.565 51.3542C92.8998 51.2913 92.5139 50.5663 92.5139 50.5663L92.5303 49.6245C92.6212 49.5007 92.678 49.3551 92.6953 49.2024C92.72 48.9756 92.339 48.7422 92.339 48.7422Z" fill="black"/>
<path d="M92.3336 48.7422C92.3454 48.9217 92.3338 49.102 92.299 49.2785C92.2625 49.4568 92.2416 49.6379 92.2363 49.8198C92.2528 49.939 92.2875 50.7269 92.2875 50.7269C92.2875 50.7269 92.2248 51.4171 92.5596 51.3542C92.8944 51.2913 92.5085 50.5663 92.5085 50.5663L92.525 49.6245C92.6158 49.5007 92.6727 49.3551 92.6899 49.2024C92.713 48.9756 92.3336 48.7422 92.3336 48.7422Z" fill="#FDB797"/>
<path opacity="0.1" d="M94.4761 48.7935L94.4299 49.5301C94.4299 49.5301 94.4018 50.563 94.2765 50.8246C94.2765 50.8246 94.3111 51.5496 93.9747 51.5314C93.6382 51.5132 94.0307 50.7385 94.0307 50.7385C94.0307 50.7385 94.2105 49.9324 94.1181 49.6774L94.0307 48.7935H94.4761Z" fill="black"/>
<path d="M94.4814 48.7935L94.4353 49.5301C94.4353 49.5301 94.4072 50.563 94.2819 50.8246C94.2819 50.8246 94.3165 51.5496 93.98 51.5314C93.6435 51.5132 94.0361 50.7385 94.0361 50.7385C94.0361 50.7385 94.2159 49.9324 94.1235 49.6774L94.0361 48.7935H94.4814Z" fill="#FDB797"/>
<path opacity="0.1" d="M93.3909 48.0801C93.3909 48.0801 93.6631 48.2059 93.8116 47.8318L94.3641 48.1033C94.3981 48.1357 94.4251 48.1747 94.4436 48.218C94.462 48.2613 94.4714 48.3078 94.4713 48.3549L94.5901 48.9938C94.5901 48.9938 94.186 48.8564 94.0606 49.2338L94.0953 49.593C94.1213 49.6817 94.1149 49.7769 94.0771 49.8612C94.0738 49.8688 94.0721 49.8769 94.0721 49.8852C94.0721 49.8935 94.0738 49.9016 94.0771 49.9092C94.0854 49.9354 94.0874 49.9631 94.083 49.9902C94.0787 50.0172 94.068 50.0429 94.052 50.0651C94.036 50.0874 94.015 50.1055 93.9907 50.1181C93.9664 50.1307 93.9395 50.1374 93.9122 50.1376C93.7637 50.1393 93.6154 50.151 93.4685 50.1724C93.3497 50.2072 92.9901 50.1045 92.8714 50.1724C92.7526 50.2403 92.5019 50.1211 92.5019 50.1211L92.5695 49.8298C92.5695 49.8298 92.5233 49.6874 92.5811 49.6361C92.6388 49.5848 92.6042 49.1395 92.553 49.0137C92.553 49.0137 92.3485 48.82 92.2231 48.8482L92.3881 48.1116C92.4237 48.0429 92.4764 47.9846 92.5412 47.9426C92.606 47.9005 92.6805 47.876 92.7576 47.8716C92.8854 47.883 93.013 47.8465 93.1155 47.7689C93.1155 47.7689 92.9918 48.0404 93.3909 48.0801Z" fill="black"/>
<path opacity="0.1" d="M93.419 48.0668C93.4932 48.0867 93.6911 48.1082 93.8099 47.8086L94.3625 48.0801C94.3965 48.1125 94.4235 48.1515 94.4419 48.1948C94.4604 48.238 94.4698 48.2846 94.4697 48.3317L94.5884 48.9706C94.5884 48.9706 94.1843 48.8332 94.059 49.2106L94.0936 49.5698L94.1167 49.641C94.1266 49.6714 94.1293 49.7038 94.1244 49.7354C94.1195 49.7671 94.1073 49.7971 94.0887 49.8231C94.0809 49.832 94.0757 49.8429 94.0736 49.8546C94.0716 49.8662 94.0728 49.8783 94.0771 49.8893C94.0854 49.9154 94.0874 49.9432 94.083 49.9703C94.0787 49.9973 94.0681 50.023 94.052 50.0452C94.036 50.0674 94.015 50.0856 93.9907 50.0982C93.9664 50.1108 93.9395 50.1175 93.9122 50.1177C93.7637 50.1194 93.6154 50.1311 93.4685 50.1525C93.3497 50.1873 92.9901 50.0846 92.8714 50.1525C92.7526 50.2204 92.5019 50.1012 92.5019 50.1012L92.5695 49.8098C92.5695 49.8098 92.5233 49.6675 92.5811 49.6162C92.6388 49.5649 92.6042 49.1196 92.553 48.9938C92.553 48.9938 92.3485 48.8001 92.2231 48.8283L92.3881 48.0917C92.4237 48.023 92.4764 47.9647 92.5412 47.9227C92.606 47.8806 92.6805 47.8561 92.7576 47.8516C92.8854 47.8631 93.013 47.8266 93.1155 47.749C93.1155 47.749 92.9819 47.994 93.3332 48.047L93.419 48.0668Z" fill="black"/>
<path d="M93.4192 48.0784C93.4934 48.0983 93.6913 48.1198 93.8101 47.8202L94.3627 48.0917C94.3966 48.1241 94.4237 48.1631 94.4421 48.2064C94.4605 48.2497 94.47 48.2962 94.4699 48.3433L94.5886 48.9822C94.5886 48.9822 94.1845 48.8448 94.0592 49.2222L94.0938 49.5814C94.1198 49.6701 94.1134 49.7652 94.0757 49.8496C94.0723 49.8572 94.0706 49.8653 94.0706 49.8736C94.0706 49.8819 94.0723 49.89 94.0757 49.8976C94.0839 49.9238 94.0859 49.9515 94.0816 49.9786C94.0772 50.0056 94.0666 50.0313 94.0506 50.0535C94.0345 50.0757 94.0135 50.0939 93.9892 50.1065C93.9649 50.1191 93.938 50.1258 93.9107 50.126C93.7622 50.1277 93.614 50.1394 93.467 50.1608C93.3482 50.1955 92.9887 50.0929 92.8699 50.1608C92.7512 50.2287 92.5004 50.1095 92.5004 50.1095L92.5681 49.8181C92.5681 49.8181 92.5219 49.6758 92.5796 49.6245C92.6373 49.5732 92.6027 49.1279 92.5516 49.0021C92.5516 49.0021 92.347 48.8084 92.2217 48.8366L92.3866 48.1C92.4222 48.0313 92.475 47.973 92.5398 47.931C92.6045 47.8889 92.6791 47.8644 92.7561 47.86C92.884 47.8714 93.0115 47.8349 93.114 47.7573C93.114 47.7573 92.9804 48.0023 93.3318 48.0553L93.4192 48.0784Z" fill="#F55F44"/>
<path opacity="0.1" d="M93.6288 47.0936L93.1455 47.3965C93.1578 47.4511 93.1671 47.5064 93.1735 47.562C93.2286 47.584 93.2874 47.5953 93.3467 47.5951C93.4648 47.5868 93.576 47.5363 93.6601 47.4528C93.6383 47.3343 93.6278 47.214 93.6288 47.0936Z" fill="black"/>
<path d="M93.3364 47.5587C93.5942 47.5587 93.8032 47.349 93.8032 47.0903C93.8032 46.8316 93.5942 46.6218 93.3364 46.6218C93.0786 46.6218 92.8696 46.8316 92.8696 47.0903C92.8696 47.349 93.0786 47.5587 93.3364 47.5587Z" fill="#FDB797"/>
<path d="M94.0243 46.7311C94.1373 46.7311 94.2289 46.6392 94.2289 46.5258C94.2289 46.4125 94.1373 46.3206 94.0243 46.3206C93.9114 46.3206 93.8198 46.4125 93.8198 46.5258C93.8198 46.6392 93.9114 46.7311 94.0243 46.7311Z" fill="#72351C"/>
<path d="M94.0639 46.7427C94.0121 46.7428 93.9622 46.7232 93.9243 46.6879C93.8863 46.6526 93.8631 46.6041 93.8594 46.5523C93.8594 46.5523 93.8594 46.5622 93.8594 46.5672C93.8594 46.6216 93.8809 46.6738 93.9193 46.7123C93.9576 46.7508 94.0097 46.7725 94.0639 46.7725C94.1182 46.7725 94.1702 46.7508 94.2085 46.7123C94.2469 46.6738 94.2684 46.6216 94.2684 46.5672C94.2684 46.5672 94.2684 46.5573 94.2684 46.5523C94.2647 46.6041 94.2415 46.6526 94.2035 46.6879C94.1656 46.7232 94.1157 46.7428 94.0639 46.7427Z" fill="#72351C"/>
<path d="M93.9472 46.9379C93.8964 46.9283 93.8512 46.8997 93.8206 46.8579C93.79 46.8161 93.7763 46.7643 93.7822 46.7128V46.7261C93.7724 46.7796 93.7841 46.8349 93.8149 46.8798C93.8457 46.9246 93.893 46.9554 93.9463 46.9653C93.9997 46.9751 94.0548 46.9633 94.0995 46.9324C94.1442 46.9016 94.1748 46.8541 94.1847 46.8006V46.7857C94.1721 46.8368 94.1404 46.8811 94.0962 46.9094C94.052 46.9378 93.9987 46.948 93.9472 46.9379Z" fill="#72351C"/>
<path d="M93.7885 47.4345C93.7377 47.4248 93.6925 47.3962 93.6619 47.3545C93.6313 47.3127 93.6176 47.2609 93.6235 47.2094V47.2227C93.6137 47.2762 93.6254 47.3315 93.6562 47.3764C93.687 47.4212 93.7343 47.452 93.7876 47.4618C93.841 47.4717 93.8961 47.4599 93.9408 47.429C93.9855 47.3981 94.0161 47.3507 94.026 47.2971V47.2822C94.0134 47.3333 93.9817 47.3777 93.9375 47.406C93.8933 47.4343 93.84 47.4446 93.7885 47.4345Z" fill="#72351C"/>
<path d="M94.0639 46.6334C94.0119 46.6335 93.9618 46.6137 93.9238 46.578C93.8858 46.5423 93.8627 46.4935 93.8594 46.4413C93.8594 46.4413 93.8594 46.4513 93.8594 46.4562C93.8594 46.5107 93.8809 46.5629 93.9193 46.6014C93.9576 46.6399 94.0097 46.6615 94.0639 46.6615C94.1182 46.6615 94.1702 46.6399 94.2085 46.6014C94.2469 46.5629 94.2684 46.5107 94.2684 46.4562C94.2684 46.4562 94.2684 46.4463 94.2684 46.4413C94.2651 46.4935 94.2421 46.5423 94.2041 46.578C94.1661 46.6137 94.1159 46.6335 94.0639 46.6334Z" fill="#72351C"/>
<path d="M93.7788 46.5224C93.7792 46.4702 93.7993 46.4201 93.8352 46.3823C93.871 46.3445 93.9199 46.3218 93.9718 46.3188H93.957C93.9027 46.3188 93.8507 46.3405 93.8123 46.379C93.774 46.4175 93.7524 46.4697 93.7524 46.5241C93.7524 46.5785 93.774 46.6307 93.8123 46.6692C93.8507 46.7077 93.9027 46.7294 93.957 46.7294H93.9718C93.9193 46.7264 93.87 46.7032 93.834 46.6647C93.7981 46.6262 93.7783 46.5752 93.7788 46.5224Z" fill="#72351C"/>
<path opacity="0.1" d="M93.9848 48.4592C94.0063 48.5607 94.0063 48.6656 93.9848 48.767C93.9848 48.767 93.9567 49.0352 94.0013 49.0816" fill="black"/>
<path opacity="0.1" d="M92.6029 48.522C92.6244 48.6235 92.6244 48.7284 92.6029 48.8299C92.6029 48.8299 92.5749 49.0981 92.6194 49.1444" fill="black"/>
<path opacity="0.1" d="M92.5908 49.6228C92.6351 49.6387 92.6835 49.6387 92.7277 49.6228C92.7815 49.6064 92.8389 49.6064 92.8927 49.6228" fill="black"/>
<path opacity="0.1" d="M92.6606 49.2189C92.8213 49.2266 92.9818 49.2013 93.1324 49.1444C93.1324 49.1444 93.713 49.2868 93.8779 49.1841" fill="black"/>
<path d="M92.4857 51.6786H92.3488C92.2878 51.6786 92.2383 51.7283 92.2383 51.7895C92.2383 51.8508 92.2878 51.9004 92.3488 51.9004H92.4857C92.5467 51.9004 92.5962 51.8508 92.5962 51.7895C92.5962 51.7283 92.5467 51.6786 92.4857 51.6786Z" fill="#FDB797"/>
<path d="M92.2397 51.7383L92.4311 51.73L92.596 51.7565H92.5383L92.2397 51.7383Z" fill="#F0E4E4"/>
<path d="M93.5298 50.8096H93.7211L93.8861 50.8262H93.8283L93.5298 50.8096Z" fill="#F0E4E4"/>
<path d="M93.5298 50.8494H93.7211L93.8861 50.8659H93.8283L93.5298 50.8494Z" fill="#F0E4E4"/>
<path d="M93.5298 50.8907H93.7211L93.8861 50.9073H93.8283L93.5298 50.8907Z" fill="#F0E4E4"/>
<path d="M93.5298 50.9305H93.7211L93.8861 50.947H93.8283L93.5298 50.9305Z" fill="#F0E4E4"/>
<path d="M92.2397 51.8922H92.4311L92.596 51.9121H92.5383L92.2397 51.8922Z" fill="#F0E4E4"/>
<path d="M92.2397 51.8723H92.4311L92.596 51.8922H92.5383L92.2397 51.8723Z" fill="#F0E4E4"/>
<path d="M92.2397 51.8525H92.4311L92.596 51.8723H92.5383L92.2397 51.8525Z" fill="#F0E4E4"/>
<path d="M92.2397 51.8326H92.4311L92.596 51.8525H92.5383L92.2397 51.8326Z" fill="#F0E4E4"/>
<path d="M92.2397 51.7085L92.4311 51.7002L92.596 51.7267H92.5383L92.2397 51.7085Z" fill="#F0E4E4"/>
<path d="M92.2397 51.6737L92.4311 51.6654L92.596 51.6919H92.5383L92.2397 51.6737Z" fill="#F0E4E4"/>
<path opacity="0.1" d="M93.4158 46.7906C93.3975 46.9656 93.4201 47.1424 93.4818 47.3071C93.5124 47.387 93.526 47.4725 93.5218 47.558C93.5175 47.6435 93.4955 47.7272 93.4571 47.8037C93.4824 47.8095 93.5088 47.8093 93.534 47.8029C93.5592 47.7966 93.5826 47.7844 93.6022 47.7673C93.6432 47.7312 93.6788 47.6894 93.7078 47.6431C93.7384 47.6054 93.7604 47.5613 93.7721 47.514C93.7771 47.4396 93.7659 47.3651 93.7391 47.2955C93.7071 47.1687 93.684 47.0398 93.6698 46.9098C93.66 46.8304 93.6698 46.6019 93.5808 46.5788C93.4917 46.5556 93.4323 46.7244 93.4158 46.7906Z" fill="black"/>
<path d="M93.4271 46.7857C93.4088 46.9606 93.4314 47.1374 93.493 47.3021C93.5236 47.382 93.5372 47.4675 93.533 47.553C93.5287 47.6385 93.5067 47.7222 93.4683 47.7987C93.4936 47.8045 93.52 47.8043 93.5452 47.798C93.5704 47.7916 93.5938 47.7794 93.6134 47.7623C93.6544 47.7262 93.69 47.6844 93.719 47.6381C93.7497 47.6004 93.7716 47.5563 93.7833 47.509C93.7883 47.4346 93.7771 47.3601 93.7504 47.2905C93.7184 47.1637 93.6952 47.0349 93.6811 46.9048C93.6712 46.8254 93.6811 46.597 93.592 46.5738C93.5029 46.5506 93.4435 46.7178 93.4271 46.7857Z" fill="#72351C"/>
<path opacity="0.1" d="M93.226 46.9082C93.2655 46.9495 93.2738 47.0108 93.3068 47.0571C93.3361 47.0887 93.372 47.1134 93.4119 47.1294C93.4518 47.1454 93.4948 47.1524 93.5377 47.1498C93.5612 47.1486 93.5845 47.1537 93.6053 47.1647C93.6416 47.1879 93.6433 47.2409 93.6664 47.2773C93.6787 47.2906 93.6936 47.3012 93.7102 47.3084C93.7268 47.3156 93.7448 47.3194 93.7629 47.3194C93.781 47.3194 93.7989 47.3156 93.8155 47.3084C93.8321 47.3012 93.847 47.2906 93.8593 47.2773C93.907 47.2202 93.9332 47.1482 93.9336 47.0737C93.9415 46.9917 93.9415 46.9091 93.9336 46.827C93.9313 46.7331 93.8943 46.6434 93.8297 46.5754C93.7755 46.5352 93.7129 46.508 93.6466 46.496C93.5561 46.4639 93.4588 46.4565 93.3645 46.4745C93.3188 46.4898 93.2755 46.5115 93.2359 46.539C93.1798 46.5754 93.1248 46.6124 93.0709 46.6499C93.0099 46.693 92.8944 46.779 93.0066 46.8254C93.0775 46.8585 93.1666 46.8436 93.226 46.9082Z" fill="black"/>
<path d="M93.2377 46.9015C93.2773 46.9429 93.2855 47.0041 93.3185 47.0505C93.3478 47.082 93.3837 47.1067 93.4236 47.1227C93.4635 47.1388 93.5065 47.1457 93.5494 47.1432C93.5729 47.1419 93.5963 47.1471 93.617 47.1581C93.6533 47.1812 93.655 47.2342 93.6781 47.2706C93.6904 47.2839 93.7054 47.2945 93.722 47.3017C93.7386 47.309 93.7565 47.3127 93.7746 47.3127C93.7927 47.3127 93.8106 47.309 93.8272 47.3017C93.8438 47.2945 93.8587 47.2839 93.8711 47.2706C93.9187 47.2135 93.9449 47.1415 93.9453 47.067C93.9532 46.985 93.9532 46.9024 93.9453 46.8204C93.9431 46.7265 93.906 46.6368 93.8414 46.5688C93.7872 46.5286 93.7246 46.5014 93.6583 46.4893C93.5678 46.4573 93.4705 46.4499 93.3762 46.4678C93.3305 46.4831 93.2872 46.5048 93.2476 46.5324C93.1915 46.5688 93.1365 46.6058 93.0826 46.6433C93.0216 46.6863 92.9061 46.7724 93.0183 46.8187C93.0892 46.8518 93.1832 46.8386 93.2377 46.9015Z" fill="#72351C"/>
<path d="M93.541 50.8096H93.7324L93.8973 50.8262H93.8429L93.541 50.8096Z" fill="#F0E4E4"/>
<path d="M93.541 50.8494H93.7324L93.8973 50.8659H93.8429L93.541 50.8494Z" fill="#F0E4E4"/>
<path d="M93.541 50.8907H93.7324L93.8973 50.9073H93.8429L93.541 50.8907Z" fill="#F0E4E4"/>
<path d="M93.541 50.9305H93.7324L93.8973 50.947H93.8429L93.541 50.9305Z" fill="#F0E4E4"/>
<path d="M93.459 53.127H93.6503L93.8153 53.1436H93.7575L93.459 53.127Z" fill="#F0E4E4"/>
<path d="M93.459 53.1684H93.6503L93.8153 53.185H93.7575L93.459 53.1684Z" fill="#F0E4E4"/>
<path d="M93.459 53.2081H93.6503L93.8153 53.2247H93.7575L93.459 53.2081Z" fill="#F0E4E4"/>
<path d="M93.459 53.2479H93.6503L93.8153 53.2644H93.7575L93.459 53.2479Z" fill="#F0E4E4"/>
</g>
<defs>
<linearGradient  x1="74.0335" y1="101.244" x2="74.0335" y2="63.2159" gradientUnits="userSpaceOnUse">
<stop stop-color="#808080" stop-opacity="0.25"/>
<stop offset="0.54" stop-color="#808080" stop-opacity="0.12"/>
<stop offset="1" stop-color="#808080" stop-opacity="0.1"/>
</linearGradient>
<linearGradient  x1="52574" y1="40591.4" x2="52574" y2="0.245911" gradientUnits="userSpaceOnUse">
<stop stop-color="#808080" stop-opacity="0.25"/>
<stop offset="0.54" stop-color="#808080" stop-opacity="0.12"/>
<stop offset="1" stop-color="#808080" stop-opacity="0.1"/>
</linearGradient>
<linearGradient  x1="32232.2" y1="47429.3" x2="32232.2" y2="20428.4" gradientUnits="userSpaceOnUse">
<stop stop-color="#808080" stop-opacity="0.25"/>
<stop offset="0.54" stop-color="#808080" stop-opacity="0.12"/>
<stop offset="1" stop-color="#808080" stop-opacity="0.1"/>
</linearGradient>
<linearGradient  x1="2391.54" y1="4410.24" x2="2391.54" y2="3904.56" gradientUnits="userSpaceOnUse">
<stop stop-color="#808080" stop-opacity="0.25"/>
<stop offset="0.54" stop-color="#808080" stop-opacity="0.12"/>
<stop offset="1" stop-color="#808080" stop-opacity="0.1"/>
</linearGradient>
<clipPath >
<rect width="157" height="101" fill="white" transform="translate(0 0.245911)"/>
</clipPath>
</defs>
</svg>
