<svg width="32" height="32" viewBox="0 0 32 32" fill="none" xmlns="http://www.w3.org/2000/svg">
<path fill-rule="evenodd" clip-rule="evenodd" d="M16 32C24.8366 32 32 24.8366 32 16C32 7.16344 24.8366 0 16 0C7.16344 0 0 7.16344 0 16C0 24.8366 7.16344 32 16 32ZM15.9383 4.01446C9.81343 4.30255 4.9816 9.36134 5.00005 15.4423C5.00309 17.2322 5.43205 18.9957 6.25155 20.5875L5.0312 26.4656C5.01631 26.5391 5.02021 26.6151 5.04253 26.6867C5.06486 26.7583 5.10489 26.8231 5.15893 26.8751C5.21297 26.9272 5.27927 26.9648 5.3517 26.9844C5.42413 27.0041 5.50036 27.0052 5.57332 26.9876L11.3798 25.6232C12.9177 26.3824 14.606 26.7888 16.3212 26.8124C22.581 26.9081 27.7993 21.9783 27.9942 15.773C28.2041 9.11819 22.6687 3.69527 15.9383 4.01331V4.01446ZM22.8671 21.7225C22.0303 22.5556 21.0371 23.2154 19.9445 23.6643C18.8519 24.1132 17.6814 24.3422 16.5 24.3383C15.1101 24.3426 13.7383 24.0238 12.4929 23.4072L11.6843 23.0074L8.12362 23.844L8.87336 20.236L8.47427 19.4616C7.82729 18.2087 7.49179 16.8186 7.49613 15.4088C7.49613 13.0235 8.43274 10.7799 10.1329 9.09399C11.8276 7.41814 14.1155 6.47776 16.5 6.47702C18.9061 6.47702 21.1669 7.40581 22.8671 9.09284C23.7048 9.9175 24.3695 10.9007 24.8224 11.985C25.2754 13.0692 25.5074 14.2328 25.5051 15.4077C25.5051 17.7723 24.5535 20.0516 22.8671 21.7237V21.7225ZM22.0816 17.8806L19.8543 17.2468C19.7105 17.2056 19.5584 17.2038 19.4137 17.2415C19.269 17.2792 19.1371 17.355 19.0319 17.4612L18.4874 18.012C18.3748 18.126 18.231 18.2043 18.074 18.237C17.9171 18.2698 17.754 18.2557 17.605 18.1963C16.5519 17.7734 14.335 15.8191 13.7686 14.8407C13.6892 14.7025 13.653 14.5438 13.6645 14.3849C13.676 14.226 13.7348 14.0741 13.8332 13.9488L14.3085 13.3381C14.3999 13.2211 14.4578 13.0814 14.4759 12.934C14.494 12.7866 14.4716 12.6371 14.4111 12.5015L13.4745 10.3996C13.4215 10.2821 13.342 10.1785 13.2422 10.0969C13.1423 10.0153 13.0249 9.958 12.8992 9.92941C12.7734 9.90082 12.6427 9.90176 12.5174 9.93216C12.3921 9.96255 12.2755 10.0216 12.1769 10.1046C11.5552 10.6266 10.8169 11.4183 10.7281 12.2975C10.5701 13.8451 11.2391 15.796 13.7698 18.1399C16.6938 20.8467 19.0365 21.2051 20.5602 20.8375C21.4253 20.6301 22.1174 19.797 22.5522 19.1159C22.6218 19.0077 22.6649 18.8848 22.6782 18.7569C22.6915 18.629 22.6746 18.4998 22.6289 18.3796C22.5831 18.2595 22.5097 18.1517 22.4147 18.0651C22.3196 17.9784 22.2055 17.9152 22.0816 17.8806Z" fill="#E5E5E5"/>
</svg>
